%TF.GenerationSoftware,KiCad,Pcbnew,9.0.7*%
%TF.CreationDate,2026-03-21T16:53:52+13:00*%
%TF.ProjectId,PomodoroTimer,506f6d6f-646f-4726-9f54-696d65722e6b,rev?*%
%TF.SameCoordinates,Original*%
%TF.FileFunction,Copper,L2,Bot*%
%TF.FilePolarity,Positive*%
%FSLAX46Y46*%
G04 Gerber Fmt 4.6, Leading zero omitted, Abs format (unit mm)*
G04 Created by KiCad (PCBNEW 9.0.7) date 2026-03-21 16:53:52*
%MOMM*%
%LPD*%
G01*
G04 APERTURE LIST*
%TA.AperFunction,ComponentPad*%
%ADD10R,1.700000X1.700000*%
%TD*%
%TA.AperFunction,ComponentPad*%
%ADD11C,1.700000*%
%TD*%
%TA.AperFunction,ComponentPad*%
%ADD12C,1.600000*%
%TD*%
%TA.AperFunction,ComponentPad*%
%ADD13R,2.000000X2.000000*%
%TD*%
%TA.AperFunction,ComponentPad*%
%ADD14C,2.000000*%
%TD*%
%TA.AperFunction,ComponentPad*%
%ADD15R,2.000000X3.200000*%
%TD*%
%TA.AperFunction,ComponentPad*%
%ADD16O,2.900000X1.700000*%
%TD*%
%TA.AperFunction,ComponentPad*%
%ADD17R,1.800000X1.800000*%
%TD*%
%TA.AperFunction,ComponentPad*%
%ADD18C,1.800000*%
%TD*%
%TA.AperFunction,ComponentPad*%
%ADD19R,1.500000X1.500000*%
%TD*%
%TA.AperFunction,ComponentPad*%
%ADD20C,1.500000*%
%TD*%
%TA.AperFunction,ComponentPad*%
%ADD21R,1.600000X1.600000*%
%TD*%
%TA.AperFunction,ComponentPad*%
%ADD22O,1.600000X1.600000*%
%TD*%
%TA.AperFunction,ViaPad*%
%ADD23C,0.600000*%
%TD*%
%TA.AperFunction,Conductor*%
%ADD24C,0.400000*%
%TD*%
%TA.AperFunction,Conductor*%
%ADD25C,0.800000*%
%TD*%
G04 APERTURE END LIST*
D10*
%TO.P,SW2,1,A*%
%TO.N,unconnected-(SW2-A-Pad1)*%
X203000000Y-88740000D03*
D11*
%TO.P,SW2,2,B*%
%TO.N,Net-(SW2-B)*%
X203000000Y-91280000D03*
%TO.P,SW2,3,C*%
%TO.N,GND*%
X203000000Y-93820000D03*
%TD*%
D12*
%TO.P,R10,1*%
%TO.N,/CTRL_VIBR*%
X160000000Y-63500000D03*
%TO.P,R10,2*%
%TO.N,Net-(Q2-B)*%
X160000000Y-73660000D03*
%TD*%
D10*
%TO.P,RV1,1,1*%
%TO.N,unconnected-(RV1-Pad1)*%
X223500000Y-75500000D03*
D11*
%TO.P,RV1,2,2*%
%TO.N,VCC*%
X223500000Y-78040000D03*
%TO.P,RV1,3,3*%
%TO.N,Net-(RV1-Pad3)*%
X223500000Y-80580000D03*
%TD*%
D13*
%TO.P,SW6,A,A*%
%TO.N,/SNS_ENC_A*%
X185500000Y-75500000D03*
D14*
%TO.P,SW6,B,B*%
%TO.N,/SNS_ENC_B*%
X180500000Y-75500000D03*
%TO.P,SW6,C,C*%
%TO.N,GND*%
X183000000Y-75500000D03*
D15*
%TO.P,SW6,MP*%
%TO.N,N/C*%
X188600000Y-83000000D03*
X177400000Y-83000000D03*
D14*
%TO.P,SW6,S1,S1*%
%TO.N,/SNS_ENC_BUT*%
X180500000Y-90000000D03*
%TO.P,SW6,S2,S2*%
%TO.N,GND*%
X185500000Y-90000000D03*
%TD*%
D16*
%TO.P,SW5,1,1*%
%TO.N,GND*%
X237000000Y-71500000D03*
X249500000Y-71500000D03*
%TO.P,SW5,2,2*%
%TO.N,/SNS_RESET_BUT*%
X237000000Y-76500000D03*
X249500000Y-76500000D03*
%TD*%
D17*
%TO.P,D3,1,K*%
%TO.N,Net-(D3-K)*%
X203000000Y-79960000D03*
D18*
%TO.P,D3,2,A*%
%TO.N,+5V*%
X203000000Y-77420000D03*
%TD*%
D10*
%TO.P,LS1,1,1*%
%TO.N,Net-(LS1-Pad1)*%
X241385000Y-87275000D03*
D11*
%TO.P,LS1,2,2*%
%TO.N,Net-(Q1-C)*%
X241385000Y-84735000D03*
%TD*%
D16*
%TO.P,SW4,1,1*%
%TO.N,GND*%
X237000000Y-54500000D03*
X249500000Y-54500000D03*
%TO.P,SW4,2,2*%
%TO.N,/SNS_START_BUT*%
X237000000Y-59500000D03*
X249500000Y-59500000D03*
%TD*%
D12*
%TO.P,R14,1*%
%TO.N,+5V*%
X160000000Y-91580000D03*
%TO.P,R14,2*%
%TO.N,/SNS_RESET_BUT*%
X160000000Y-81420000D03*
%TD*%
D10*
%TO.P,SW7,1,A*%
%TO.N,unconnected-(SW7-A-Pad1)*%
X251500000Y-92580000D03*
D11*
%TO.P,SW7,2,B*%
%TO.N,VCC*%
X251500000Y-90040000D03*
%TO.P,SW7,3,C*%
%TO.N,Net-(BT1-+)*%
X251500000Y-87500000D03*
%TD*%
D17*
%TO.P,D1,1,K*%
%TO.N,Net-(D1-K)*%
X212000000Y-79960000D03*
D18*
%TO.P,D1,2,A*%
%TO.N,+5V*%
X212000000Y-77420000D03*
%TD*%
D17*
%TO.P,D2,1,K*%
%TO.N,Net-(D2-K)*%
X232000000Y-55540000D03*
D18*
%TO.P,D2,2,A*%
%TO.N,/CTRL_LED_BLINK*%
X232000000Y-53000000D03*
%TD*%
D10*
%TO.P,SW3,1,A*%
%TO.N,unconnected-(SW3-A-Pad1)*%
X194000000Y-88740000D03*
D11*
%TO.P,SW3,2,B*%
%TO.N,Net-(Q2-E)*%
X194000000Y-91280000D03*
%TO.P,SW3,3,C*%
%TO.N,GND*%
X194000000Y-93820000D03*
%TD*%
D19*
%TO.P,U1,1,e*%
%TO.N,/CTRL_7SEG_E*%
X196650000Y-66740000D03*
D20*
%TO.P,U1,2,d*%
%TO.N,/CTRL_7SEG_D*%
X199190000Y-66740000D03*
%TO.P,U1,3,DPX*%
%TO.N,/CTRL_7SEG_DP*%
X201730000Y-66740000D03*
%TO.P,U1,4,c*%
%TO.N,/CTRL_7SEG_C*%
X204270000Y-66740000D03*
%TO.P,U1,5,g*%
%TO.N,/CTRL_7SEG_G*%
X206810000Y-66740000D03*
%TO.P,U1,6,CC4*%
%TO.N,Net-(U1-CC4)*%
X209350000Y-66740000D03*
%TO.P,U1,7,b*%
%TO.N,/CTRL_7SEG_B*%
X209350000Y-51500000D03*
%TO.P,U1,8,CC3*%
%TO.N,Net-(U1-CC3)*%
X206810000Y-51500000D03*
%TO.P,U1,9,CC2*%
%TO.N,Net-(U1-CC2)*%
X204270000Y-51500000D03*
%TO.P,U1,10,f*%
%TO.N,/CTRL_7SEG_F*%
X201730000Y-51500000D03*
%TO.P,U1,11,a*%
%TO.N,/CTRL_7SEG_A*%
X199190000Y-51500000D03*
%TO.P,U1,12,CC1*%
%TO.N,Net-(U1-CC1)*%
X196650000Y-51500000D03*
%TD*%
D17*
%TO.P,D4,1,K*%
%TO.N,Net-(D4-K)*%
X194000000Y-79960000D03*
D18*
%TO.P,D4,2,A*%
%TO.N,+5V*%
X194000000Y-77420000D03*
%TD*%
D10*
%TO.P,SW1,1,A*%
%TO.N,unconnected-(SW1-A-Pad1)*%
X212000000Y-88740000D03*
D11*
%TO.P,SW1,2,B*%
%TO.N,Net-(Q1-E)*%
X212000000Y-91280000D03*
%TO.P,SW1,3,C*%
%TO.N,GND*%
X212000000Y-93820000D03*
%TD*%
D12*
%TO.P,R13,1*%
%TO.N,+5V*%
X163500000Y-91500000D03*
%TO.P,R13,2*%
%TO.N,/SNS_START_BUT*%
X163500000Y-81340000D03*
%TD*%
%TO.P,R6,1*%
%TO.N,/CTRL_SPKR*%
X163500000Y-63590000D03*
%TO.P,R6,2*%
%TO.N,Net-(Q1-B)*%
X163500000Y-73750000D03*
%TD*%
%TO.P,C2,1*%
%TO.N,/SNS_ENC_B*%
X183000000Y-71500000D03*
%TO.P,C2,2*%
%TO.N,GND*%
X173000000Y-71500000D03*
%TD*%
%TO.P,R8,1*%
%TO.N,Net-(D3-K)*%
X206500000Y-74920000D03*
%TO.P,R8,2*%
%TO.N,Net-(SW2-B)*%
X206500000Y-85080000D03*
%TD*%
%TO.P,R12,1*%
%TO.N,Net-(D4-K)*%
X198000000Y-74920000D03*
%TO.P,R12,2*%
%TO.N,Net-(Q2-E)*%
X198000000Y-85080000D03*
%TD*%
%TO.P,R11,1*%
%TO.N,VCC*%
X217500000Y-63580000D03*
%TO.P,R11,2*%
%TO.N,Net-(M1-+)*%
X217500000Y-53420000D03*
%TD*%
%TO.P,R9,1*%
%TO.N,Net-(D2-K)*%
X232000000Y-58500000D03*
%TO.P,R9,2*%
%TO.N,Net-(SW2-B)*%
X232000000Y-68660000D03*
%TD*%
%TO.P,C1,1*%
%TO.N,/SNS_ENC_A*%
X185500000Y-71500000D03*
%TO.P,C1,2*%
%TO.N,GND*%
X195500000Y-71500000D03*
%TD*%
D10*
%TO.P,M1,1,+*%
%TO.N,Net-(M1-+)*%
X221225000Y-54115000D03*
D11*
%TO.P,M1,2,-*%
%TO.N,Net-(M1--)*%
X223765000Y-54115000D03*
%TD*%
D12*
%TO.P,R4,1*%
%TO.N,Net-(U1-CC4)*%
X192160000Y-63500000D03*
%TO.P,R4,2*%
%TO.N,/CTRL_7SEG_DIG4*%
X182000000Y-63500000D03*
%TD*%
%TO.P,R7,1*%
%TO.N,Net-(D1-K)*%
X216500000Y-74920000D03*
%TO.P,R7,2*%
%TO.N,Net-(Q1-E)*%
X216500000Y-85080000D03*
%TD*%
D10*
%TO.P,Q2,1,C*%
%TO.N,Net-(M1--)*%
X198000000Y-93820000D03*
D11*
%TO.P,Q2,2,B*%
%TO.N,Net-(Q2-B)*%
X198000000Y-91280000D03*
%TO.P,Q2,3,E*%
%TO.N,Net-(Q2-E)*%
X198000000Y-88740000D03*
%TD*%
D12*
%TO.P,R1,1*%
%TO.N,Net-(U1-CC1)*%
X192160000Y-60000000D03*
%TO.P,R1,2*%
%TO.N,/CTRL_7SEG_DIG1*%
X182000000Y-60000000D03*
%TD*%
%TO.P,R2,1*%
%TO.N,Net-(U1-CC2)*%
X192160000Y-56500000D03*
%TO.P,R2,2*%
%TO.N,/CTRL_7SEG_DIG2*%
X182000000Y-56500000D03*
%TD*%
%TO.P,R3,1*%
%TO.N,Net-(U1-CC3)*%
X192160000Y-53000000D03*
%TO.P,R3,2*%
%TO.N,/CTRL_7SEG_DIG3*%
X182000000Y-53000000D03*
%TD*%
D10*
%TO.P,Q1,1,C*%
%TO.N,Net-(Q1-C)*%
X216500000Y-93820000D03*
D11*
%TO.P,Q1,2,B*%
%TO.N,Net-(Q1-B)*%
X216500000Y-91280000D03*
%TO.P,Q1,3,E*%
%TO.N,Net-(Q1-E)*%
X216500000Y-88740000D03*
%TD*%
D12*
%TO.P,Rw1,1*%
%TO.N,Net-(RV1-Pad3)*%
X223500000Y-83840000D03*
%TO.P,Rw1,2*%
%TO.N,Net-(LS1-Pad1)*%
X223500000Y-94000000D03*
%TD*%
D21*
%TO.P,A1,1,TX1*%
%TO.N,unconnected-(A1-TX1-Pad1)*%
X155000000Y-91440000D03*
D22*
%TO.P,A1,2,RX1*%
%TO.N,unconnected-(A1-RX1-Pad2)*%
X155000000Y-88900000D03*
%TO.P,A1,3,~{RESET}*%
%TO.N,unconnected-(A1-~{RESET}-Pad3)*%
X155000000Y-86360000D03*
%TO.P,A1,4,GND*%
%TO.N,GND*%
X155000000Y-83820000D03*
%TO.P,A1,5,D2*%
%TO.N,/SNS_ENC_A*%
X155000000Y-81280000D03*
%TO.P,A1,6,D3*%
%TO.N,/SNS_ENC_B*%
X155000000Y-78740000D03*
%TO.P,A1,7,D4*%
%TO.N,/CTRL_7SEG_C*%
X155000000Y-76200000D03*
%TO.P,A1,8,D5*%
%TO.N,/CTRL_7SEG_D*%
X155000000Y-73660000D03*
%TO.P,A1,9,D6*%
%TO.N,/CTRL_7SEG_E*%
X155000000Y-71120000D03*
%TO.P,A1,10,D7*%
%TO.N,/CTRL_7SEG_F*%
X155000000Y-68580000D03*
%TO.P,A1,11,D8*%
%TO.N,/CTRL_7SEG_G*%
X155000000Y-66040000D03*
%TO.P,A1,12,D9*%
%TO.N,/CTRL_7SEG_DP*%
X155000000Y-63500000D03*
%TO.P,A1,13,D10*%
%TO.N,/CTRL_7SEG_DIG1*%
X155000000Y-60960000D03*
%TO.P,A1,14,MOSI*%
%TO.N,/CTRL_7SEG_DIG2*%
X155000000Y-58420000D03*
%TO.P,A1,15,MISO*%
%TO.N,/CTRL_7SEG_DIG3*%
X155000000Y-55880000D03*
%TO.P,A1,16,SCK*%
%TO.N,/CTRL_7SEG_DIG4*%
X170240000Y-55880000D03*
%TO.P,A1,17,3V3*%
%TO.N,unconnected-(A1-3V3-Pad17)*%
X170240000Y-58420000D03*
%TO.P,A1,18,AREF*%
%TO.N,unconnected-(A1-AREF-Pad18)*%
X170240000Y-60960000D03*
%TO.P,A1,19,A0*%
%TO.N,/CTRL_SPKR*%
X170240000Y-63500000D03*
%TO.P,A1,20,A1*%
%TO.N,/CTRL_LED_BLINK*%
X170240000Y-66040000D03*
%TO.P,A1,21,A2*%
%TO.N,/CTRL_VIBR*%
X170240000Y-68580000D03*
%TO.P,A1,22,A3*%
%TO.N,/CTRL_7SEG_A*%
X170240000Y-71120000D03*
%TO.P,A1,23,SDA/A4*%
%TO.N,/CTRL_7SEG_B*%
X170240000Y-73660000D03*
%TO.P,A1,24,SCL/A5*%
%TO.N,/SNS_ENC_BUT*%
X170240000Y-76200000D03*
%TO.P,A1,25,A6*%
%TO.N,/SNS_START_BUT*%
X170240000Y-78740000D03*
%TO.P,A1,26,A7*%
%TO.N,/SNS_RESET_BUT*%
X170240000Y-81280000D03*
%TO.P,A1,27,+5V*%
%TO.N,+5V*%
X170240000Y-83820000D03*
%TO.P,A1,28,~{RESET}*%
%TO.N,unconnected-(A1-~{RESET}-Pad28)*%
X170240000Y-86360000D03*
%TO.P,A1,29,GND*%
%TO.N,GND*%
X170240000Y-88900000D03*
%TO.P,A1,30,VIN*%
%TO.N,VCC*%
X170240000Y-91440000D03*
%TD*%
D10*
%TO.P,BT1,1,+*%
%TO.N,Net-(BT1-+)*%
X241385000Y-92225000D03*
D11*
%TO.P,BT1,2,-*%
%TO.N,GND*%
X241385000Y-94765000D03*
%TD*%
D23*
%TO.N,*%
X175000000Y-69000000D03*
%TO.N,GND*%
X186500000Y-60000000D03*
X157000000Y-75000000D03*
X175000000Y-72000000D03*
X168500000Y-72500000D03*
X153000000Y-75000000D03*
X189500000Y-50500000D03*
X182500000Y-73500000D03*
X182000000Y-77000000D03*
%TD*%
D24*
%TO.N,/CTRL_7SEG_G*%
X194570000Y-52570000D02*
X194570000Y-54500000D01*
X169000000Y-51500000D02*
X193500000Y-51500000D01*
X155000000Y-66040000D02*
X155000000Y-65500000D01*
X193500000Y-51500000D02*
X194570000Y-52570000D01*
X155000000Y-65500000D02*
X169000000Y-51500000D01*
X194570000Y-54500000D02*
X206810000Y-66740000D01*
%TO.N,GND*%
X153000000Y-75000000D02*
X157000000Y-75000000D01*
%TO.N,/CTRL_7SEG_E*%
X167340529Y-64701000D02*
X194611000Y-64701000D01*
X160921529Y-71120000D02*
X167340529Y-64701000D01*
X194611000Y-64701000D02*
X196650000Y-66740000D01*
X155000000Y-71120000D02*
X160921529Y-71120000D01*
%TO.N,/CTRL_7SEG_DP*%
X161547471Y-67241000D02*
X154502529Y-67241000D01*
X201730000Y-66740000D02*
X197289000Y-62299000D01*
X197289000Y-62299000D02*
X166489471Y-62299000D01*
X153799000Y-64701000D02*
X155000000Y-63500000D01*
X166489471Y-62299000D02*
X161547471Y-67241000D01*
X154502529Y-67241000D02*
X153799000Y-66537471D01*
X153799000Y-66537471D02*
X153799000Y-64701000D01*
%TO.N,/CTRL_7SEG_D*%
X155000000Y-73660000D02*
X156939000Y-71721000D01*
X161170471Y-71721000D02*
X165512471Y-67379000D01*
X173891000Y-67891000D02*
X198039000Y-67891000D01*
X165512471Y-67379000D02*
X173379000Y-67379000D01*
X173379000Y-67379000D02*
X173891000Y-67891000D01*
X198039000Y-67891000D02*
X199190000Y-66740000D01*
X156939000Y-71721000D02*
X161170471Y-71721000D01*
%TO.N,/SNS_START_BUT*%
X218000000Y-60000000D02*
X208907000Y-69093000D01*
X208907000Y-69093000D02*
X180825529Y-69093000D01*
X180825529Y-69093000D02*
X172418529Y-77500000D01*
X236500000Y-60000000D02*
X218000000Y-60000000D01*
X172418529Y-77500000D02*
X167340000Y-77500000D01*
X237000000Y-59500000D02*
X236500000Y-60000000D01*
X167340000Y-77500000D02*
X163500000Y-81340000D01*
%TO.N,/SNS_RESET_BUT*%
X237000000Y-76500000D02*
X230194000Y-69694000D01*
X161155883Y-82575883D02*
X160000000Y-81420000D01*
X230194000Y-69694000D02*
X181074471Y-69694000D01*
X165424117Y-82575883D02*
X161155883Y-82575883D01*
X170737471Y-80031000D02*
X167969000Y-80031000D01*
X181074471Y-69694000D02*
X170737471Y-80031000D01*
X167969000Y-80031000D02*
X165424117Y-82575883D01*
D25*
%TO.N,VCC*%
X250411000Y-91129000D02*
X250049000Y-91129000D01*
X250049000Y-91129000D02*
X250049000Y-91491000D01*
X250049000Y-91491000D02*
X243040000Y-98500000D01*
X251500000Y-90040000D02*
X250411000Y-91129000D01*
X243040000Y-98500000D02*
X172000000Y-98500000D01*
X170240000Y-96740000D02*
X170240000Y-91440000D01*
X172000000Y-98500000D02*
X170240000Y-96740000D01*
D24*
%TO.N,/SNS_ENC_B*%
X169004782Y-83218747D02*
X169742529Y-82481000D01*
X159478747Y-83218747D02*
X169004782Y-83218747D01*
X155000000Y-78740000D02*
X159478747Y-83218747D01*
X169742529Y-82481000D02*
X173519000Y-82481000D01*
X173519000Y-82481000D02*
X180500000Y-75500000D01*
%TO.N,/CTRL_7SEG_C*%
X168403529Y-76200000D02*
X169742529Y-74861000D01*
X180576587Y-68492000D02*
X202518000Y-68492000D01*
X202518000Y-68492000D02*
X204270000Y-66740000D01*
X155000000Y-76200000D02*
X168403529Y-76200000D01*
X169742529Y-74861000D02*
X174207587Y-74861000D01*
X174207587Y-74861000D02*
X180576587Y-68492000D01*
%TD*%
%TA.AperFunction,Conductor*%
%TO.N,GND*%
G36*
X252003736Y-47500726D02*
G01*
X252293796Y-47518271D01*
X252308659Y-47520076D01*
X252590798Y-47571780D01*
X252605335Y-47575363D01*
X252879172Y-47660695D01*
X252893163Y-47666000D01*
X253154743Y-47783727D01*
X253167989Y-47790680D01*
X253413465Y-47939075D01*
X253425776Y-47947573D01*
X253651573Y-48124473D01*
X253662781Y-48134403D01*
X253865596Y-48337218D01*
X253875526Y-48348426D01*
X253995481Y-48501538D01*
X254052422Y-48574217D01*
X254060926Y-48586537D01*
X254076363Y-48612073D01*
X254209316Y-48832004D01*
X254216275Y-48845263D01*
X254333997Y-49106831D01*
X254339306Y-49120832D01*
X254424635Y-49394663D01*
X254428219Y-49409201D01*
X254479923Y-49691340D01*
X254481728Y-49706205D01*
X254499274Y-49996263D01*
X254499500Y-50003750D01*
X254499500Y-96996249D01*
X254499274Y-97003736D01*
X254481728Y-97293794D01*
X254479923Y-97308659D01*
X254428219Y-97590797D01*
X254424635Y-97605335D01*
X254339306Y-97879166D01*
X254333997Y-97893167D01*
X254216275Y-98154735D01*
X254209316Y-98167994D01*
X254060929Y-98413458D01*
X254052423Y-98425781D01*
X253875527Y-98651572D01*
X253865597Y-98662780D01*
X253662783Y-98865594D01*
X253651575Y-98875524D01*
X253425784Y-99052421D01*
X253413461Y-99060927D01*
X253167991Y-99209318D01*
X253154733Y-99216276D01*
X252893179Y-99333993D01*
X252879177Y-99339303D01*
X252605339Y-99424634D01*
X252590801Y-99428218D01*
X252308663Y-99479922D01*
X252293799Y-99481727D01*
X252022301Y-99498151D01*
X252003739Y-99499274D01*
X251996253Y-99499500D01*
X243573772Y-99499500D01*
X243541269Y-99489956D01*
X243508607Y-99480996D01*
X243507837Y-99480139D01*
X243506733Y-99479815D01*
X243484560Y-99454226D01*
X243461916Y-99429018D01*
X243461731Y-99427880D01*
X243460978Y-99427011D01*
X243456155Y-99393470D01*
X243450739Y-99360048D01*
X243451197Y-99358993D01*
X243451034Y-99357853D01*
X243465116Y-99327015D01*
X243478624Y-99295984D01*
X243479750Y-99294971D01*
X243480059Y-99294297D01*
X243504880Y-99272399D01*
X243554955Y-99238939D01*
X243554955Y-99238938D01*
X243554959Y-99238936D01*
X243614036Y-99199464D01*
X245951167Y-96862332D01*
X249899500Y-96862332D01*
X249899500Y-97137667D01*
X249899501Y-97137684D01*
X249935438Y-97410655D01*
X249935439Y-97410660D01*
X249935440Y-97410666D01*
X249935441Y-97410668D01*
X250006704Y-97676630D01*
X250112075Y-97931017D01*
X250112080Y-97931028D01*
X250191809Y-98069121D01*
X250249751Y-98169479D01*
X250249753Y-98169482D01*
X250249754Y-98169483D01*
X250417370Y-98387926D01*
X250417376Y-98387933D01*
X250612066Y-98582623D01*
X250612072Y-98582628D01*
X250830521Y-98750249D01*
X250983778Y-98838732D01*
X251068971Y-98887919D01*
X251068976Y-98887921D01*
X251068979Y-98887923D01*
X251323368Y-98993295D01*
X251589334Y-99064560D01*
X251862326Y-99100500D01*
X251862333Y-99100500D01*
X252137667Y-99100500D01*
X252137674Y-99100500D01*
X252410666Y-99064560D01*
X252676632Y-98993295D01*
X252931021Y-98887923D01*
X253169479Y-98750249D01*
X253387928Y-98582628D01*
X253582628Y-98387928D01*
X253750249Y-98169479D01*
X253887923Y-97931021D01*
X253993295Y-97676632D01*
X254064560Y-97410666D01*
X254100500Y-97137674D01*
X254100500Y-96862326D01*
X254064560Y-96589334D01*
X253993295Y-96323368D01*
X253887923Y-96068979D01*
X253887921Y-96068976D01*
X253887919Y-96068971D01*
X253838732Y-95983778D01*
X253750249Y-95830521D01*
X253582628Y-95612072D01*
X253582623Y-95612066D01*
X253387933Y-95417376D01*
X253387926Y-95417370D01*
X253169483Y-95249754D01*
X253169482Y-95249753D01*
X253169479Y-95249751D01*
X253074407Y-95194861D01*
X252931028Y-95112080D01*
X252931017Y-95112075D01*
X252676630Y-95006704D01*
X252494835Y-94957993D01*
X252410666Y-94935440D01*
X252410660Y-94935439D01*
X252410655Y-94935438D01*
X252137684Y-94899501D01*
X252137679Y-94899500D01*
X252137674Y-94899500D01*
X251862326Y-94899500D01*
X251862320Y-94899500D01*
X251862315Y-94899501D01*
X251589344Y-94935438D01*
X251589337Y-94935439D01*
X251589334Y-94935440D01*
X251533125Y-94950500D01*
X251323369Y-95006704D01*
X251068982Y-95112075D01*
X251068971Y-95112080D01*
X250830516Y-95249754D01*
X250612073Y-95417370D01*
X250612066Y-95417376D01*
X250417376Y-95612066D01*
X250417370Y-95612073D01*
X250249754Y-95830516D01*
X250112080Y-96068971D01*
X250112075Y-96068982D01*
X250006704Y-96323369D01*
X249935441Y-96589331D01*
X249935438Y-96589344D01*
X249899501Y-96862315D01*
X249899500Y-96862332D01*
X245951167Y-96862332D01*
X249937821Y-92875677D01*
X249999142Y-92842194D01*
X250068834Y-92847178D01*
X250124767Y-92889050D01*
X250149184Y-92954514D01*
X250149500Y-92963360D01*
X250149500Y-93477870D01*
X250149501Y-93477876D01*
X250155908Y-93537483D01*
X250206202Y-93672328D01*
X250206206Y-93672335D01*
X250292452Y-93787544D01*
X250292455Y-93787547D01*
X250407664Y-93873793D01*
X250407671Y-93873797D01*
X250542517Y-93924091D01*
X250542516Y-93924091D01*
X250549444Y-93924835D01*
X250602127Y-93930500D01*
X252397872Y-93930499D01*
X252457483Y-93924091D01*
X252592331Y-93873796D01*
X252707546Y-93787546D01*
X252793796Y-93672331D01*
X252844091Y-93537483D01*
X252850500Y-93477873D01*
X252850499Y-91682128D01*
X252844091Y-91622517D01*
X252834291Y-91596243D01*
X252793797Y-91487671D01*
X252793793Y-91487664D01*
X252707547Y-91372455D01*
X252707544Y-91372452D01*
X252592335Y-91286206D01*
X252592328Y-91286202D01*
X252460917Y-91237189D01*
X252404983Y-91195318D01*
X252380566Y-91129853D01*
X252395418Y-91061580D01*
X252416563Y-91033332D01*
X252530104Y-90919792D01*
X252545654Y-90898390D01*
X252655048Y-90747820D01*
X252655047Y-90747820D01*
X252655051Y-90747816D01*
X252751557Y-90558412D01*
X252817246Y-90356243D01*
X252850500Y-90146287D01*
X252850500Y-89933713D01*
X252817246Y-89723757D01*
X252751557Y-89521588D01*
X252655051Y-89332184D01*
X252655049Y-89332181D01*
X252655048Y-89332179D01*
X252530109Y-89160213D01*
X252379786Y-89009890D01*
X252207820Y-88884951D01*
X252207115Y-88884591D01*
X252199054Y-88880485D01*
X252148259Y-88832512D01*
X252131463Y-88764692D01*
X252153999Y-88698556D01*
X252199054Y-88659515D01*
X252207816Y-88655051D01*
X252289663Y-88595586D01*
X252379786Y-88530109D01*
X252379788Y-88530106D01*
X252379792Y-88530104D01*
X252530104Y-88379792D01*
X252530106Y-88379788D01*
X252530109Y-88379786D01*
X252655048Y-88207820D01*
X252655047Y-88207820D01*
X252655051Y-88207816D01*
X252751557Y-88018412D01*
X252817246Y-87816243D01*
X252850500Y-87606287D01*
X252850500Y-87393713D01*
X252817246Y-87183757D01*
X252751557Y-86981588D01*
X252655051Y-86792184D01*
X252655049Y-86792181D01*
X252655048Y-86792179D01*
X252530109Y-86620213D01*
X252379786Y-86469890D01*
X252207820Y-86344951D01*
X252018414Y-86248444D01*
X252018413Y-86248443D01*
X252018412Y-86248443D01*
X251816243Y-86182754D01*
X251816241Y-86182753D01*
X251816240Y-86182753D01*
X251654957Y-86157208D01*
X251606287Y-86149500D01*
X251393713Y-86149500D01*
X251345042Y-86157208D01*
X251183760Y-86182753D01*
X250981585Y-86248444D01*
X250792179Y-86344951D01*
X250620213Y-86469890D01*
X250469890Y-86620213D01*
X250344951Y-86792179D01*
X250248444Y-86981585D01*
X250182753Y-87183760D01*
X250149500Y-87393713D01*
X250149500Y-87606286D01*
X250178235Y-87787715D01*
X250182754Y-87816243D01*
X250212703Y-87908417D01*
X250248444Y-88018414D01*
X250344951Y-88207820D01*
X250469890Y-88379786D01*
X250620213Y-88530109D01*
X250792182Y-88655050D01*
X250800946Y-88659516D01*
X250851742Y-88707491D01*
X250868536Y-88775312D01*
X250845998Y-88841447D01*
X250800946Y-88880484D01*
X250792182Y-88884949D01*
X250620213Y-89009890D01*
X250469890Y-89160213D01*
X250344951Y-89332179D01*
X250248444Y-89521585D01*
X250182753Y-89723760D01*
X250149500Y-89933713D01*
X250149500Y-90065638D01*
X250140855Y-90095078D01*
X250134332Y-90125065D01*
X250130577Y-90130080D01*
X250129815Y-90132677D01*
X250113181Y-90153319D01*
X250074319Y-90192181D01*
X250012996Y-90225666D01*
X249986638Y-90228500D01*
X249960306Y-90228500D01*
X249786341Y-90263103D01*
X249786332Y-90263106D01*
X249622459Y-90330983D01*
X249622446Y-90330990D01*
X249474965Y-90429535D01*
X249474961Y-90429538D01*
X249349538Y-90554961D01*
X249349535Y-90554965D01*
X249250990Y-90702446D01*
X249250983Y-90702459D01*
X249183106Y-90866332D01*
X249183103Y-90866341D01*
X249148500Y-91040304D01*
X249148500Y-91066638D01*
X249128815Y-91133677D01*
X249112181Y-91154319D01*
X242703319Y-97563181D01*
X242641996Y-97596666D01*
X242615638Y-97599500D01*
X172424362Y-97599500D01*
X172357323Y-97579815D01*
X172336681Y-97563181D01*
X171176819Y-96403319D01*
X171143334Y-96341996D01*
X171140500Y-96315638D01*
X171140500Y-92430047D01*
X171160185Y-92363008D01*
X171176819Y-92342366D01*
X171184536Y-92334649D01*
X171231966Y-92287219D01*
X171231968Y-92287215D01*
X171231971Y-92287213D01*
X171284732Y-92214590D01*
X171352287Y-92121610D01*
X171445220Y-91939219D01*
X171508477Y-91744534D01*
X171540500Y-91542352D01*
X171540500Y-91337648D01*
X171531899Y-91283342D01*
X171508477Y-91135465D01*
X171470133Y-91017455D01*
X171445220Y-90940781D01*
X171445218Y-90940778D01*
X171445218Y-90940776D01*
X171407286Y-90866332D01*
X171352287Y-90758390D01*
X171311642Y-90702446D01*
X171231971Y-90592786D01*
X171087213Y-90448028D01*
X170921611Y-90327713D01*
X170828369Y-90280203D01*
X170777574Y-90232229D01*
X170760779Y-90164407D01*
X170783317Y-90098273D01*
X170828371Y-90059234D01*
X170921347Y-90011861D01*
X171086894Y-89891582D01*
X171086895Y-89891582D01*
X171096575Y-89881902D01*
X178999500Y-89881902D01*
X178999500Y-90118097D01*
X179036446Y-90351368D01*
X179109433Y-90575996D01*
X179196983Y-90747820D01*
X179216657Y-90786433D01*
X179355483Y-90977510D01*
X179522490Y-91144517D01*
X179713567Y-91283343D01*
X179799490Y-91327123D01*
X179924003Y-91390566D01*
X179924005Y-91390566D01*
X179924008Y-91390568D01*
X180044412Y-91429689D01*
X180148631Y-91463553D01*
X180381903Y-91500500D01*
X180381908Y-91500500D01*
X180618097Y-91500500D01*
X180851368Y-91463553D01*
X180852870Y-91463065D01*
X181075992Y-91390568D01*
X181286433Y-91283343D01*
X181477510Y-91144517D01*
X181644517Y-90977510D01*
X181783343Y-90786433D01*
X181890568Y-90575992D01*
X181963553Y-90351368D01*
X181970579Y-90307007D01*
X182000500Y-90118097D01*
X182000500Y-89881947D01*
X184000000Y-89881947D01*
X184000000Y-90118052D01*
X184036934Y-90351247D01*
X184109897Y-90575802D01*
X184217087Y-90786174D01*
X184277338Y-90869104D01*
X184277340Y-90869105D01*
X185017037Y-90129408D01*
X185034075Y-90192993D01*
X185099901Y-90307007D01*
X185192993Y-90400099D01*
X185307007Y-90465925D01*
X185370590Y-90482962D01*
X184630893Y-91222658D01*
X184713828Y-91282914D01*
X184924197Y-91390102D01*
X185148752Y-91463065D01*
X185148751Y-91463065D01*
X185381948Y-91500000D01*
X185618052Y-91500000D01*
X185851247Y-91463065D01*
X186075802Y-91390102D01*
X186286163Y-91282918D01*
X186286169Y-91282914D01*
X186369104Y-91222658D01*
X186369105Y-91222658D01*
X185629408Y-90482962D01*
X185692993Y-90465925D01*
X185807007Y-90400099D01*
X185900099Y-90307007D01*
X185965925Y-90192993D01*
X185982962Y-90129409D01*
X186722658Y-90869105D01*
X186722658Y-90869104D01*
X186782914Y-90786169D01*
X186782918Y-90786163D01*
X186890102Y-90575802D01*
X186963065Y-90351247D01*
X187000000Y-90118052D01*
X187000000Y-89881947D01*
X186963065Y-89648752D01*
X186890102Y-89424197D01*
X186782914Y-89213828D01*
X186722658Y-89130894D01*
X186722658Y-89130893D01*
X185982962Y-89870590D01*
X185965925Y-89807007D01*
X185900099Y-89692993D01*
X185807007Y-89599901D01*
X185692993Y-89534075D01*
X185629409Y-89517037D01*
X186369105Y-88777340D01*
X186369104Y-88777338D01*
X186286174Y-88717087D01*
X186075802Y-88609897D01*
X185851247Y-88536934D01*
X185851248Y-88536934D01*
X185618052Y-88500000D01*
X185381948Y-88500000D01*
X185148752Y-88536934D01*
X184924197Y-88609897D01*
X184713830Y-88717084D01*
X184630894Y-88777340D01*
X185370591Y-89517037D01*
X185307007Y-89534075D01*
X185192993Y-89599901D01*
X185099901Y-89692993D01*
X185034075Y-89807007D01*
X185017037Y-89870590D01*
X184277340Y-89130894D01*
X184217084Y-89213830D01*
X184109897Y-89424197D01*
X184036934Y-89648752D01*
X184000000Y-89881947D01*
X182000500Y-89881947D01*
X182000500Y-89881902D01*
X181963553Y-89648631D01*
X181898305Y-89447820D01*
X181890568Y-89424008D01*
X181890566Y-89424005D01*
X181890566Y-89424003D01*
X181827433Y-89300099D01*
X181783343Y-89213567D01*
X181644517Y-89022490D01*
X181477510Y-88855483D01*
X181286433Y-88716657D01*
X181250908Y-88698556D01*
X181075996Y-88609433D01*
X180851368Y-88536446D01*
X180618097Y-88499500D01*
X180618092Y-88499500D01*
X180381908Y-88499500D01*
X180381903Y-88499500D01*
X180148631Y-88536446D01*
X179924003Y-88609433D01*
X179713566Y-88716657D01*
X179630047Y-88777338D01*
X179522490Y-88855483D01*
X179522488Y-88855485D01*
X179522487Y-88855485D01*
X179355485Y-89022487D01*
X179355485Y-89022488D01*
X179355483Y-89022490D01*
X179330963Y-89056239D01*
X179216657Y-89213566D01*
X179109433Y-89424003D01*
X179036446Y-89648631D01*
X178999500Y-89881902D01*
X171096575Y-89881902D01*
X171189123Y-89789355D01*
X171231582Y-89746895D01*
X171231582Y-89746894D01*
X171351859Y-89581349D01*
X171444755Y-89399029D01*
X171507990Y-89204413D01*
X171516609Y-89150000D01*
X170673012Y-89150000D01*
X170705925Y-89092993D01*
X170740000Y-88965826D01*
X170740000Y-88834174D01*
X170705925Y-88707007D01*
X170673012Y-88650000D01*
X171516609Y-88650000D01*
X171507990Y-88595586D01*
X171444755Y-88400970D01*
X171351859Y-88218650D01*
X171231582Y-88053105D01*
X171231582Y-88053104D01*
X171086895Y-87908417D01*
X170995666Y-87842135D01*
X192649500Y-87842135D01*
X192649500Y-89637870D01*
X192649501Y-89637876D01*
X192655908Y-89697483D01*
X192706202Y-89832328D01*
X192706206Y-89832335D01*
X192792452Y-89947544D01*
X192792455Y-89947547D01*
X192907664Y-90033793D01*
X192907671Y-90033797D01*
X193039082Y-90082810D01*
X193095016Y-90124681D01*
X193119433Y-90190145D01*
X193104582Y-90258418D01*
X193083431Y-90286673D01*
X192969889Y-90400215D01*
X192844951Y-90572179D01*
X192748444Y-90761585D01*
X192748443Y-90761587D01*
X192748443Y-90761588D01*
X192740370Y-90786433D01*
X192682753Y-90963760D01*
X192656001Y-91132669D01*
X192649500Y-91173713D01*
X192649500Y-91386287D01*
X192653600Y-91412174D01*
X192661660Y-91463065D01*
X192682754Y-91596243D01*
X192710732Y-91682351D01*
X192748444Y-91798414D01*
X192844951Y-91987820D01*
X192969890Y-92159786D01*
X193120213Y-92310109D01*
X193292179Y-92435048D01*
X193292181Y-92435049D01*
X193292184Y-92435051D01*
X193301493Y-92439794D01*
X193352290Y-92487766D01*
X193369087Y-92555587D01*
X193346552Y-92621722D01*
X193301505Y-92660760D01*
X193292446Y-92665376D01*
X193292440Y-92665380D01*
X193238282Y-92704727D01*
X193238282Y-92704728D01*
X193870591Y-93337037D01*
X193807007Y-93354075D01*
X193692993Y-93419901D01*
X193599901Y-93512993D01*
X193534075Y-93627007D01*
X193517037Y-93690591D01*
X192884728Y-93058282D01*
X192884727Y-93058282D01*
X192845380Y-93112439D01*
X192748904Y-93301782D01*
X192683242Y-93503869D01*
X192683242Y-93503872D01*
X192650000Y-93713753D01*
X192650000Y-93926246D01*
X192683242Y-94136127D01*
X192683242Y-94136130D01*
X192748904Y-94338217D01*
X192845375Y-94527550D01*
X192884728Y-94581716D01*
X193517037Y-93949408D01*
X193534075Y-94012993D01*
X193599901Y-94127007D01*
X193692993Y-94220099D01*
X193807007Y-94285925D01*
X193870590Y-94302962D01*
X193238282Y-94935269D01*
X193238282Y-94935270D01*
X193292449Y-94974624D01*
X193481782Y-95071095D01*
X193683870Y-95136757D01*
X193893754Y-95170000D01*
X194106246Y-95170000D01*
X194316127Y-95136757D01*
X194316130Y-95136757D01*
X194518217Y-95071095D01*
X194707554Y-94974622D01*
X194761716Y-94935270D01*
X194761717Y-94935270D01*
X194129408Y-94302962D01*
X194192993Y-94285925D01*
X194307007Y-94220099D01*
X194400099Y-94127007D01*
X194465925Y-94012993D01*
X194482962Y-93949408D01*
X195115270Y-94581717D01*
X195115270Y-94581716D01*
X195154622Y-94527554D01*
X195251095Y-94338217D01*
X195316757Y-94136130D01*
X195316757Y-94136127D01*
X195350000Y-93926246D01*
X195350000Y-93713753D01*
X195316757Y-93503872D01*
X195316757Y-93503869D01*
X195251095Y-93301782D01*
X195154624Y-93112449D01*
X195115270Y-93058282D01*
X195115269Y-93058282D01*
X194482962Y-93690590D01*
X194465925Y-93627007D01*
X194400099Y-93512993D01*
X194307007Y-93419901D01*
X194192993Y-93354075D01*
X194129409Y-93337037D01*
X194761716Y-92704728D01*
X194707547Y-92665373D01*
X194707547Y-92665372D01*
X194698500Y-92660763D01*
X194647706Y-92612788D01*
X194630912Y-92544966D01*
X194653451Y-92478832D01*
X194698508Y-92439793D01*
X194707816Y-92435051D01*
X194797554Y-92369853D01*
X194879786Y-92310109D01*
X194879788Y-92310106D01*
X194879792Y-92310104D01*
X195030104Y-92159792D01*
X195030106Y-92159788D01*
X195030109Y-92159786D01*
X195155048Y-91987820D01*
X195155047Y-91987820D01*
X195155051Y-91987816D01*
X195251557Y-91798412D01*
X195317246Y-91596243D01*
X195350500Y-91386287D01*
X195350500Y-91173713D01*
X195317246Y-90963757D01*
X195251557Y-90761588D01*
X195155051Y-90572184D01*
X195155049Y-90572181D01*
X195155048Y-90572179D01*
X195030109Y-90400213D01*
X194916569Y-90286673D01*
X194883084Y-90225350D01*
X194888068Y-90155658D01*
X194929940Y-90099725D01*
X194960915Y-90082810D01*
X195092331Y-90033796D01*
X195207546Y-89947546D01*
X195293796Y-89832331D01*
X195344091Y-89697483D01*
X195350500Y-89637873D01*
X195350499Y-88633713D01*
X196649500Y-88633713D01*
X196649500Y-88846286D01*
X196677407Y-89022488D01*
X196682754Y-89056243D01*
X196733957Y-89213830D01*
X196748444Y-89258414D01*
X196844951Y-89447820D01*
X196969890Y-89619786D01*
X197120213Y-89770109D01*
X197292182Y-89895050D01*
X197300946Y-89899516D01*
X197351742Y-89947491D01*
X197368536Y-90015312D01*
X197345998Y-90081447D01*
X197300946Y-90120484D01*
X197292182Y-90124949D01*
X197120213Y-90249890D01*
X196969890Y-90400213D01*
X196844951Y-90572179D01*
X196748444Y-90761585D01*
X196748443Y-90761587D01*
X196748443Y-90761588D01*
X196740370Y-90786433D01*
X196682753Y-90963760D01*
X196656001Y-91132669D01*
X196649500Y-91173713D01*
X196649500Y-91386287D01*
X196653600Y-91412174D01*
X196661660Y-91463065D01*
X196682754Y-91596243D01*
X196710732Y-91682351D01*
X196748444Y-91798414D01*
X196844951Y-91987820D01*
X196969890Y-92159786D01*
X197083430Y-92273326D01*
X197116915Y-92334649D01*
X197111931Y-92404341D01*
X197070059Y-92460274D01*
X197039083Y-92477189D01*
X196907669Y-92526203D01*
X196907664Y-92526206D01*
X196792455Y-92612452D01*
X196792452Y-92612455D01*
X196706206Y-92727664D01*
X196706202Y-92727671D01*
X196655908Y-92862517D01*
X196653056Y-92889050D01*
X196649501Y-92922123D01*
X196649500Y-92922135D01*
X196649500Y-94717870D01*
X196649501Y-94717876D01*
X196655908Y-94777483D01*
X196706202Y-94912328D01*
X196706206Y-94912335D01*
X196792452Y-95027544D01*
X196792455Y-95027547D01*
X196907664Y-95113793D01*
X196907671Y-95113797D01*
X197042517Y-95164091D01*
X197042516Y-95164091D01*
X197049444Y-95164835D01*
X197102127Y-95170500D01*
X198897872Y-95170499D01*
X198957483Y-95164091D01*
X199092331Y-95113796D01*
X199207546Y-95027546D01*
X199293796Y-94912331D01*
X199344091Y-94777483D01*
X199350500Y-94717873D01*
X199350499Y-92922128D01*
X199344091Y-92862517D01*
X199338854Y-92848477D01*
X199293797Y-92727671D01*
X199293793Y-92727664D01*
X199207547Y-92612455D01*
X199207544Y-92612452D01*
X199092335Y-92526206D01*
X199092328Y-92526202D01*
X198960917Y-92477189D01*
X198904983Y-92435318D01*
X198880566Y-92369853D01*
X198895418Y-92301580D01*
X198916563Y-92273332D01*
X199030104Y-92159792D01*
X199057843Y-92121613D01*
X199155048Y-91987820D01*
X199155047Y-91987820D01*
X199155051Y-91987816D01*
X199251557Y-91798412D01*
X199317246Y-91596243D01*
X199350500Y-91386287D01*
X199350500Y-91173713D01*
X199317246Y-90963757D01*
X199251557Y-90761588D01*
X199155051Y-90572184D01*
X199155049Y-90572181D01*
X199155048Y-90572179D01*
X199030109Y-90400213D01*
X198879786Y-90249890D01*
X198707820Y-90124951D01*
X198707115Y-90124591D01*
X198699054Y-90120485D01*
X198648259Y-90072512D01*
X198631463Y-90004692D01*
X198653999Y-89938556D01*
X198699054Y-89899515D01*
X198707816Y-89895051D01*
X198794138Y-89832335D01*
X198879786Y-89770109D01*
X198879788Y-89770106D01*
X198879792Y-89770104D01*
X199030104Y-89619792D01*
X199030106Y-89619788D01*
X199030109Y-89619786D01*
X199155048Y-89447820D01*
X199155047Y-89447820D01*
X199155051Y-89447816D01*
X199251557Y-89258412D01*
X199317246Y-89056243D01*
X199350500Y-88846287D01*
X199350500Y-88633713D01*
X199317246Y-88423757D01*
X199251557Y-88221588D01*
X199155051Y-88032184D01*
X199030104Y-87860208D01*
X199012031Y-87842135D01*
X201649500Y-87842135D01*
X201649500Y-89637870D01*
X201649501Y-89637876D01*
X201655908Y-89697483D01*
X201706202Y-89832328D01*
X201706206Y-89832335D01*
X201792452Y-89947544D01*
X201792455Y-89947547D01*
X201907664Y-90033793D01*
X201907671Y-90033797D01*
X202039082Y-90082810D01*
X202095016Y-90124681D01*
X202119433Y-90190145D01*
X202104582Y-90258418D01*
X202083431Y-90286673D01*
X201969889Y-90400215D01*
X201844951Y-90572179D01*
X201748444Y-90761585D01*
X201748443Y-90761587D01*
X201748443Y-90761588D01*
X201740370Y-90786433D01*
X201682753Y-90963760D01*
X201656001Y-91132669D01*
X201649500Y-91173713D01*
X201649500Y-91386287D01*
X201653600Y-91412174D01*
X201661660Y-91463065D01*
X201682754Y-91596243D01*
X201710732Y-91682351D01*
X201748444Y-91798414D01*
X201844951Y-91987820D01*
X201969890Y-92159786D01*
X202120213Y-92310109D01*
X202292179Y-92435048D01*
X202292181Y-92435049D01*
X202292184Y-92435051D01*
X202301493Y-92439794D01*
X202352290Y-92487766D01*
X202369087Y-92555587D01*
X202346552Y-92621722D01*
X202301505Y-92660760D01*
X202292446Y-92665376D01*
X202292440Y-92665380D01*
X202238282Y-92704727D01*
X202238282Y-92704728D01*
X202870591Y-93337037D01*
X202807007Y-93354075D01*
X202692993Y-93419901D01*
X202599901Y-93512993D01*
X202534075Y-93627007D01*
X202517037Y-93690590D01*
X201884728Y-93058282D01*
X201884727Y-93058282D01*
X201845380Y-93112439D01*
X201748904Y-93301782D01*
X201683242Y-93503869D01*
X201683242Y-93503872D01*
X201650000Y-93713753D01*
X201650000Y-93926246D01*
X201683242Y-94136127D01*
X201683242Y-94136130D01*
X201748904Y-94338217D01*
X201845375Y-94527550D01*
X201884728Y-94581716D01*
X202517037Y-93949408D01*
X202534075Y-94012993D01*
X202599901Y-94127007D01*
X202692993Y-94220099D01*
X202807007Y-94285925D01*
X202870590Y-94302962D01*
X202238282Y-94935269D01*
X202238282Y-94935270D01*
X202292449Y-94974624D01*
X202481782Y-95071095D01*
X202683870Y-95136757D01*
X202893754Y-95170000D01*
X203106246Y-95170000D01*
X203316127Y-95136757D01*
X203316130Y-95136757D01*
X203518217Y-95071095D01*
X203707554Y-94974622D01*
X203761716Y-94935270D01*
X203761717Y-94935270D01*
X203129408Y-94302962D01*
X203192993Y-94285925D01*
X203307007Y-94220099D01*
X203400099Y-94127007D01*
X203465925Y-94012993D01*
X203482962Y-93949408D01*
X204115270Y-94581717D01*
X204115270Y-94581716D01*
X204154622Y-94527554D01*
X204251095Y-94338217D01*
X204316757Y-94136130D01*
X204316757Y-94136127D01*
X204350000Y-93926246D01*
X204350000Y-93713753D01*
X204316757Y-93503872D01*
X204316757Y-93503869D01*
X204251095Y-93301782D01*
X204154624Y-93112449D01*
X204115270Y-93058282D01*
X204115269Y-93058282D01*
X203482962Y-93690590D01*
X203465925Y-93627007D01*
X203400099Y-93512993D01*
X203307007Y-93419901D01*
X203192993Y-93354075D01*
X203129409Y-93337037D01*
X203761716Y-92704728D01*
X203707547Y-92665373D01*
X203707547Y-92665372D01*
X203698500Y-92660763D01*
X203647706Y-92612788D01*
X203630912Y-92544966D01*
X203653451Y-92478832D01*
X203698508Y-92439793D01*
X203707816Y-92435051D01*
X203797554Y-92369853D01*
X203879786Y-92310109D01*
X203879788Y-92310106D01*
X203879792Y-92310104D01*
X204030104Y-92159792D01*
X204030106Y-92159788D01*
X204030109Y-92159786D01*
X204155048Y-91987820D01*
X204155047Y-91987820D01*
X204155051Y-91987816D01*
X204251557Y-91798412D01*
X204317246Y-91596243D01*
X204350500Y-91386287D01*
X204350500Y-91173713D01*
X204317246Y-90963757D01*
X204251557Y-90761588D01*
X204155051Y-90572184D01*
X204155049Y-90572181D01*
X204155048Y-90572179D01*
X204030109Y-90400213D01*
X203916569Y-90286673D01*
X203883084Y-90225350D01*
X203888068Y-90155658D01*
X203929940Y-90099725D01*
X203960915Y-90082810D01*
X204092331Y-90033796D01*
X204207546Y-89947546D01*
X204293796Y-89832331D01*
X204344091Y-89697483D01*
X204350500Y-89637873D01*
X204350499Y-87842135D01*
X210649500Y-87842135D01*
X210649500Y-89637870D01*
X210649501Y-89637876D01*
X210655908Y-89697483D01*
X210706202Y-89832328D01*
X210706206Y-89832335D01*
X210792452Y-89947544D01*
X210792455Y-89947547D01*
X210907664Y-90033793D01*
X210907671Y-90033797D01*
X211039082Y-90082810D01*
X211095016Y-90124681D01*
X211119433Y-90190145D01*
X211104582Y-90258418D01*
X211083431Y-90286673D01*
X210969889Y-90400215D01*
X210844951Y-90572179D01*
X210748444Y-90761585D01*
X210748443Y-90761587D01*
X210748443Y-90761588D01*
X210740370Y-90786433D01*
X210682753Y-90963760D01*
X210656001Y-91132669D01*
X210649500Y-91173713D01*
X210649500Y-91386287D01*
X210653600Y-91412174D01*
X210661660Y-91463065D01*
X210682754Y-91596243D01*
X210710732Y-91682351D01*
X210748444Y-91798414D01*
X210844951Y-91987820D01*
X210969890Y-92159786D01*
X211120213Y-92310109D01*
X211292179Y-92435048D01*
X211292181Y-92435049D01*
X211292184Y-92435051D01*
X211301493Y-92439794D01*
X211352290Y-92487766D01*
X211369087Y-92555587D01*
X211346552Y-92621722D01*
X211301505Y-92660760D01*
X211292446Y-92665376D01*
X211292440Y-92665380D01*
X211238282Y-92704727D01*
X211238282Y-92704728D01*
X211870591Y-93337037D01*
X211807007Y-93354075D01*
X211692993Y-93419901D01*
X211599901Y-93512993D01*
X211534075Y-93627007D01*
X211517037Y-93690591D01*
X210884728Y-93058282D01*
X210884727Y-93058282D01*
X210845380Y-93112439D01*
X210748904Y-93301782D01*
X210683242Y-93503869D01*
X210683242Y-93503872D01*
X210650000Y-93713753D01*
X210650000Y-93926246D01*
X210683242Y-94136127D01*
X210683242Y-94136130D01*
X210748904Y-94338217D01*
X210845375Y-94527550D01*
X210884728Y-94581716D01*
X211517037Y-93949408D01*
X211534075Y-94012993D01*
X211599901Y-94127007D01*
X211692993Y-94220099D01*
X211807007Y-94285925D01*
X211870590Y-94302962D01*
X211238282Y-94935269D01*
X211238282Y-94935270D01*
X211292449Y-94974624D01*
X211481782Y-95071095D01*
X211683870Y-95136757D01*
X211893754Y-95170000D01*
X212106246Y-95170000D01*
X212316127Y-95136757D01*
X212316130Y-95136757D01*
X212518217Y-95071095D01*
X212707554Y-94974622D01*
X212761716Y-94935270D01*
X212761717Y-94935270D01*
X212129408Y-94302962D01*
X212192993Y-94285925D01*
X212307007Y-94220099D01*
X212400099Y-94127007D01*
X212465925Y-94012993D01*
X212482962Y-93949408D01*
X213115270Y-94581717D01*
X213115270Y-94581716D01*
X213154622Y-94527554D01*
X213251095Y-94338217D01*
X213316757Y-94136130D01*
X213316757Y-94136127D01*
X213350000Y-93926246D01*
X213350000Y-93713753D01*
X213316757Y-93503872D01*
X213316757Y-93503869D01*
X213251095Y-93301782D01*
X213154624Y-93112449D01*
X213115270Y-93058282D01*
X213115269Y-93058282D01*
X212482962Y-93690590D01*
X212465925Y-93627007D01*
X212400099Y-93512993D01*
X212307007Y-93419901D01*
X212192993Y-93354075D01*
X212129409Y-93337037D01*
X212761716Y-92704728D01*
X212707547Y-92665373D01*
X212707547Y-92665372D01*
X212698500Y-92660763D01*
X212647706Y-92612788D01*
X212630912Y-92544966D01*
X212653451Y-92478832D01*
X212698508Y-92439793D01*
X212707816Y-92435051D01*
X212797554Y-92369853D01*
X212879786Y-92310109D01*
X212879788Y-92310106D01*
X212879792Y-92310104D01*
X213030104Y-92159792D01*
X213030106Y-92159788D01*
X213030109Y-92159786D01*
X213155048Y-91987820D01*
X213155047Y-91987820D01*
X213155051Y-91987816D01*
X213251557Y-91798412D01*
X213317246Y-91596243D01*
X213350500Y-91386287D01*
X213350500Y-91173713D01*
X213317246Y-90963757D01*
X213251557Y-90761588D01*
X213155051Y-90572184D01*
X213155049Y-90572181D01*
X213155048Y-90572179D01*
X213030109Y-90400213D01*
X212916569Y-90286673D01*
X212883084Y-90225350D01*
X212888068Y-90155658D01*
X212929940Y-90099725D01*
X212960915Y-90082810D01*
X213092331Y-90033796D01*
X213207546Y-89947546D01*
X213293796Y-89832331D01*
X213344091Y-89697483D01*
X213350500Y-89637873D01*
X213350499Y-88633713D01*
X215149500Y-88633713D01*
X215149500Y-88846286D01*
X215177407Y-89022488D01*
X215182754Y-89056243D01*
X215233957Y-89213830D01*
X215248444Y-89258414D01*
X215344951Y-89447820D01*
X215469890Y-89619786D01*
X215620213Y-89770109D01*
X215792182Y-89895050D01*
X215800946Y-89899516D01*
X215851742Y-89947491D01*
X215868536Y-90015312D01*
X215845998Y-90081447D01*
X215800946Y-90120484D01*
X215792182Y-90124949D01*
X215620213Y-90249890D01*
X215469890Y-90400213D01*
X215344951Y-90572179D01*
X215248444Y-90761585D01*
X215248443Y-90761587D01*
X215248443Y-90761588D01*
X215240370Y-90786433D01*
X215182753Y-90963760D01*
X215156001Y-91132669D01*
X215149500Y-91173713D01*
X215149500Y-91386287D01*
X215153600Y-91412174D01*
X215161660Y-91463065D01*
X215182754Y-91596243D01*
X215210732Y-91682351D01*
X215248444Y-91798414D01*
X215344951Y-91987820D01*
X215469890Y-92159786D01*
X215583430Y-92273326D01*
X215616915Y-92334649D01*
X215611931Y-92404341D01*
X215570059Y-92460274D01*
X215539083Y-92477189D01*
X215407669Y-92526203D01*
X215407664Y-92526206D01*
X215292455Y-92612452D01*
X215292452Y-92612455D01*
X215206206Y-92727664D01*
X215206202Y-92727671D01*
X215155908Y-92862517D01*
X215153056Y-92889050D01*
X215149501Y-92922123D01*
X215149500Y-92922135D01*
X215149500Y-94717870D01*
X215149501Y-94717876D01*
X215155908Y-94777483D01*
X215206202Y-94912328D01*
X215206206Y-94912335D01*
X215292452Y-95027544D01*
X215292455Y-95027547D01*
X215407664Y-95113793D01*
X215407671Y-95113797D01*
X215542517Y-95164091D01*
X215542516Y-95164091D01*
X215549444Y-95164835D01*
X215602127Y-95170500D01*
X217397872Y-95170499D01*
X217457483Y-95164091D01*
X217592331Y-95113796D01*
X217707546Y-95027546D01*
X217793796Y-94912331D01*
X217844091Y-94777483D01*
X217850500Y-94717873D01*
X217850499Y-93897648D01*
X222199500Y-93897648D01*
X222199500Y-94102351D01*
X222231522Y-94304534D01*
X222294781Y-94499223D01*
X222387715Y-94681613D01*
X222508028Y-94847213D01*
X222652786Y-94991971D01*
X222807749Y-95104556D01*
X222818390Y-95112287D01*
X222920061Y-95164091D01*
X223000776Y-95205218D01*
X223000778Y-95205218D01*
X223000781Y-95205220D01*
X223079893Y-95230925D01*
X223195465Y-95268477D01*
X223288529Y-95283217D01*
X223397648Y-95300500D01*
X223397649Y-95300500D01*
X223602351Y-95300500D01*
X223602352Y-95300500D01*
X223804534Y-95268477D01*
X223999219Y-95205220D01*
X224181610Y-95112287D01*
X224298250Y-95027544D01*
X224347213Y-94991971D01*
X224347215Y-94991968D01*
X224347219Y-94991966D01*
X224491966Y-94847219D01*
X224491968Y-94847215D01*
X224491971Y-94847213D01*
X224612284Y-94681614D01*
X224612285Y-94681613D01*
X224612287Y-94681610D01*
X224705220Y-94499219D01*
X224768477Y-94304534D01*
X224800500Y-94102352D01*
X224800500Y-93897648D01*
X224788201Y-93819999D01*
X224768477Y-93695465D01*
X224727415Y-93569091D01*
X224705220Y-93500781D01*
X224705218Y-93500778D01*
X224705218Y-93500776D01*
X224670451Y-93432544D01*
X224612287Y-93318390D01*
X224600221Y-93301782D01*
X224491971Y-93152786D01*
X224347213Y-93008028D01*
X224181613Y-92887715D01*
X224181612Y-92887714D01*
X224181610Y-92887713D01*
X224102056Y-92847178D01*
X223999223Y-92794781D01*
X223804534Y-92731522D01*
X223629995Y-92703878D01*
X223602352Y-92699500D01*
X223397648Y-92699500D01*
X223373329Y-92703351D01*
X223195465Y-92731522D01*
X223000776Y-92794781D01*
X222818386Y-92887715D01*
X222652786Y-93008028D01*
X222508028Y-93152786D01*
X222387715Y-93318386D01*
X222294781Y-93500776D01*
X222231522Y-93695465D01*
X222199500Y-93897648D01*
X217850499Y-93897648D01*
X217850499Y-93820000D01*
X217850499Y-92922129D01*
X217850498Y-92922123D01*
X217850497Y-92922116D01*
X217844091Y-92862517D01*
X217838854Y-92848477D01*
X217793797Y-92727671D01*
X217793793Y-92727664D01*
X217707547Y-92612455D01*
X217707544Y-92612452D01*
X217592335Y-92526206D01*
X217592328Y-92526202D01*
X217460917Y-92477189D01*
X217404983Y-92435318D01*
X217380566Y-92369853D01*
X217395418Y-92301580D01*
X217416563Y-92273332D01*
X217530104Y-92159792D01*
X217557843Y-92121613D01*
X217655048Y-91987820D01*
X217655047Y-91987820D01*
X217655051Y-91987816D01*
X217751557Y-91798412D01*
X217817246Y-91596243D01*
X217850500Y-91386287D01*
X217850500Y-91327135D01*
X240034500Y-91327135D01*
X240034500Y-93122870D01*
X240034501Y-93122876D01*
X240040908Y-93182483D01*
X240091202Y-93317328D01*
X240091206Y-93317335D01*
X240177452Y-93432544D01*
X240177455Y-93432547D01*
X240292664Y-93518793D01*
X240292671Y-93518797D01*
X240337618Y-93535561D01*
X240427517Y-93569091D01*
X240487127Y-93575500D01*
X240497685Y-93575499D01*
X240564723Y-93595179D01*
X240585372Y-93611818D01*
X241255591Y-94282037D01*
X241192007Y-94299075D01*
X241077993Y-94364901D01*
X240984901Y-94457993D01*
X240919075Y-94572007D01*
X240902037Y-94635591D01*
X240269728Y-94003282D01*
X240269727Y-94003282D01*
X240230380Y-94057439D01*
X240133904Y-94246782D01*
X240068242Y-94448869D01*
X240068242Y-94448872D01*
X240035000Y-94658753D01*
X240035000Y-94871246D01*
X240068242Y-95081127D01*
X240068242Y-95081130D01*
X240133904Y-95283217D01*
X240230375Y-95472550D01*
X240269728Y-95526716D01*
X240902036Y-94894407D01*
X240919075Y-94957993D01*
X240984901Y-95072007D01*
X241077993Y-95165099D01*
X241192007Y-95230925D01*
X241255590Y-95247962D01*
X240623282Y-95880269D01*
X240623282Y-95880270D01*
X240677449Y-95919624D01*
X240866782Y-96016095D01*
X241068870Y-96081757D01*
X241278754Y-96115000D01*
X241491246Y-96115000D01*
X241701127Y-96081757D01*
X241701130Y-96081757D01*
X241903217Y-96016095D01*
X242092554Y-95919622D01*
X242146716Y-95880270D01*
X242146717Y-95880270D01*
X241514408Y-95247962D01*
X241577993Y-95230925D01*
X241692007Y-95165099D01*
X241785099Y-95072007D01*
X241850925Y-94957993D01*
X241867962Y-94894408D01*
X242500270Y-95526717D01*
X242500270Y-95526716D01*
X242539622Y-95472554D01*
X242636095Y-95283217D01*
X242701757Y-95081130D01*
X242701757Y-95081127D01*
X242735000Y-94871246D01*
X242735000Y-94658753D01*
X242701757Y-94448872D01*
X242701757Y-94448869D01*
X242636095Y-94246782D01*
X242539624Y-94057449D01*
X242500270Y-94003282D01*
X242500269Y-94003282D01*
X241867962Y-94635590D01*
X241850925Y-94572007D01*
X241785099Y-94457993D01*
X241692007Y-94364901D01*
X241577993Y-94299075D01*
X241514409Y-94282037D01*
X242184627Y-93611818D01*
X242245950Y-93578333D01*
X242272307Y-93575499D01*
X242282872Y-93575499D01*
X242342483Y-93569091D01*
X242477331Y-93518796D01*
X242592546Y-93432546D01*
X242678796Y-93317331D01*
X242729091Y-93182483D01*
X242735500Y-93122873D01*
X242735499Y-91327128D01*
X242730299Y-91278757D01*
X242729091Y-91267516D01*
X242678797Y-91132671D01*
X242678793Y-91132664D01*
X242592547Y-91017455D01*
X242592544Y-91017452D01*
X242477335Y-90931206D01*
X242477328Y-90931202D01*
X242342482Y-90880908D01*
X242342483Y-90880908D01*
X242282883Y-90874501D01*
X242282881Y-90874500D01*
X242282873Y-90874500D01*
X242282864Y-90874500D01*
X240487129Y-90874500D01*
X240487123Y-90874501D01*
X240427516Y-90880908D01*
X240292671Y-90931202D01*
X240292664Y-90931206D01*
X240177455Y-91017452D01*
X240177452Y-91017455D01*
X240091206Y-91132664D01*
X240091202Y-91132671D01*
X240040908Y-91267517D01*
X240034501Y-91327116D01*
X240034501Y-91327123D01*
X240034500Y-91327135D01*
X217850500Y-91327135D01*
X217850500Y-91173713D01*
X217817246Y-90963757D01*
X217751557Y-90761588D01*
X217655051Y-90572184D01*
X217655049Y-90572181D01*
X217655048Y-90572179D01*
X217530109Y-90400213D01*
X217379786Y-90249890D01*
X217207820Y-90124951D01*
X217207115Y-90124591D01*
X217199054Y-90120485D01*
X217148259Y-90072512D01*
X217131463Y-90004692D01*
X217153999Y-89938556D01*
X217199054Y-89899515D01*
X217207816Y-89895051D01*
X217294138Y-89832335D01*
X217379786Y-89770109D01*
X217379788Y-89770106D01*
X217379792Y-89770104D01*
X217530104Y-89619792D01*
X217530106Y-89619788D01*
X217530109Y-89619786D01*
X217655048Y-89447820D01*
X217655047Y-89447820D01*
X217655051Y-89447816D01*
X217751557Y-89258412D01*
X217817246Y-89056243D01*
X217850500Y-88846287D01*
X217850500Y-88633713D01*
X217817246Y-88423757D01*
X217751557Y-88221588D01*
X217655051Y-88032184D01*
X217655049Y-88032181D01*
X217655048Y-88032179D01*
X217530109Y-87860213D01*
X217379786Y-87709890D01*
X217207820Y-87584951D01*
X217018414Y-87488444D01*
X217018413Y-87488443D01*
X217018412Y-87488443D01*
X216816243Y-87422754D01*
X216816241Y-87422753D01*
X216816240Y-87422753D01*
X216654957Y-87397208D01*
X216606287Y-87389500D01*
X216393713Y-87389500D01*
X216345042Y-87397208D01*
X216183760Y-87422753D01*
X215981585Y-87488444D01*
X215792179Y-87584951D01*
X215620213Y-87709890D01*
X215469890Y-87860213D01*
X215344951Y-88032179D01*
X215248444Y-88221585D01*
X215182753Y-88423760D01*
X215149500Y-88633713D01*
X213350499Y-88633713D01*
X213350499Y-87842128D01*
X213345299Y-87793757D01*
X213344091Y-87782516D01*
X213293797Y-87647671D01*
X213293793Y-87647664D01*
X213207547Y-87532455D01*
X213207544Y-87532452D01*
X213092335Y-87446206D01*
X213092328Y-87446202D01*
X212957482Y-87395908D01*
X212957483Y-87395908D01*
X212897883Y-87389501D01*
X212897881Y-87389500D01*
X212897873Y-87389500D01*
X212897864Y-87389500D01*
X211102129Y-87389500D01*
X211102123Y-87389501D01*
X211042516Y-87395908D01*
X210907671Y-87446202D01*
X210907664Y-87446206D01*
X210792455Y-87532452D01*
X210792452Y-87532455D01*
X210706206Y-87647664D01*
X210706202Y-87647671D01*
X210655908Y-87782517D01*
X210649501Y-87842116D01*
X210649501Y-87842123D01*
X210649500Y-87842135D01*
X204350499Y-87842135D01*
X204350499Y-87842128D01*
X204345580Y-87796369D01*
X204344091Y-87782516D01*
X204293797Y-87647671D01*
X204293793Y-87647664D01*
X204207547Y-87532455D01*
X204207544Y-87532452D01*
X204092335Y-87446206D01*
X204092328Y-87446202D01*
X203957482Y-87395908D01*
X203957483Y-87395908D01*
X203897883Y-87389501D01*
X203897881Y-87389500D01*
X203897873Y-87389500D01*
X203897864Y-87389500D01*
X202102129Y-87389500D01*
X202102123Y-87389501D01*
X202042516Y-87395908D01*
X201907671Y-87446202D01*
X201907664Y-87446206D01*
X201792455Y-87532452D01*
X201792452Y-87532455D01*
X201706206Y-87647664D01*
X201706202Y-87647671D01*
X201655908Y-87782517D01*
X201649501Y-87842116D01*
X201649501Y-87842123D01*
X201649500Y-87842135D01*
X199012031Y-87842135D01*
X198879792Y-87709896D01*
X198879786Y-87709890D01*
X198707820Y-87584951D01*
X198518414Y-87488444D01*
X198518413Y-87488443D01*
X198518412Y-87488443D01*
X198316243Y-87422754D01*
X198316241Y-87422753D01*
X198316240Y-87422753D01*
X198154957Y-87397208D01*
X198106287Y-87389500D01*
X197893713Y-87389500D01*
X197845042Y-87397208D01*
X197683760Y-87422753D01*
X197481585Y-87488444D01*
X197292179Y-87584951D01*
X197120213Y-87709890D01*
X196969890Y-87860213D01*
X196844951Y-88032179D01*
X196748444Y-88221585D01*
X196682753Y-88423760D01*
X196649500Y-88633713D01*
X195350499Y-88633713D01*
X195350499Y-87842128D01*
X195345299Y-87793757D01*
X195344091Y-87782516D01*
X195293797Y-87647671D01*
X195293793Y-87647664D01*
X195207547Y-87532455D01*
X195207544Y-87532452D01*
X195092335Y-87446206D01*
X195092328Y-87446202D01*
X194957482Y-87395908D01*
X194957483Y-87395908D01*
X194897883Y-87389501D01*
X194897881Y-87389500D01*
X194897873Y-87389500D01*
X194897864Y-87389500D01*
X193102129Y-87389500D01*
X193102123Y-87389501D01*
X193042516Y-87395908D01*
X192907671Y-87446202D01*
X192907664Y-87446206D01*
X192792455Y-87532452D01*
X192792452Y-87532455D01*
X192706206Y-87647664D01*
X192706202Y-87647671D01*
X192655908Y-87782517D01*
X192649501Y-87842116D01*
X192649501Y-87842123D01*
X192649500Y-87842135D01*
X170995666Y-87842135D01*
X170921349Y-87788140D01*
X170828370Y-87740765D01*
X170777574Y-87692790D01*
X170760779Y-87624969D01*
X170783316Y-87558835D01*
X170828370Y-87519795D01*
X170828920Y-87519515D01*
X170921610Y-87472287D01*
X170957508Y-87446206D01*
X171087213Y-87351971D01*
X171087215Y-87351968D01*
X171087219Y-87351966D01*
X171231966Y-87207219D01*
X171231968Y-87207215D01*
X171231971Y-87207213D01*
X171284732Y-87134590D01*
X171352287Y-87041610D01*
X171445220Y-86859219D01*
X171508477Y-86664534D01*
X171540500Y-86462352D01*
X171540500Y-86257648D01*
X171511091Y-86071971D01*
X171508477Y-86055465D01*
X171465924Y-85924501D01*
X171445220Y-85860781D01*
X171445218Y-85860778D01*
X171445218Y-85860776D01*
X171392127Y-85756580D01*
X171352287Y-85678390D01*
X171306081Y-85614792D01*
X171231971Y-85512786D01*
X171087213Y-85368028D01*
X170921614Y-85247715D01*
X170915006Y-85244348D01*
X170828917Y-85200483D01*
X170778123Y-85152511D01*
X170761328Y-85084690D01*
X170783865Y-85018555D01*
X170828917Y-84979516D01*
X170921610Y-84932287D01*
X170968164Y-84898464D01*
X171087213Y-84811971D01*
X171087215Y-84811968D01*
X171087219Y-84811966D01*
X171231966Y-84667219D01*
X171231968Y-84667215D01*
X171231971Y-84667213D01*
X171316435Y-84550956D01*
X171352287Y-84501610D01*
X171445220Y-84319219D01*
X171508477Y-84124534D01*
X171540500Y-83922352D01*
X171540500Y-83717648D01*
X171518690Y-83579949D01*
X171508477Y-83515465D01*
X171476728Y-83417753D01*
X171452704Y-83343817D01*
X171450710Y-83273977D01*
X171486790Y-83214144D01*
X171549491Y-83183316D01*
X171570636Y-83181500D01*
X173587996Y-83181500D01*
X173704194Y-83158386D01*
X173723328Y-83154580D01*
X173787069Y-83128177D01*
X173850807Y-83101777D01*
X173850808Y-83101776D01*
X173850811Y-83101775D01*
X173965543Y-83025114D01*
X175687819Y-81302838D01*
X175749142Y-81269353D01*
X175818834Y-81274337D01*
X175874767Y-81316209D01*
X175899184Y-81381673D01*
X175899500Y-81390519D01*
X175899500Y-84647870D01*
X175899501Y-84647876D01*
X175905908Y-84707483D01*
X175956202Y-84842328D01*
X175956206Y-84842335D01*
X176042452Y-84957544D01*
X176042455Y-84957547D01*
X176157664Y-85043793D01*
X176157671Y-85043797D01*
X176292517Y-85094091D01*
X176292516Y-85094091D01*
X176299444Y-85094835D01*
X176352127Y-85100500D01*
X178447872Y-85100499D01*
X178507483Y-85094091D01*
X178642331Y-85043796D01*
X178757546Y-84957546D01*
X178843796Y-84842331D01*
X178894091Y-84707483D01*
X178900500Y-84647873D01*
X178900499Y-81352135D01*
X187099500Y-81352135D01*
X187099500Y-84647870D01*
X187099501Y-84647876D01*
X187105908Y-84707483D01*
X187156202Y-84842328D01*
X187156206Y-84842335D01*
X187242452Y-84957544D01*
X187242455Y-84957547D01*
X187357664Y-85043793D01*
X187357671Y-85043797D01*
X187492517Y-85094091D01*
X187492516Y-85094091D01*
X187499444Y-85094835D01*
X187552127Y-85100500D01*
X189647872Y-85100499D01*
X189707483Y-85094091D01*
X189842331Y-85043796D01*
X189930693Y-84977648D01*
X196699500Y-84977648D01*
X196699500Y-85182351D01*
X196731522Y-85384534D01*
X196794781Y-85579223D01*
X196812901Y-85614784D01*
X196885150Y-85756580D01*
X196887715Y-85761613D01*
X197008028Y-85927213D01*
X197152786Y-86071971D01*
X197259498Y-86149500D01*
X197318390Y-86192287D01*
X197428602Y-86248443D01*
X197500776Y-86285218D01*
X197500778Y-86285218D01*
X197500781Y-86285220D01*
X197600178Y-86317516D01*
X197695465Y-86348477D01*
X197796557Y-86364488D01*
X197897648Y-86380500D01*
X197897649Y-86380500D01*
X198102351Y-86380500D01*
X198102352Y-86380500D01*
X198304534Y-86348477D01*
X198499219Y-86285220D01*
X198681610Y-86192287D01*
X198774590Y-86124732D01*
X198847213Y-86071971D01*
X198847215Y-86071968D01*
X198847219Y-86071966D01*
X198991966Y-85927219D01*
X198991968Y-85927215D01*
X198991971Y-85927213D01*
X199044732Y-85854590D01*
X199112287Y-85761610D01*
X199205220Y-85579219D01*
X199268477Y-85384534D01*
X199300500Y-85182352D01*
X199300500Y-84977648D01*
X205199500Y-84977648D01*
X205199500Y-85182351D01*
X205231522Y-85384534D01*
X205294781Y-85579223D01*
X205312901Y-85614784D01*
X205385150Y-85756580D01*
X205387715Y-85761613D01*
X205508028Y-85927213D01*
X205652786Y-86071971D01*
X205759498Y-86149500D01*
X205818390Y-86192287D01*
X205928602Y-86248443D01*
X206000776Y-86285218D01*
X206000778Y-86285218D01*
X206000781Y-86285220D01*
X206100178Y-86317516D01*
X206195465Y-86348477D01*
X206296557Y-86364488D01*
X206397648Y-86380500D01*
X206397649Y-86380500D01*
X206602351Y-86380500D01*
X206602352Y-86380500D01*
X206804534Y-86348477D01*
X206999219Y-86285220D01*
X207181610Y-86192287D01*
X207274590Y-86124732D01*
X207347213Y-86071971D01*
X207347215Y-86071968D01*
X207347219Y-86071966D01*
X207491966Y-85927219D01*
X207491968Y-85927215D01*
X207491971Y-85927213D01*
X207544732Y-85854590D01*
X207612287Y-85761610D01*
X207705220Y-85579219D01*
X207768477Y-85384534D01*
X207800500Y-85182352D01*
X207800500Y-84977648D01*
X215199500Y-84977648D01*
X215199500Y-85182351D01*
X215231522Y-85384534D01*
X215294781Y-85579223D01*
X215312901Y-85614784D01*
X215385150Y-85756580D01*
X215387715Y-85761613D01*
X215508028Y-85927213D01*
X215652786Y-86071971D01*
X215759498Y-86149500D01*
X215818390Y-86192287D01*
X215928602Y-86248443D01*
X216000776Y-86285218D01*
X216000778Y-86285218D01*
X216000781Y-86285220D01*
X216100178Y-86317516D01*
X216195465Y-86348477D01*
X216296557Y-86364488D01*
X216397648Y-86380500D01*
X216397649Y-86380500D01*
X216602351Y-86380500D01*
X216602352Y-86380500D01*
X216804534Y-86348477D01*
X216999219Y-86285220D01*
X217181610Y-86192287D01*
X217274590Y-86124732D01*
X217347213Y-86071971D01*
X217347215Y-86071968D01*
X217347219Y-86071966D01*
X217491966Y-85927219D01*
X217491968Y-85927215D01*
X217491971Y-85927213D01*
X217544732Y-85854590D01*
X217612287Y-85761610D01*
X217705220Y-85579219D01*
X217768477Y-85384534D01*
X217800500Y-85182352D01*
X217800500Y-84977648D01*
X217768477Y-84775466D01*
X217705220Y-84580781D01*
X217705218Y-84580778D01*
X217705218Y-84580776D01*
X217664747Y-84501349D01*
X217612287Y-84398390D01*
X217569300Y-84339223D01*
X217491971Y-84232786D01*
X217347213Y-84088028D01*
X217181613Y-83967715D01*
X217181612Y-83967714D01*
X217181610Y-83967713D01*
X217124653Y-83938691D01*
X216999223Y-83874781D01*
X216962422Y-83862824D01*
X216890706Y-83839522D01*
X216804534Y-83811522D01*
X216629995Y-83783878D01*
X216602352Y-83779500D01*
X216397648Y-83779500D01*
X216373329Y-83783351D01*
X216195465Y-83811522D01*
X216000776Y-83874781D01*
X215818386Y-83967715D01*
X215652786Y-84088028D01*
X215508028Y-84232786D01*
X215387715Y-84398386D01*
X215294781Y-84580776D01*
X215231522Y-84775465D01*
X215199500Y-84977648D01*
X207800500Y-84977648D01*
X207768477Y-84775466D01*
X207705220Y-84580781D01*
X207705218Y-84580778D01*
X207705218Y-84580776D01*
X207664747Y-84501349D01*
X207612287Y-84398390D01*
X207569300Y-84339223D01*
X207491971Y-84232786D01*
X207347213Y-84088028D01*
X207181613Y-83967715D01*
X207181612Y-83967714D01*
X207181610Y-83967713D01*
X207124653Y-83938691D01*
X206999223Y-83874781D01*
X206804534Y-83811522D01*
X206629995Y-83783878D01*
X206602352Y-83779500D01*
X206397648Y-83779500D01*
X206373329Y-83783351D01*
X206195465Y-83811522D01*
X206000776Y-83874781D01*
X205818386Y-83967715D01*
X205652786Y-84088028D01*
X205508028Y-84232786D01*
X205387715Y-84398386D01*
X205294781Y-84580776D01*
X205231522Y-84775465D01*
X205199500Y-84977648D01*
X199300500Y-84977648D01*
X199268477Y-84775466D01*
X199205220Y-84580781D01*
X199205218Y-84580778D01*
X199205218Y-84580776D01*
X199164747Y-84501349D01*
X199112287Y-84398390D01*
X199069300Y-84339223D01*
X198991971Y-84232786D01*
X198847213Y-84088028D01*
X198681613Y-83967715D01*
X198681612Y-83967714D01*
X198681610Y-83967713D01*
X198624653Y-83938691D01*
X198499223Y-83874781D01*
X198304534Y-83811522D01*
X198129995Y-83783878D01*
X198102352Y-83779500D01*
X197897648Y-83779500D01*
X197873329Y-83783351D01*
X197695465Y-83811522D01*
X197500776Y-83874781D01*
X197318386Y-83967715D01*
X197152786Y-84088028D01*
X197008028Y-84232786D01*
X196887715Y-84398386D01*
X196794781Y-84580776D01*
X196731522Y-84775465D01*
X196699500Y-84977648D01*
X189930693Y-84977648D01*
X189957546Y-84957546D01*
X190043796Y-84842331D01*
X190094091Y-84707483D01*
X190100500Y-84647873D01*
X190100500Y-83737648D01*
X222199500Y-83737648D01*
X222199500Y-83942351D01*
X222231522Y-84144534D01*
X222294781Y-84339223D01*
X222335308Y-84418760D01*
X222387712Y-84521609D01*
X222387715Y-84521613D01*
X222508028Y-84687213D01*
X222652786Y-84831971D01*
X222744308Y-84898464D01*
X222818390Y-84952287D01*
X222934607Y-85011503D01*
X223000776Y-85045218D01*
X223000778Y-85045218D01*
X223000781Y-85045220D01*
X223105137Y-85079127D01*
X223195465Y-85108477D01*
X223296557Y-85124488D01*
X223397648Y-85140500D01*
X223397649Y-85140500D01*
X223602351Y-85140500D01*
X223602352Y-85140500D01*
X223804534Y-85108477D01*
X223999219Y-85045220D01*
X224181610Y-84952287D01*
X224274590Y-84884732D01*
X224347213Y-84831971D01*
X224347215Y-84831968D01*
X224347219Y-84831966D01*
X224491966Y-84687219D01*
X224534473Y-84628713D01*
X240034500Y-84628713D01*
X240034500Y-84841287D01*
X240034666Y-84842335D01*
X240066799Y-85045218D01*
X240067754Y-85051243D01*
X240131591Y-85247713D01*
X240133444Y-85253414D01*
X240229951Y-85442820D01*
X240354890Y-85614786D01*
X240468430Y-85728326D01*
X240501915Y-85789649D01*
X240496931Y-85859341D01*
X240455059Y-85915274D01*
X240424083Y-85932189D01*
X240292669Y-85981203D01*
X240292664Y-85981206D01*
X240177455Y-86067452D01*
X240177452Y-86067455D01*
X240091206Y-86182664D01*
X240091202Y-86182671D01*
X240040908Y-86317517D01*
X240037959Y-86344951D01*
X240034501Y-86377123D01*
X240034500Y-86377135D01*
X240034500Y-88172870D01*
X240034501Y-88172876D01*
X240040908Y-88232483D01*
X240091202Y-88367328D01*
X240091206Y-88367335D01*
X240177452Y-88482544D01*
X240177455Y-88482547D01*
X240292664Y-88568793D01*
X240292671Y-88568797D01*
X240427517Y-88619091D01*
X240427516Y-88619091D01*
X240434444Y-88619835D01*
X240487127Y-88625500D01*
X242282872Y-88625499D01*
X242342483Y-88619091D01*
X242477331Y-88568796D01*
X242592546Y-88482546D01*
X242678796Y-88367331D01*
X242729091Y-88232483D01*
X242735500Y-88172873D01*
X242735499Y-86377128D01*
X242729091Y-86317517D01*
X242717044Y-86285218D01*
X242678797Y-86182671D01*
X242678793Y-86182664D01*
X242592547Y-86067455D01*
X242592544Y-86067452D01*
X242477335Y-85981206D01*
X242477328Y-85981202D01*
X242345917Y-85932189D01*
X242289983Y-85890318D01*
X242265566Y-85824853D01*
X242280418Y-85756580D01*
X242301563Y-85728332D01*
X242415104Y-85614792D01*
X242540051Y-85442816D01*
X242636557Y-85253412D01*
X242702246Y-85051243D01*
X242735500Y-84841287D01*
X242735500Y-84628713D01*
X242702246Y-84418757D01*
X242636557Y-84216588D01*
X242540051Y-84027184D01*
X242540049Y-84027181D01*
X242540048Y-84027179D01*
X242415109Y-83855213D01*
X242264786Y-83704890D01*
X242092820Y-83579951D01*
X241903414Y-83483444D01*
X241903413Y-83483443D01*
X241903412Y-83483443D01*
X241701243Y-83417754D01*
X241701241Y-83417753D01*
X241701240Y-83417753D01*
X241539957Y-83392208D01*
X241491287Y-83384500D01*
X241278713Y-83384500D01*
X241230042Y-83392208D01*
X241068760Y-83417753D01*
X240866585Y-83483444D01*
X240677179Y-83579951D01*
X240505213Y-83704890D01*
X240354890Y-83855213D01*
X240229951Y-84027179D01*
X240133444Y-84216585D01*
X240067753Y-84418760D01*
X240042092Y-84580781D01*
X240034500Y-84628713D01*
X224534473Y-84628713D01*
X224612287Y-84521610D01*
X224705220Y-84339219D01*
X224768477Y-84144534D01*
X224800500Y-83942352D01*
X224800500Y-83737648D01*
X224768477Y-83535466D01*
X224761978Y-83515465D01*
X224705218Y-83340776D01*
X224624987Y-83183316D01*
X224612287Y-83158390D01*
X224571156Y-83101777D01*
X224491971Y-82992786D01*
X224347213Y-82848028D01*
X224181613Y-82727715D01*
X224181612Y-82727714D01*
X224181610Y-82727713D01*
X224124653Y-82698691D01*
X223999223Y-82634781D01*
X223804534Y-82571522D01*
X223629995Y-82543878D01*
X223602352Y-82539500D01*
X223397648Y-82539500D01*
X223373329Y-82543351D01*
X223195465Y-82571522D01*
X223000776Y-82634781D01*
X222818386Y-82727715D01*
X222652786Y-82848028D01*
X222508028Y-82992786D01*
X222387715Y-83158386D01*
X222294781Y-83340776D01*
X222231522Y-83535465D01*
X222199500Y-83737648D01*
X190100500Y-83737648D01*
X190100499Y-81352128D01*
X190094091Y-81292517D01*
X190093377Y-81290604D01*
X190043797Y-81157671D01*
X190043793Y-81157664D01*
X189957547Y-81042455D01*
X189957544Y-81042452D01*
X189842335Y-80956206D01*
X189842328Y-80956202D01*
X189707482Y-80905908D01*
X189707483Y-80905908D01*
X189647883Y-80899501D01*
X189647881Y-80899500D01*
X189647873Y-80899500D01*
X189647864Y-80899500D01*
X187552129Y-80899500D01*
X187552123Y-80899501D01*
X187492516Y-80905908D01*
X187357671Y-80956202D01*
X187357664Y-80956206D01*
X187242455Y-81042452D01*
X187242452Y-81042455D01*
X187156206Y-81157664D01*
X187156202Y-81157671D01*
X187105908Y-81292517D01*
X187101823Y-81330519D01*
X187099501Y-81352123D01*
X187099500Y-81352135D01*
X178900499Y-81352135D01*
X178900499Y-81352128D01*
X178895303Y-81303793D01*
X178894091Y-81292516D01*
X178843797Y-81157671D01*
X178843793Y-81157664D01*
X178757547Y-81042455D01*
X178757544Y-81042452D01*
X178642335Y-80956206D01*
X178642328Y-80956202D01*
X178507482Y-80905908D01*
X178507483Y-80905908D01*
X178447883Y-80899501D01*
X178447881Y-80899500D01*
X178447873Y-80899500D01*
X178447865Y-80899500D01*
X176390518Y-80899500D01*
X176323479Y-80879815D01*
X176277724Y-80827011D01*
X176267780Y-80757853D01*
X176296805Y-80694297D01*
X176302828Y-80687827D01*
X179680877Y-77309778D01*
X192599500Y-77309778D01*
X192599500Y-77530221D01*
X192633985Y-77747952D01*
X192702103Y-77957603D01*
X192702104Y-77957606D01*
X192770122Y-78091096D01*
X192798243Y-78146286D01*
X192802187Y-78154025D01*
X192931752Y-78332358D01*
X192931756Y-78332363D01*
X192981928Y-78382535D01*
X193015413Y-78443858D01*
X193010429Y-78513550D01*
X192968557Y-78569483D01*
X192937581Y-78586398D01*
X192857669Y-78616203D01*
X192857664Y-78616206D01*
X192742455Y-78702452D01*
X192742452Y-78702455D01*
X192656206Y-78817664D01*
X192656202Y-78817671D01*
X192605908Y-78952517D01*
X192600285Y-79004825D01*
X192599501Y-79012123D01*
X192599500Y-79012135D01*
X192599500Y-80907870D01*
X192599501Y-80907876D01*
X192605908Y-80967483D01*
X192656202Y-81102328D01*
X192656206Y-81102335D01*
X192742452Y-81217544D01*
X192742455Y-81217547D01*
X192857664Y-81303793D01*
X192857671Y-81303797D01*
X192992517Y-81354091D01*
X192992516Y-81354091D01*
X192999444Y-81354835D01*
X193052127Y-81360500D01*
X194947872Y-81360499D01*
X195007483Y-81354091D01*
X195142331Y-81303796D01*
X195257546Y-81217546D01*
X195343796Y-81102331D01*
X195394091Y-80967483D01*
X195400500Y-80907873D01*
X195400499Y-79012128D01*
X195394091Y-78952517D01*
X195381885Y-78919792D01*
X195343797Y-78817671D01*
X195343793Y-78817664D01*
X195257547Y-78702455D01*
X195257544Y-78702452D01*
X195142335Y-78616206D01*
X195142328Y-78616202D01*
X195062419Y-78586398D01*
X195006485Y-78544527D01*
X194982068Y-78479062D01*
X194996920Y-78410789D01*
X195018069Y-78382537D01*
X195068242Y-78332365D01*
X195197815Y-78154022D01*
X195297895Y-77957606D01*
X195366015Y-77747951D01*
X195400500Y-77530222D01*
X195400500Y-77309778D01*
X201599500Y-77309778D01*
X201599500Y-77530221D01*
X201633985Y-77747952D01*
X201702103Y-77957603D01*
X201702104Y-77957606D01*
X201770122Y-78091096D01*
X201798243Y-78146286D01*
X201802187Y-78154025D01*
X201931752Y-78332358D01*
X201931756Y-78332363D01*
X201981928Y-78382535D01*
X202015413Y-78443858D01*
X202010429Y-78513550D01*
X201968557Y-78569483D01*
X201937581Y-78586398D01*
X201857669Y-78616203D01*
X201857664Y-78616206D01*
X201742455Y-78702452D01*
X201742452Y-78702455D01*
X201656206Y-78817664D01*
X201656202Y-78817671D01*
X201605908Y-78952517D01*
X201600285Y-79004825D01*
X201599501Y-79012123D01*
X201599500Y-79012135D01*
X201599500Y-80907870D01*
X201599501Y-80907876D01*
X201605908Y-80967483D01*
X201656202Y-81102328D01*
X201656206Y-81102335D01*
X201742452Y-81217544D01*
X201742455Y-81217547D01*
X201857664Y-81303793D01*
X201857671Y-81303797D01*
X201992517Y-81354091D01*
X201992516Y-81354091D01*
X201999444Y-81354835D01*
X202052127Y-81360500D01*
X203947872Y-81360499D01*
X204007483Y-81354091D01*
X204142331Y-81303796D01*
X204257546Y-81217546D01*
X204343796Y-81102331D01*
X204394091Y-80967483D01*
X204400500Y-80907873D01*
X204400499Y-79012128D01*
X204394091Y-78952517D01*
X204381885Y-78919792D01*
X204343797Y-78817671D01*
X204343793Y-78817664D01*
X204257547Y-78702455D01*
X204257544Y-78702452D01*
X204142335Y-78616206D01*
X204142328Y-78616202D01*
X204062419Y-78586398D01*
X204006485Y-78544527D01*
X203982068Y-78479062D01*
X203996920Y-78410789D01*
X204018069Y-78382537D01*
X204068242Y-78332365D01*
X204197815Y-78154022D01*
X204297895Y-77957606D01*
X204366015Y-77747951D01*
X204400500Y-77530222D01*
X204400500Y-77309778D01*
X210599500Y-77309778D01*
X210599500Y-77530221D01*
X210633985Y-77747952D01*
X210702103Y-77957603D01*
X210702104Y-77957606D01*
X210770122Y-78091096D01*
X210798243Y-78146286D01*
X210802187Y-78154025D01*
X210931752Y-78332358D01*
X210931756Y-78332363D01*
X210981928Y-78382535D01*
X211015413Y-78443858D01*
X211010429Y-78513550D01*
X210968557Y-78569483D01*
X210937581Y-78586398D01*
X210857669Y-78616203D01*
X210857664Y-78616206D01*
X210742455Y-78702452D01*
X210742452Y-78702455D01*
X210656206Y-78817664D01*
X210656202Y-78817671D01*
X210605908Y-78952517D01*
X210600285Y-79004825D01*
X210599501Y-79012123D01*
X210599500Y-79012135D01*
X210599500Y-80907870D01*
X210599501Y-80907876D01*
X210605908Y-80967483D01*
X210656202Y-81102328D01*
X210656206Y-81102335D01*
X210742452Y-81217544D01*
X210742455Y-81217547D01*
X210857664Y-81303793D01*
X210857671Y-81303797D01*
X210992517Y-81354091D01*
X210992516Y-81354091D01*
X210999444Y-81354835D01*
X211052127Y-81360500D01*
X212947872Y-81360499D01*
X213007483Y-81354091D01*
X213142331Y-81303796D01*
X213257546Y-81217546D01*
X213343796Y-81102331D01*
X213394091Y-80967483D01*
X213400500Y-80907873D01*
X213400499Y-79012128D01*
X213394091Y-78952517D01*
X213381885Y-78919792D01*
X213343797Y-78817671D01*
X213343793Y-78817664D01*
X213257547Y-78702455D01*
X213257544Y-78702452D01*
X213142335Y-78616206D01*
X213142328Y-78616202D01*
X213062419Y-78586398D01*
X213006485Y-78544527D01*
X212982068Y-78479062D01*
X212996920Y-78410789D01*
X213018069Y-78382537D01*
X213068242Y-78332365D01*
X213197815Y-78154022D01*
X213297895Y-77957606D01*
X213366015Y-77747951D01*
X213400500Y-77530222D01*
X213400500Y-77309778D01*
X213366015Y-77092049D01*
X213324265Y-76963553D01*
X213297896Y-76882396D01*
X213297895Y-76882393D01*
X213252752Y-76793797D01*
X213197815Y-76685978D01*
X213162362Y-76637181D01*
X213068247Y-76507641D01*
X213068243Y-76507636D01*
X212912363Y-76351756D01*
X212912358Y-76351752D01*
X212734025Y-76222187D01*
X212734024Y-76222186D01*
X212734022Y-76222185D01*
X212667867Y-76188477D01*
X212537606Y-76122104D01*
X212537603Y-76122103D01*
X212327952Y-76053985D01*
X212219086Y-76036742D01*
X212110222Y-76019500D01*
X211889778Y-76019500D01*
X211817201Y-76030995D01*
X211672047Y-76053985D01*
X211462396Y-76122103D01*
X211462393Y-76122104D01*
X211265974Y-76222187D01*
X211087641Y-76351752D01*
X211087636Y-76351756D01*
X210931756Y-76507636D01*
X210931752Y-76507641D01*
X210802187Y-76685974D01*
X210702104Y-76882393D01*
X210702103Y-76882396D01*
X210633985Y-77092047D01*
X210599500Y-77309778D01*
X204400500Y-77309778D01*
X204366015Y-77092049D01*
X204324265Y-76963553D01*
X204297896Y-76882396D01*
X204297895Y-76882393D01*
X204252752Y-76793797D01*
X204197815Y-76685978D01*
X204162362Y-76637181D01*
X204068247Y-76507641D01*
X204068243Y-76507636D01*
X203912363Y-76351756D01*
X203912358Y-76351752D01*
X203734025Y-76222187D01*
X203734024Y-76222186D01*
X203734022Y-76222185D01*
X203667867Y-76188477D01*
X203537606Y-76122104D01*
X203537603Y-76122103D01*
X203327952Y-76053985D01*
X203219086Y-76036742D01*
X203110222Y-76019500D01*
X202889778Y-76019500D01*
X202817201Y-76030995D01*
X202672047Y-76053985D01*
X202462396Y-76122103D01*
X202462393Y-76122104D01*
X202265974Y-76222187D01*
X202087641Y-76351752D01*
X202087636Y-76351756D01*
X201931756Y-76507636D01*
X201931752Y-76507641D01*
X201802187Y-76685974D01*
X201702104Y-76882393D01*
X201702103Y-76882396D01*
X201633985Y-77092047D01*
X201599500Y-77309778D01*
X195400500Y-77309778D01*
X195366015Y-77092049D01*
X195324265Y-76963553D01*
X195297896Y-76882396D01*
X195297895Y-76882393D01*
X195252752Y-76793797D01*
X195197815Y-76685978D01*
X195162362Y-76637181D01*
X195068247Y-76507641D01*
X195068243Y-76507636D01*
X194912363Y-76351756D01*
X194912358Y-76351752D01*
X194734025Y-76222187D01*
X194734024Y-76222186D01*
X194734022Y-76222185D01*
X194667867Y-76188477D01*
X194537606Y-76122104D01*
X194537603Y-76122103D01*
X194327952Y-76053985D01*
X194219086Y-76036742D01*
X194110222Y-76019500D01*
X193889778Y-76019500D01*
X193817201Y-76030995D01*
X193672047Y-76053985D01*
X193462396Y-76122103D01*
X193462393Y-76122104D01*
X193265974Y-76222187D01*
X193087641Y-76351752D01*
X193087636Y-76351756D01*
X192931756Y-76507636D01*
X192931752Y-76507641D01*
X192802187Y-76685974D01*
X192702104Y-76882393D01*
X192702103Y-76882396D01*
X192633985Y-77092047D01*
X192599500Y-77309778D01*
X179680877Y-77309778D01*
X180003177Y-76987478D01*
X180064498Y-76953995D01*
X180129175Y-76957230D01*
X180148632Y-76963553D01*
X180236110Y-76977408D01*
X180381903Y-77000500D01*
X180381908Y-77000500D01*
X180618097Y-77000500D01*
X180851368Y-76963553D01*
X180870825Y-76957231D01*
X181075992Y-76890568D01*
X181286433Y-76783343D01*
X181477510Y-76644517D01*
X181644517Y-76477510D01*
X181685385Y-76421259D01*
X181740711Y-76378596D01*
X181772543Y-76373902D01*
X182517037Y-75629408D01*
X182534075Y-75692993D01*
X182599901Y-75807007D01*
X182692993Y-75900099D01*
X182807007Y-75965925D01*
X182870589Y-75982962D01*
X182130893Y-76722658D01*
X182213828Y-76782914D01*
X182424197Y-76890102D01*
X182648752Y-76963065D01*
X182648751Y-76963065D01*
X182881948Y-77000000D01*
X183118052Y-77000000D01*
X183351247Y-76963065D01*
X183575802Y-76890102D01*
X183786171Y-76782914D01*
X183881857Y-76713394D01*
X183947663Y-76689914D01*
X184015717Y-76705739D01*
X184054009Y-76739400D01*
X184122305Y-76830630D01*
X184137179Y-76850500D01*
X184142455Y-76857547D01*
X184257664Y-76943793D01*
X184257671Y-76943797D01*
X184392517Y-76994091D01*
X184392516Y-76994091D01*
X184399444Y-76994835D01*
X184452127Y-77000500D01*
X186547872Y-77000499D01*
X186607483Y-76994091D01*
X186742331Y-76943796D01*
X186857546Y-76857546D01*
X186943796Y-76742331D01*
X186994091Y-76607483D01*
X187000500Y-76547873D01*
X187000499Y-74817648D01*
X196699500Y-74817648D01*
X196699500Y-75022351D01*
X196731522Y-75224534D01*
X196794781Y-75419223D01*
X196835940Y-75500000D01*
X196881336Y-75589095D01*
X196887715Y-75601613D01*
X197008028Y-75767213D01*
X197152786Y-75911971D01*
X197273950Y-76000000D01*
X197318390Y-76032287D01*
X197404166Y-76075992D01*
X197500776Y-76125218D01*
X197500778Y-76125218D01*
X197500781Y-76125220D01*
X197605137Y-76159127D01*
X197695465Y-76188477D01*
X197796557Y-76204488D01*
X197897648Y-76220500D01*
X197897649Y-76220500D01*
X198102351Y-76220500D01*
X198102352Y-76220500D01*
X198304534Y-76188477D01*
X198499219Y-76125220D01*
X198681610Y-76032287D01*
X198774590Y-75964732D01*
X198847213Y-75911971D01*
X198847215Y-75911968D01*
X198847219Y-75911966D01*
X198991966Y-75767219D01*
X198991968Y-75767215D01*
X198991971Y-75767213D01*
X199098771Y-75620213D01*
X199112287Y-75601610D01*
X199205220Y-75419219D01*
X199268477Y-75224534D01*
X199300500Y-75022352D01*
X199300500Y-74817648D01*
X205199500Y-74817648D01*
X205199500Y-75022351D01*
X205231522Y-75224534D01*
X205294781Y-75419223D01*
X205335940Y-75500000D01*
X205381336Y-75589095D01*
X205387715Y-75601613D01*
X205508028Y-75767213D01*
X205652786Y-75911971D01*
X205773950Y-76000000D01*
X205818390Y-76032287D01*
X205904166Y-76075992D01*
X206000776Y-76125218D01*
X206000778Y-76125218D01*
X206000781Y-76125220D01*
X206105137Y-76159127D01*
X206195465Y-76188477D01*
X206296557Y-76204488D01*
X206397648Y-76220500D01*
X206397649Y-76220500D01*
X206602351Y-76220500D01*
X206602352Y-76220500D01*
X206804534Y-76188477D01*
X206999219Y-76125220D01*
X207181610Y-76032287D01*
X207274590Y-75964732D01*
X207347213Y-75911971D01*
X207347215Y-75911968D01*
X207347219Y-75911966D01*
X207491966Y-75767219D01*
X207491968Y-75767215D01*
X207491971Y-75767213D01*
X207598771Y-75620213D01*
X207612287Y-75601610D01*
X207705220Y-75419219D01*
X207768477Y-75224534D01*
X207800500Y-75022352D01*
X207800500Y-74817648D01*
X215199500Y-74817648D01*
X215199500Y-75022351D01*
X215231522Y-75224534D01*
X215294781Y-75419223D01*
X215335940Y-75500000D01*
X215381336Y-75589095D01*
X215387715Y-75601613D01*
X215508028Y-75767213D01*
X215652786Y-75911971D01*
X215773950Y-76000000D01*
X215818390Y-76032287D01*
X215904166Y-76075992D01*
X216000776Y-76125218D01*
X216000778Y-76125218D01*
X216000781Y-76125220D01*
X216105137Y-76159127D01*
X216195465Y-76188477D01*
X216296557Y-76204488D01*
X216397648Y-76220500D01*
X216397649Y-76220500D01*
X216602351Y-76220500D01*
X216602352Y-76220500D01*
X216804534Y-76188477D01*
X216999219Y-76125220D01*
X217181610Y-76032287D01*
X217274590Y-75964732D01*
X217347213Y-75911971D01*
X217347215Y-75911968D01*
X217347219Y-75911966D01*
X217491966Y-75767219D01*
X217491968Y-75767215D01*
X217491971Y-75767213D01*
X217598771Y-75620213D01*
X217612287Y-75601610D01*
X217705220Y-75419219D01*
X217768477Y-75224534D01*
X217800500Y-75022352D01*
X217800500Y-74817648D01*
X217768477Y-74615466D01*
X217767420Y-74612214D01*
X217764145Y-74602135D01*
X222149500Y-74602135D01*
X222149500Y-76397870D01*
X222149501Y-76397876D01*
X222155908Y-76457483D01*
X222206202Y-76592328D01*
X222206206Y-76592335D01*
X222292452Y-76707544D01*
X222292455Y-76707547D01*
X222407664Y-76793793D01*
X222407671Y-76793797D01*
X222539082Y-76842810D01*
X222595016Y-76884681D01*
X222619433Y-76950145D01*
X222604582Y-77018418D01*
X222583431Y-77046673D01*
X222469889Y-77160215D01*
X222344951Y-77332179D01*
X222248444Y-77521585D01*
X222182753Y-77723760D01*
X222149500Y-77933713D01*
X222149500Y-78146286D01*
X222182753Y-78356239D01*
X222182753Y-78356241D01*
X222182754Y-78356243D01*
X222243931Y-78544527D01*
X222248444Y-78558414D01*
X222344951Y-78747820D01*
X222469890Y-78919786D01*
X222620213Y-79070109D01*
X222792182Y-79195050D01*
X222800946Y-79199516D01*
X222851742Y-79247491D01*
X222868536Y-79315312D01*
X222845998Y-79381447D01*
X222800946Y-79420484D01*
X222792182Y-79424949D01*
X222620213Y-79549890D01*
X222469890Y-79700213D01*
X222344951Y-79872179D01*
X222248444Y-80061585D01*
X222182753Y-80263760D01*
X222149500Y-80473713D01*
X222149500Y-80686286D01*
X222173969Y-80840781D01*
X222182754Y-80896243D01*
X222233244Y-81051636D01*
X222248444Y-81098414D01*
X222344951Y-81287820D01*
X222469890Y-81459786D01*
X222620213Y-81610109D01*
X222792179Y-81735048D01*
X222792181Y-81735049D01*
X222792184Y-81735051D01*
X222981588Y-81831557D01*
X223183757Y-81897246D01*
X223393713Y-81930500D01*
X223393714Y-81930500D01*
X223606286Y-81930500D01*
X223606287Y-81930500D01*
X223816243Y-81897246D01*
X224018412Y-81831557D01*
X224207816Y-81735051D01*
X224245034Y-81708011D01*
X224379786Y-81610109D01*
X224379788Y-81610106D01*
X224379792Y-81610104D01*
X224530104Y-81459792D01*
X224530106Y-81459788D01*
X224530109Y-81459786D01*
X224644137Y-81302838D01*
X224655051Y-81287816D01*
X224751557Y-81098412D01*
X224817246Y-80896243D01*
X224850500Y-80686287D01*
X224850500Y-80473713D01*
X224817246Y-80263757D01*
X224751557Y-80061588D01*
X224655051Y-79872184D01*
X224655049Y-79872181D01*
X224655048Y-79872179D01*
X224530109Y-79700213D01*
X224379786Y-79549890D01*
X224207820Y-79424951D01*
X224207115Y-79424591D01*
X224199054Y-79420485D01*
X224148259Y-79372512D01*
X224131463Y-79304692D01*
X224153999Y-79238556D01*
X224199054Y-79199515D01*
X224207816Y-79195051D01*
X224244800Y-79168181D01*
X224379786Y-79070109D01*
X224379788Y-79070106D01*
X224379792Y-79070104D01*
X224530104Y-78919792D01*
X224530106Y-78919788D01*
X224530109Y-78919786D01*
X224655048Y-78747820D01*
X224655047Y-78747820D01*
X224655051Y-78747816D01*
X224751557Y-78558412D01*
X224799959Y-78409448D01*
X242099500Y-78409448D01*
X242099500Y-78590551D01*
X242127829Y-78769410D01*
X242183787Y-78941636D01*
X242183788Y-78941639D01*
X242266006Y-79102997D01*
X242372441Y-79249494D01*
X242372445Y-79249499D01*
X242500500Y-79377554D01*
X242500505Y-79377558D01*
X242565734Y-79424949D01*
X242647006Y-79483996D01*
X242752484Y-79537740D01*
X242808360Y-79566211D01*
X242808363Y-79566212D01*
X242873018Y-79587219D01*
X242980591Y-79622171D01*
X243063429Y-79635291D01*
X243159449Y-79650500D01*
X243159454Y-79650500D01*
X243340551Y-79650500D01*
X243427259Y-79636765D01*
X243519409Y-79622171D01*
X243691639Y-79566211D01*
X243852994Y-79483996D01*
X243999501Y-79377553D01*
X244127553Y-79249501D01*
X244233996Y-79102994D01*
X244316211Y-78941639D01*
X244372171Y-78769409D01*
X244396436Y-78616206D01*
X244400500Y-78590551D01*
X244400500Y-78409448D01*
X244384019Y-78305397D01*
X244372171Y-78230591D01*
X244344191Y-78144476D01*
X244316212Y-78058363D01*
X244316211Y-78058360D01*
X244252699Y-77933713D01*
X244233996Y-77897006D01*
X244200208Y-77850500D01*
X244127558Y-77750505D01*
X244127554Y-77750500D01*
X243999499Y-77622445D01*
X243999494Y-77622441D01*
X243852997Y-77516006D01*
X243852996Y-77516005D01*
X243852994Y-77516004D01*
X243801300Y-77489664D01*
X243691639Y-77433788D01*
X243691636Y-77433787D01*
X243519410Y-77377829D01*
X243340551Y-77349500D01*
X243340546Y-77349500D01*
X243159454Y-77349500D01*
X243159449Y-77349500D01*
X242980589Y-77377829D01*
X242808363Y-77433787D01*
X242808360Y-77433788D01*
X242647002Y-77516006D01*
X242500505Y-77622441D01*
X242500500Y-77622445D01*
X242372445Y-77750500D01*
X242372441Y-77750505D01*
X242266006Y-77897002D01*
X242183788Y-78058360D01*
X242183787Y-78058363D01*
X242127829Y-78230589D01*
X242099500Y-78409448D01*
X224799959Y-78409448D01*
X224817246Y-78356243D01*
X224850500Y-78146287D01*
X224850500Y-77933713D01*
X224817246Y-77723757D01*
X224751557Y-77521588D01*
X224655051Y-77332184D01*
X224655049Y-77332181D01*
X224655048Y-77332179D01*
X224530109Y-77160213D01*
X224416569Y-77046673D01*
X224383084Y-76985350D01*
X224388068Y-76915658D01*
X224429940Y-76859725D01*
X224460915Y-76842810D01*
X224592331Y-76793796D01*
X224707546Y-76707546D01*
X224793796Y-76592331D01*
X224844091Y-76457483D01*
X224850500Y-76397873D01*
X224850499Y-74602128D01*
X224844091Y-74542517D01*
X224836621Y-74522490D01*
X224793797Y-74407671D01*
X224793793Y-74407664D01*
X224707547Y-74292455D01*
X224707544Y-74292452D01*
X224592335Y-74206206D01*
X224592328Y-74206202D01*
X224457482Y-74155908D01*
X224457483Y-74155908D01*
X224397883Y-74149501D01*
X224397881Y-74149500D01*
X224397873Y-74149500D01*
X224397864Y-74149500D01*
X222602129Y-74149500D01*
X222602123Y-74149501D01*
X222542516Y-74155908D01*
X222407671Y-74206202D01*
X222407664Y-74206206D01*
X222292455Y-74292452D01*
X222292452Y-74292455D01*
X222206206Y-74407664D01*
X222206202Y-74407671D01*
X222155908Y-74542517D01*
X222149501Y-74602116D01*
X222149501Y-74602123D01*
X222149500Y-74602135D01*
X217764145Y-74602135D01*
X217722154Y-74472899D01*
X217705220Y-74420781D01*
X217705218Y-74420778D01*
X217705218Y-74420776D01*
X217671503Y-74354607D01*
X217612287Y-74238390D01*
X217596810Y-74217087D01*
X217491971Y-74072786D01*
X217347213Y-73928028D01*
X217181613Y-73807715D01*
X217181612Y-73807714D01*
X217181610Y-73807713D01*
X217124653Y-73778691D01*
X216999223Y-73714781D01*
X216804534Y-73651522D01*
X216629995Y-73623878D01*
X216602352Y-73619500D01*
X216397648Y-73619500D01*
X216373329Y-73623351D01*
X216195465Y-73651522D01*
X216000776Y-73714781D01*
X215818386Y-73807715D01*
X215652786Y-73928028D01*
X215508028Y-74072786D01*
X215387715Y-74238386D01*
X215294781Y-74420776D01*
X215231522Y-74615465D01*
X215199500Y-74817648D01*
X207800500Y-74817648D01*
X207768477Y-74615466D01*
X207767420Y-74612214D01*
X207722154Y-74472899D01*
X207705220Y-74420781D01*
X207705218Y-74420778D01*
X207705218Y-74420776D01*
X207671503Y-74354607D01*
X207612287Y-74238390D01*
X207596810Y-74217087D01*
X207491971Y-74072786D01*
X207347213Y-73928028D01*
X207181613Y-73807715D01*
X207181612Y-73807714D01*
X207181610Y-73807713D01*
X207124653Y-73778691D01*
X206999223Y-73714781D01*
X206804534Y-73651522D01*
X206629995Y-73623878D01*
X206602352Y-73619500D01*
X206397648Y-73619500D01*
X206373329Y-73623351D01*
X206195465Y-73651522D01*
X206000776Y-73714781D01*
X205818386Y-73807715D01*
X205652786Y-73928028D01*
X205508028Y-74072786D01*
X205387715Y-74238386D01*
X205294781Y-74420776D01*
X205231522Y-74615465D01*
X205199500Y-74817648D01*
X199300500Y-74817648D01*
X199268477Y-74615466D01*
X199267420Y-74612214D01*
X199222154Y-74472899D01*
X199205220Y-74420781D01*
X199205218Y-74420778D01*
X199205218Y-74420776D01*
X199171503Y-74354607D01*
X199112287Y-74238390D01*
X199096810Y-74217087D01*
X198991971Y-74072786D01*
X198847213Y-73928028D01*
X198681613Y-73807715D01*
X198681612Y-73807714D01*
X198681610Y-73807713D01*
X198624653Y-73778691D01*
X198499223Y-73714781D01*
X198304534Y-73651522D01*
X198129995Y-73623878D01*
X198102352Y-73619500D01*
X197897648Y-73619500D01*
X197873329Y-73623351D01*
X197695465Y-73651522D01*
X197500776Y-73714781D01*
X197318386Y-73807715D01*
X197152786Y-73928028D01*
X197008028Y-74072786D01*
X196887715Y-74238386D01*
X196794781Y-74420776D01*
X196731522Y-74615465D01*
X196699500Y-74817648D01*
X187000499Y-74817648D01*
X187000499Y-74452128D01*
X186994091Y-74392517D01*
X186980278Y-74355483D01*
X186943797Y-74257671D01*
X186943793Y-74257664D01*
X186857547Y-74142455D01*
X186857544Y-74142452D01*
X186742335Y-74056206D01*
X186742328Y-74056202D01*
X186607482Y-74005908D01*
X186607483Y-74005908D01*
X186547883Y-73999501D01*
X186547881Y-73999500D01*
X186547873Y-73999500D01*
X186547864Y-73999500D01*
X184452129Y-73999500D01*
X184452123Y-73999501D01*
X184392516Y-74005908D01*
X184257671Y-74056202D01*
X184257664Y-74056206D01*
X184142455Y-74142452D01*
X184054009Y-74260599D01*
X183998075Y-74302469D01*
X183928383Y-74307453D01*
X183881858Y-74286605D01*
X183786174Y-74217087D01*
X183575802Y-74109897D01*
X183351247Y-74036934D01*
X183351248Y-74036934D01*
X183118052Y-74000000D01*
X182881948Y-74000000D01*
X182648752Y-74036934D01*
X182424197Y-74109897D01*
X182213830Y-74217084D01*
X182130894Y-74277340D01*
X182870591Y-75017037D01*
X182807007Y-75034075D01*
X182692993Y-75099901D01*
X182599901Y-75192993D01*
X182534075Y-75307007D01*
X182517037Y-75370590D01*
X181771810Y-74625363D01*
X181757862Y-74621577D01*
X181727052Y-74615105D01*
X181723361Y-74612214D01*
X181720824Y-74611526D01*
X181711673Y-74603060D01*
X181693680Y-74588968D01*
X181689264Y-74584079D01*
X181644517Y-74522490D01*
X181477510Y-74355483D01*
X181286433Y-74216657D01*
X181265914Y-74206202D01*
X181075996Y-74109433D01*
X180851368Y-74036446D01*
X180618097Y-73999500D01*
X180618092Y-73999500D01*
X180381908Y-73999500D01*
X180381903Y-73999500D01*
X180148631Y-74036446D01*
X179924003Y-74109433D01*
X179713566Y-74216657D01*
X179657119Y-74257669D01*
X179522490Y-74355483D01*
X179522488Y-74355485D01*
X179522487Y-74355485D01*
X179355485Y-74522487D01*
X179355485Y-74522488D01*
X179355483Y-74522490D01*
X179307184Y-74588968D01*
X179216657Y-74713566D01*
X179109433Y-74924003D01*
X179036446Y-75148631D01*
X178999500Y-75381902D01*
X178999500Y-75618097D01*
X179036447Y-75851369D01*
X179036447Y-75851372D01*
X179042768Y-75870824D01*
X179044763Y-75940665D01*
X179012518Y-75996823D01*
X173265162Y-81744181D01*
X173203839Y-81777666D01*
X173177481Y-81780500D01*
X171615476Y-81780500D01*
X171548437Y-81760815D01*
X171502682Y-81708011D01*
X171492738Y-81638853D01*
X171497545Y-81618183D01*
X171508475Y-81584542D01*
X171508475Y-81584538D01*
X171508477Y-81584534D01*
X171540500Y-81382352D01*
X171540500Y-81177648D01*
X171508477Y-80975466D01*
X171502218Y-80956204D01*
X171477398Y-80879815D01*
X171445220Y-80780781D01*
X171445218Y-80780778D01*
X171445218Y-80780776D01*
X171397072Y-80686286D01*
X171352287Y-80598390D01*
X171333928Y-80573121D01*
X171310451Y-80507316D01*
X171326278Y-80439262D01*
X171346564Y-80412562D01*
X181328309Y-70430819D01*
X181389632Y-70397334D01*
X181415990Y-70394500D01*
X181966953Y-70394500D01*
X182033992Y-70414185D01*
X182079747Y-70466989D01*
X182089691Y-70536147D01*
X182060666Y-70599703D01*
X182054634Y-70606181D01*
X182008032Y-70652782D01*
X182008028Y-70652786D01*
X181887715Y-70818386D01*
X181794781Y-71000776D01*
X181731522Y-71195465D01*
X181699500Y-71397648D01*
X181699500Y-71602351D01*
X181731522Y-71804534D01*
X181794781Y-71999223D01*
X181852230Y-72111971D01*
X181887585Y-72181359D01*
X181887715Y-72181613D01*
X182008028Y-72347213D01*
X182152786Y-72491971D01*
X182273226Y-72579474D01*
X182318390Y-72612287D01*
X182434607Y-72671503D01*
X182500776Y-72705218D01*
X182500778Y-72705218D01*
X182500781Y-72705220D01*
X182605137Y-72739127D01*
X182695465Y-72768477D01*
X182796557Y-72784488D01*
X182897648Y-72800500D01*
X182897649Y-72800500D01*
X183102351Y-72800500D01*
X183102352Y-72800500D01*
X183304534Y-72768477D01*
X183499219Y-72705220D01*
X183681610Y-72612287D01*
X183795251Y-72529723D01*
X183847213Y-72491971D01*
X183847215Y-72491968D01*
X183847219Y-72491966D01*
X183991966Y-72347219D01*
X183991968Y-72347215D01*
X183991971Y-72347213D01*
X184075470Y-72232284D01*
X184112287Y-72181610D01*
X184139515Y-72128171D01*
X184187490Y-72077376D01*
X184255311Y-72060581D01*
X184321446Y-72083118D01*
X184360484Y-72128171D01*
X184387585Y-72181359D01*
X184387715Y-72181613D01*
X184508028Y-72347213D01*
X184652786Y-72491971D01*
X184773226Y-72579474D01*
X184818390Y-72612287D01*
X184934607Y-72671503D01*
X185000776Y-72705218D01*
X185000778Y-72705218D01*
X185000781Y-72705220D01*
X185105137Y-72739127D01*
X185195465Y-72768477D01*
X185296557Y-72784488D01*
X185397648Y-72800500D01*
X185397649Y-72800500D01*
X185602351Y-72800500D01*
X185602352Y-72800500D01*
X185804534Y-72768477D01*
X185999219Y-72705220D01*
X186181610Y-72612287D01*
X186295251Y-72529723D01*
X186347213Y-72491971D01*
X186347215Y-72491968D01*
X186347219Y-72491966D01*
X186491966Y-72347219D01*
X186491968Y-72347215D01*
X186491971Y-72347213D01*
X186575470Y-72232284D01*
X186612287Y-72181610D01*
X186705220Y-71999219D01*
X186768477Y-71804534D01*
X186800500Y-71602352D01*
X186800500Y-71397648D01*
X186780030Y-71268409D01*
X186768477Y-71195465D01*
X186712264Y-71022460D01*
X186705220Y-71000781D01*
X186705218Y-71000778D01*
X186705218Y-71000776D01*
X186612419Y-70818650D01*
X186612287Y-70818390D01*
X186580092Y-70774077D01*
X186491971Y-70652786D01*
X186445366Y-70606181D01*
X186411881Y-70544858D01*
X186416865Y-70475166D01*
X186458737Y-70419233D01*
X186524201Y-70394816D01*
X186533047Y-70394500D01*
X194696691Y-70394500D01*
X194763730Y-70414185D01*
X194784372Y-70430819D01*
X195453554Y-71100000D01*
X195447339Y-71100000D01*
X195345606Y-71127259D01*
X195254394Y-71179920D01*
X195179920Y-71254394D01*
X195127259Y-71345606D01*
X195100000Y-71447339D01*
X195100000Y-71453553D01*
X194420524Y-70774077D01*
X194420523Y-70774077D01*
X194388143Y-70818644D01*
X194295244Y-71000968D01*
X194232009Y-71195582D01*
X194200000Y-71397682D01*
X194200000Y-71602317D01*
X194232009Y-71804417D01*
X194295244Y-71999031D01*
X194388141Y-72181350D01*
X194388147Y-72181359D01*
X194420523Y-72225921D01*
X194420524Y-72225922D01*
X195100000Y-71546446D01*
X195100000Y-71552661D01*
X195127259Y-71654394D01*
X195179920Y-71745606D01*
X195254394Y-71820080D01*
X195345606Y-71872741D01*
X195447339Y-71900000D01*
X195453553Y-71900000D01*
X194774076Y-72579474D01*
X194818650Y-72611859D01*
X195000968Y-72704755D01*
X195195582Y-72767990D01*
X195397683Y-72800000D01*
X195602317Y-72800000D01*
X195804417Y-72767990D01*
X195999031Y-72704755D01*
X196181349Y-72611859D01*
X196225921Y-72579474D01*
X195546447Y-71900000D01*
X195552661Y-71900000D01*
X195654394Y-71872741D01*
X195745606Y-71820080D01*
X195820080Y-71745606D01*
X195872741Y-71654394D01*
X195900000Y-71552661D01*
X195900000Y-71546447D01*
X196579474Y-72225921D01*
X196611859Y-72181349D01*
X196704755Y-71999031D01*
X196767990Y-71804417D01*
X196800000Y-71602317D01*
X196800000Y-71397682D01*
X196767990Y-71195582D01*
X196704755Y-71000968D01*
X196611859Y-70818650D01*
X196579474Y-70774077D01*
X196579474Y-70774076D01*
X195900000Y-71453551D01*
X195900000Y-71447339D01*
X195872741Y-71345606D01*
X195820080Y-71254394D01*
X195745606Y-71179920D01*
X195654394Y-71127259D01*
X195552661Y-71100000D01*
X195546446Y-71100000D01*
X196215628Y-70430819D01*
X196276951Y-70397334D01*
X196303309Y-70394500D01*
X229852481Y-70394500D01*
X229919520Y-70414185D01*
X229940162Y-70430819D01*
X235200342Y-75690999D01*
X235233827Y-75752322D01*
X235228843Y-75822014D01*
X235223146Y-75834975D01*
X235148444Y-75981585D01*
X235082753Y-76183760D01*
X235063970Y-76302351D01*
X235049500Y-76393713D01*
X235049500Y-76606287D01*
X235054393Y-76637181D01*
X235079198Y-76793796D01*
X235082754Y-76816243D01*
X235142622Y-77000498D01*
X235148444Y-77018414D01*
X235244951Y-77207820D01*
X235369890Y-77379786D01*
X235520213Y-77530109D01*
X235692179Y-77655048D01*
X235692181Y-77655049D01*
X235692184Y-77655051D01*
X235881588Y-77751557D01*
X236083757Y-77817246D01*
X236293713Y-77850500D01*
X236293714Y-77850500D01*
X237706286Y-77850500D01*
X237706287Y-77850500D01*
X237916243Y-77817246D01*
X238118412Y-77751557D01*
X238307816Y-77655051D01*
X238410448Y-77580485D01*
X238479786Y-77530109D01*
X238479788Y-77530106D01*
X238479792Y-77530104D01*
X238630104Y-77379792D01*
X238630106Y-77379788D01*
X238630109Y-77379786D01*
X238755048Y-77207820D01*
X238755047Y-77207820D01*
X238755051Y-77207816D01*
X238851557Y-77018412D01*
X238917246Y-76816243D01*
X238950500Y-76606287D01*
X238950500Y-76393713D01*
X247549500Y-76393713D01*
X247549500Y-76606287D01*
X247554393Y-76637181D01*
X247579198Y-76793796D01*
X247582754Y-76816243D01*
X247642622Y-77000498D01*
X247648444Y-77018414D01*
X247744951Y-77207820D01*
X247869890Y-77379786D01*
X248020213Y-77530109D01*
X248192179Y-77655048D01*
X248192181Y-77655049D01*
X248192184Y-77655051D01*
X248381588Y-77751557D01*
X248583757Y-77817246D01*
X248793713Y-77850500D01*
X248793714Y-77850500D01*
X250206286Y-77850500D01*
X250206287Y-77850500D01*
X250416243Y-77817246D01*
X250618412Y-77751557D01*
X250807816Y-77655051D01*
X250910448Y-77580485D01*
X250979786Y-77530109D01*
X250979788Y-77530106D01*
X250979792Y-77530104D01*
X251130104Y-77379792D01*
X251130106Y-77379788D01*
X251130109Y-77379786D01*
X251255048Y-77207820D01*
X251255047Y-77207820D01*
X251255051Y-77207816D01*
X251351557Y-77018412D01*
X251417246Y-76816243D01*
X251450500Y-76606287D01*
X251450500Y-76393713D01*
X251417246Y-76183757D01*
X251351557Y-75981588D01*
X251255051Y-75792184D01*
X251255049Y-75792181D01*
X251255048Y-75792179D01*
X251130109Y-75620213D01*
X250979786Y-75469890D01*
X250807820Y-75344951D01*
X250618414Y-75248444D01*
X250618413Y-75248443D01*
X250618412Y-75248443D01*
X250416243Y-75182754D01*
X250416241Y-75182753D01*
X250416240Y-75182753D01*
X250254957Y-75157208D01*
X250206287Y-75149500D01*
X248793713Y-75149500D01*
X248745042Y-75157208D01*
X248583760Y-75182753D01*
X248381585Y-75248444D01*
X248192179Y-75344951D01*
X248020213Y-75469890D01*
X247869890Y-75620213D01*
X247744951Y-75792179D01*
X247648444Y-75981585D01*
X247582753Y-76183760D01*
X247563970Y-76302351D01*
X247549500Y-76393713D01*
X238950500Y-76393713D01*
X238917246Y-76183757D01*
X238851557Y-75981588D01*
X238755051Y-75792184D01*
X238755049Y-75792181D01*
X238755048Y-75792179D01*
X238630109Y-75620213D01*
X238479786Y-75469890D01*
X238307820Y-75344951D01*
X238118414Y-75248444D01*
X238118413Y-75248443D01*
X238118412Y-75248443D01*
X237916243Y-75182754D01*
X237916241Y-75182753D01*
X237916240Y-75182753D01*
X237754957Y-75157208D01*
X237706287Y-75149500D01*
X237706286Y-75149500D01*
X236691519Y-75149500D01*
X236624480Y-75129815D01*
X236603838Y-75113181D01*
X233291275Y-71800617D01*
X232740658Y-71250000D01*
X235072769Y-71250000D01*
X236451518Y-71250000D01*
X236440889Y-71268409D01*
X236400000Y-71421009D01*
X236400000Y-71578991D01*
X236440889Y-71731591D01*
X236451518Y-71750000D01*
X235072769Y-71750000D01*
X235083242Y-71816126D01*
X235083242Y-71816129D01*
X235148904Y-72018217D01*
X235245379Y-72207557D01*
X235370272Y-72379459D01*
X235370276Y-72379464D01*
X235520535Y-72529723D01*
X235520540Y-72529727D01*
X235692442Y-72654620D01*
X235881782Y-72751095D01*
X236083870Y-72816757D01*
X236293754Y-72850000D01*
X236750000Y-72850000D01*
X236750000Y-72048482D01*
X236768409Y-72059111D01*
X236921009Y-72100000D01*
X237078991Y-72100000D01*
X237231591Y-72059111D01*
X237250000Y-72048482D01*
X237250000Y-72850000D01*
X237706246Y-72850000D01*
X237916127Y-72816757D01*
X237916130Y-72816757D01*
X238118217Y-72751095D01*
X238307557Y-72654620D01*
X238479459Y-72529727D01*
X238479464Y-72529723D01*
X238629723Y-72379464D01*
X238629727Y-72379459D01*
X238754620Y-72207557D01*
X238851095Y-72018217D01*
X238916757Y-71816129D01*
X238916757Y-71816126D01*
X238927231Y-71750000D01*
X237548482Y-71750000D01*
X237559111Y-71731591D01*
X237600000Y-71578991D01*
X237600000Y-71421009D01*
X237559111Y-71268409D01*
X237548482Y-71250000D01*
X238927231Y-71250000D01*
X247572769Y-71250000D01*
X248951518Y-71250000D01*
X248940889Y-71268409D01*
X248900000Y-71421009D01*
X248900000Y-71578991D01*
X248940889Y-71731591D01*
X248951518Y-71750000D01*
X247572769Y-71750000D01*
X247583242Y-71816126D01*
X247583242Y-71816129D01*
X247648904Y-72018217D01*
X247745379Y-72207557D01*
X247870272Y-72379459D01*
X247870276Y-72379464D01*
X248020535Y-72529723D01*
X248020540Y-72529727D01*
X248192442Y-72654620D01*
X248381782Y-72751095D01*
X248583870Y-72816757D01*
X248793754Y-72850000D01*
X249250000Y-72850000D01*
X249250000Y-72048482D01*
X249268409Y-72059111D01*
X249421009Y-72100000D01*
X249578991Y-72100000D01*
X249731591Y-72059111D01*
X249750000Y-72048482D01*
X249750000Y-72850000D01*
X250206246Y-72850000D01*
X250416127Y-72816757D01*
X250416130Y-72816757D01*
X250618217Y-72751095D01*
X250807557Y-72654620D01*
X250979459Y-72529727D01*
X250979464Y-72529723D01*
X251129723Y-72379464D01*
X251129727Y-72379459D01*
X251254620Y-72207557D01*
X251351095Y-72018217D01*
X251416757Y-71816129D01*
X251416757Y-71816126D01*
X251427231Y-71750000D01*
X250048482Y-71750000D01*
X250059111Y-71731591D01*
X250100000Y-71578991D01*
X250100000Y-71421009D01*
X250059111Y-71268409D01*
X250048482Y-71250000D01*
X251427231Y-71250000D01*
X251416757Y-71183873D01*
X251416757Y-71183870D01*
X251351095Y-70981782D01*
X251254620Y-70792442D01*
X251129727Y-70620540D01*
X251129723Y-70620535D01*
X250979464Y-70470276D01*
X250979459Y-70470272D01*
X250807557Y-70345379D01*
X250618217Y-70248904D01*
X250416129Y-70183242D01*
X250206246Y-70150000D01*
X249750000Y-70150000D01*
X249750000Y-70951517D01*
X249731591Y-70940889D01*
X249578991Y-70900000D01*
X249421009Y-70900000D01*
X249268409Y-70940889D01*
X249250000Y-70951517D01*
X249250000Y-70150000D01*
X248793754Y-70150000D01*
X248583872Y-70183242D01*
X248583869Y-70183242D01*
X248381782Y-70248904D01*
X248192442Y-70345379D01*
X248020540Y-70470272D01*
X248020535Y-70470276D01*
X247870276Y-70620535D01*
X247870272Y-70620540D01*
X247745379Y-70792442D01*
X247648904Y-70981782D01*
X247583242Y-71183870D01*
X247583242Y-71183873D01*
X247572769Y-71250000D01*
X238927231Y-71250000D01*
X238916757Y-71183873D01*
X238916757Y-71183870D01*
X238851095Y-70981782D01*
X238754620Y-70792442D01*
X238629727Y-70620540D01*
X238629723Y-70620535D01*
X238479464Y-70470276D01*
X238479459Y-70470272D01*
X238307557Y-70345379D01*
X238118217Y-70248904D01*
X237916129Y-70183242D01*
X237706246Y-70150000D01*
X237250000Y-70150000D01*
X237250000Y-70951517D01*
X237231591Y-70940889D01*
X237078991Y-70900000D01*
X236921009Y-70900000D01*
X236768409Y-70940889D01*
X236750000Y-70951517D01*
X236750000Y-70150000D01*
X236293754Y-70150000D01*
X236083872Y-70183242D01*
X236083869Y-70183242D01*
X235881782Y-70248904D01*
X235692442Y-70345379D01*
X235520540Y-70470272D01*
X235520535Y-70470276D01*
X235370276Y-70620535D01*
X235370272Y-70620540D01*
X235245379Y-70792442D01*
X235148904Y-70981782D01*
X235083242Y-71183870D01*
X235083242Y-71183873D01*
X235072769Y-71250000D01*
X232740658Y-71250000D01*
X231636986Y-70146328D01*
X231603501Y-70085005D01*
X231608485Y-70015313D01*
X231650357Y-69959380D01*
X231715821Y-69934963D01*
X231744061Y-69936173D01*
X231897648Y-69960500D01*
X231897649Y-69960500D01*
X232102351Y-69960500D01*
X232102352Y-69960500D01*
X232304534Y-69928477D01*
X232499219Y-69865220D01*
X232681610Y-69772287D01*
X232774590Y-69704732D01*
X232847213Y-69651971D01*
X232847215Y-69651968D01*
X232847219Y-69651966D01*
X232991966Y-69507219D01*
X232991968Y-69507215D01*
X232991971Y-69507213D01*
X233063000Y-69409448D01*
X242099500Y-69409448D01*
X242099500Y-69590551D01*
X242127829Y-69769410D01*
X242183787Y-69941636D01*
X242183788Y-69941639D01*
X242266006Y-70102997D01*
X242372441Y-70249494D01*
X242372445Y-70249499D01*
X242500500Y-70377554D01*
X242500505Y-70377558D01*
X242584229Y-70438386D01*
X242647006Y-70483996D01*
X242752484Y-70537740D01*
X242808360Y-70566211D01*
X242808363Y-70566212D01*
X242894476Y-70594191D01*
X242980591Y-70622171D01*
X243063429Y-70635291D01*
X243159449Y-70650500D01*
X243159454Y-70650500D01*
X243340551Y-70650500D01*
X243427259Y-70636765D01*
X243519409Y-70622171D01*
X243691639Y-70566211D01*
X243852994Y-70483996D01*
X243999501Y-70377553D01*
X244127553Y-70249501D01*
X244233996Y-70102994D01*
X244316211Y-69941639D01*
X244372171Y-69769409D01*
X244386765Y-69677259D01*
X244400500Y-69590551D01*
X244400500Y-69409448D01*
X244377084Y-69261610D01*
X244372171Y-69230591D01*
X244323993Y-69082311D01*
X244316212Y-69058363D01*
X244316211Y-69058360D01*
X244265998Y-68959813D01*
X244233996Y-68897006D01*
X244155015Y-68788297D01*
X244127558Y-68750505D01*
X244127554Y-68750500D01*
X243999499Y-68622445D01*
X243999494Y-68622441D01*
X243852997Y-68516006D01*
X243852996Y-68516005D01*
X243852994Y-68516004D01*
X243777717Y-68477648D01*
X243691639Y-68433788D01*
X243691636Y-68433787D01*
X243519410Y-68377829D01*
X243340551Y-68349500D01*
X243340546Y-68349500D01*
X243159454Y-68349500D01*
X243159449Y-68349500D01*
X242980589Y-68377829D01*
X242808363Y-68433787D01*
X242808360Y-68433788D01*
X242647002Y-68516006D01*
X242500505Y-68622441D01*
X242500500Y-68622445D01*
X242372445Y-68750500D01*
X242372441Y-68750505D01*
X242266006Y-68897002D01*
X242183788Y-69058360D01*
X242183787Y-69058363D01*
X242127829Y-69230589D01*
X242099500Y-69409448D01*
X233063000Y-69409448D01*
X233084987Y-69379185D01*
X233112287Y-69341610D01*
X233205220Y-69159219D01*
X233268477Y-68964534D01*
X233300500Y-68762352D01*
X233300500Y-68557648D01*
X233268477Y-68355466D01*
X233242480Y-68275457D01*
X233224834Y-68221147D01*
X233205220Y-68160781D01*
X233205218Y-68160778D01*
X233205218Y-68160776D01*
X233129974Y-68013103D01*
X233112287Y-67978390D01*
X233098715Y-67959709D01*
X232991971Y-67812786D01*
X232847213Y-67668028D01*
X232681613Y-67547715D01*
X232681612Y-67547714D01*
X232681610Y-67547713D01*
X232624653Y-67518691D01*
X232499223Y-67454781D01*
X232304534Y-67391522D01*
X232129995Y-67363878D01*
X232102352Y-67359500D01*
X231897648Y-67359500D01*
X231873329Y-67363351D01*
X231695465Y-67391522D01*
X231500776Y-67454781D01*
X231318386Y-67547715D01*
X231152786Y-67668028D01*
X231008028Y-67812786D01*
X230887715Y-67978386D01*
X230794781Y-68160776D01*
X230731522Y-68355465D01*
X230699500Y-68557648D01*
X230699500Y-68762352D01*
X230699499Y-68762352D01*
X230730774Y-68959813D01*
X230721819Y-69029106D01*
X230676823Y-69082558D01*
X230610071Y-69103197D01*
X230542758Y-69084472D01*
X230539409Y-69082311D01*
X230525809Y-69073223D01*
X230398332Y-69020421D01*
X230398322Y-69020418D01*
X230262996Y-68993500D01*
X230262994Y-68993500D01*
X230262993Y-68993500D01*
X210296519Y-68993500D01*
X210229480Y-68973815D01*
X210183725Y-68921011D01*
X210173781Y-68851853D01*
X210202806Y-68788297D01*
X210208838Y-68781819D01*
X213108141Y-65882516D01*
X216141039Y-62849617D01*
X216202360Y-62816134D01*
X216272052Y-62821118D01*
X216327985Y-62862990D01*
X216352402Y-62928454D01*
X216339203Y-62993595D01*
X216294782Y-63080776D01*
X216294781Y-63080778D01*
X216294780Y-63080781D01*
X216288590Y-63099833D01*
X216231522Y-63275465D01*
X216199500Y-63477648D01*
X216199500Y-63682351D01*
X216231522Y-63884534D01*
X216294781Y-64079223D01*
X216334354Y-64156888D01*
X216384068Y-64254457D01*
X216387715Y-64261613D01*
X216508028Y-64427213D01*
X216652786Y-64571971D01*
X216807749Y-64684556D01*
X216818390Y-64692287D01*
X216934607Y-64751503D01*
X217000776Y-64785218D01*
X217000778Y-64785218D01*
X217000781Y-64785220D01*
X217105137Y-64819127D01*
X217195465Y-64848477D01*
X217296557Y-64864488D01*
X217397648Y-64880500D01*
X217397649Y-64880500D01*
X217602351Y-64880500D01*
X217602352Y-64880500D01*
X217804534Y-64848477D01*
X217999219Y-64785220D01*
X218181610Y-64692287D01*
X218274590Y-64624732D01*
X218347213Y-64571971D01*
X218347215Y-64571968D01*
X218347219Y-64571966D01*
X218491966Y-64427219D01*
X218491968Y-64427215D01*
X218491971Y-64427213D01*
X218605019Y-64271613D01*
X218612287Y-64261610D01*
X218705220Y-64079219D01*
X218768477Y-63884534D01*
X218800500Y-63682352D01*
X218800500Y-63477648D01*
X218768477Y-63275466D01*
X218742480Y-63195457D01*
X218711410Y-63099833D01*
X218705220Y-63080781D01*
X218705218Y-63080778D01*
X218705218Y-63080776D01*
X218664455Y-63000776D01*
X218612287Y-62898390D01*
X218576853Y-62849619D01*
X218491971Y-62732786D01*
X218347213Y-62588028D01*
X218181613Y-62467715D01*
X218181612Y-62467714D01*
X218181610Y-62467713D01*
X218111714Y-62432099D01*
X217999223Y-62374781D01*
X217804534Y-62311522D01*
X217629995Y-62283878D01*
X217602352Y-62279500D01*
X217397648Y-62279500D01*
X217382331Y-62281926D01*
X217195465Y-62311522D01*
X217043759Y-62360815D01*
X217000781Y-62374780D01*
X217000778Y-62374781D01*
X217000776Y-62374782D01*
X216913595Y-62419203D01*
X216844925Y-62432099D01*
X216780185Y-62405822D01*
X216739928Y-62348716D01*
X216736936Y-62278910D01*
X216769617Y-62221039D01*
X217581209Y-61409448D01*
X242099500Y-61409448D01*
X242099500Y-61590551D01*
X242127829Y-61769410D01*
X242183787Y-61941636D01*
X242183788Y-61941639D01*
X242189053Y-61951971D01*
X242250356Y-62072284D01*
X242266006Y-62102997D01*
X242372441Y-62249494D01*
X242372445Y-62249499D01*
X242500500Y-62377554D01*
X242500505Y-62377558D01*
X242624594Y-62467713D01*
X242647006Y-62483996D01*
X242752484Y-62537740D01*
X242808360Y-62566211D01*
X242808363Y-62566212D01*
X242875508Y-62588028D01*
X242980591Y-62622171D01*
X243063429Y-62635291D01*
X243159449Y-62650500D01*
X243159454Y-62650500D01*
X243340551Y-62650500D01*
X243427259Y-62636765D01*
X243519409Y-62622171D01*
X243691639Y-62566211D01*
X243852994Y-62483996D01*
X243999501Y-62377553D01*
X244127553Y-62249501D01*
X244233996Y-62102994D01*
X244316211Y-61941639D01*
X244372171Y-61769409D01*
X244391512Y-61647293D01*
X244400500Y-61590551D01*
X244400500Y-61409448D01*
X244383243Y-61300500D01*
X244372171Y-61230591D01*
X244317508Y-61062352D01*
X244316212Y-61058363D01*
X244316211Y-61058360D01*
X244282381Y-60991966D01*
X244233996Y-60897006D01*
X244197824Y-60847219D01*
X244127558Y-60750505D01*
X244127554Y-60750500D01*
X243999499Y-60622445D01*
X243999494Y-60622441D01*
X243852997Y-60516006D01*
X243852996Y-60516005D01*
X243852994Y-60516004D01*
X243801300Y-60489664D01*
X243691639Y-60433788D01*
X243691636Y-60433787D01*
X243519410Y-60377829D01*
X243340551Y-60349500D01*
X243340546Y-60349500D01*
X243159454Y-60349500D01*
X243159449Y-60349500D01*
X242980589Y-60377829D01*
X242808363Y-60433787D01*
X242808360Y-60433788D01*
X242647002Y-60516006D01*
X242500505Y-60622441D01*
X242500500Y-60622445D01*
X242372445Y-60750500D01*
X242372441Y-60750505D01*
X242266006Y-60897002D01*
X242183788Y-61058360D01*
X242183787Y-61058363D01*
X242127829Y-61230589D01*
X242099500Y-61409448D01*
X217581209Y-61409448D01*
X218253838Y-60736819D01*
X218315161Y-60703334D01*
X218341519Y-60700500D01*
X235751613Y-60700500D01*
X235807907Y-60714014D01*
X235881588Y-60751557D01*
X236083757Y-60817246D01*
X236293713Y-60850500D01*
X236293714Y-60850500D01*
X237706286Y-60850500D01*
X237706287Y-60850500D01*
X237916243Y-60817246D01*
X238118412Y-60751557D01*
X238307816Y-60655051D01*
X238352700Y-60622441D01*
X238479786Y-60530109D01*
X238479788Y-60530106D01*
X238479792Y-60530104D01*
X238630104Y-60379792D01*
X238630106Y-60379788D01*
X238630109Y-60379786D01*
X238755048Y-60207820D01*
X238755047Y-60207820D01*
X238755051Y-60207816D01*
X238851557Y-60018412D01*
X238917246Y-59816243D01*
X238950500Y-59606287D01*
X238950500Y-59393713D01*
X247549500Y-59393713D01*
X247549500Y-59606286D01*
X247563624Y-59695465D01*
X247582754Y-59816243D01*
X247632072Y-59968028D01*
X247648444Y-60018414D01*
X247744951Y-60207820D01*
X247869890Y-60379786D01*
X248020213Y-60530109D01*
X248192179Y-60655048D01*
X248192181Y-60655049D01*
X248192184Y-60655051D01*
X248381588Y-60751557D01*
X248583757Y-60817246D01*
X248793713Y-60850500D01*
X248793714Y-60850500D01*
X250206286Y-60850500D01*
X250206287Y-60850500D01*
X250416243Y-60817246D01*
X250618412Y-60751557D01*
X250807816Y-60655051D01*
X250852700Y-60622441D01*
X250979786Y-60530109D01*
X250979788Y-60530106D01*
X250979792Y-60530104D01*
X251130104Y-60379792D01*
X251130106Y-60379788D01*
X251130109Y-60379786D01*
X251255048Y-60207820D01*
X251255047Y-60207820D01*
X251255051Y-60207816D01*
X251351557Y-60018412D01*
X251417246Y-59816243D01*
X251450500Y-59606287D01*
X251450500Y-59393713D01*
X251417246Y-59183757D01*
X251351557Y-58981588D01*
X251255051Y-58792184D01*
X251255049Y-58792181D01*
X251255048Y-58792179D01*
X251130109Y-58620213D01*
X250979786Y-58469890D01*
X250807820Y-58344951D01*
X250618414Y-58248444D01*
X250618413Y-58248443D01*
X250618412Y-58248443D01*
X250416243Y-58182754D01*
X250416241Y-58182753D01*
X250416240Y-58182753D01*
X250254957Y-58157208D01*
X250206287Y-58149500D01*
X248793713Y-58149500D01*
X248745042Y-58157208D01*
X248583760Y-58182753D01*
X248381585Y-58248444D01*
X248192179Y-58344951D01*
X248020213Y-58469890D01*
X247869890Y-58620213D01*
X247744951Y-58792179D01*
X247648444Y-58981585D01*
X247582753Y-59183760D01*
X247549500Y-59393713D01*
X238950500Y-59393713D01*
X238917246Y-59183757D01*
X238851557Y-58981588D01*
X238755051Y-58792184D01*
X238755049Y-58792181D01*
X238755048Y-58792179D01*
X238630109Y-58620213D01*
X238479786Y-58469890D01*
X238307820Y-58344951D01*
X238118414Y-58248444D01*
X238118413Y-58248443D01*
X238118412Y-58248443D01*
X237916243Y-58182754D01*
X237916241Y-58182753D01*
X237916240Y-58182753D01*
X237754957Y-58157208D01*
X237706287Y-58149500D01*
X236293713Y-58149500D01*
X236245042Y-58157208D01*
X236083760Y-58182753D01*
X235881585Y-58248444D01*
X235692179Y-58344951D01*
X235520213Y-58469890D01*
X235369890Y-58620213D01*
X235244951Y-58792179D01*
X235148444Y-58981585D01*
X235082753Y-59183758D01*
X235080989Y-59194900D01*
X235051058Y-59258034D01*
X234991746Y-59294964D01*
X234958516Y-59299500D01*
X233254569Y-59299500D01*
X233187530Y-59279815D01*
X233141775Y-59227011D01*
X233131831Y-59157853D01*
X233144084Y-59119205D01*
X233205218Y-58999223D01*
X233205218Y-58999222D01*
X233205220Y-58999219D01*
X233268477Y-58804534D01*
X233300500Y-58602352D01*
X233300500Y-58397648D01*
X233268477Y-58195465D01*
X233205218Y-58000776D01*
X233164455Y-57920776D01*
X233112287Y-57818390D01*
X233099289Y-57800500D01*
X232991971Y-57652786D01*
X232847213Y-57508028D01*
X232681613Y-57387715D01*
X232681612Y-57387714D01*
X232681610Y-57387713D01*
X232624653Y-57358691D01*
X232499223Y-57294781D01*
X232304534Y-57231522D01*
X232129995Y-57203878D01*
X232102352Y-57199500D01*
X231897648Y-57199500D01*
X231873329Y-57203351D01*
X231695465Y-57231522D01*
X231500776Y-57294781D01*
X231318386Y-57387715D01*
X231152786Y-57508028D01*
X231008028Y-57652786D01*
X230887715Y-57818386D01*
X230794781Y-58000776D01*
X230731522Y-58195465D01*
X230699500Y-58397648D01*
X230699500Y-58602351D01*
X230731522Y-58804534D01*
X230794781Y-58999223D01*
X230855916Y-59119205D01*
X230868812Y-59187874D01*
X230842536Y-59252615D01*
X230785429Y-59292872D01*
X230745431Y-59299500D01*
X217931004Y-59299500D01*
X217795677Y-59326418D01*
X217795667Y-59326421D01*
X217668192Y-59379222D01*
X217553454Y-59455887D01*
X210710544Y-66298797D01*
X210649221Y-66332282D01*
X210579529Y-66327298D01*
X210523596Y-66285426D01*
X210511467Y-66264126D01*
X210511096Y-66264316D01*
X210448952Y-66142351D01*
X210419524Y-66084595D01*
X210303828Y-65925354D01*
X210164646Y-65786172D01*
X210005405Y-65670476D01*
X209830029Y-65581117D01*
X209642826Y-65520290D01*
X209448422Y-65489500D01*
X209448417Y-65489500D01*
X209251583Y-65489500D01*
X209251578Y-65489500D01*
X209057173Y-65520290D01*
X208869970Y-65581117D01*
X208694594Y-65670476D01*
X208605146Y-65735465D01*
X208535354Y-65786172D01*
X208535352Y-65786174D01*
X208535351Y-65786174D01*
X208396174Y-65925351D01*
X208396174Y-65925352D01*
X208396172Y-65925354D01*
X208346485Y-65993741D01*
X208280476Y-66084594D01*
X208190485Y-66261213D01*
X208142511Y-66312009D01*
X208074690Y-66328804D01*
X208008555Y-66306267D01*
X207969515Y-66261213D01*
X207908952Y-66142351D01*
X207879524Y-66084595D01*
X207763828Y-65925354D01*
X207624646Y-65786172D01*
X207465405Y-65670476D01*
X207290029Y-65581117D01*
X207102826Y-65520290D01*
X206908422Y-65489500D01*
X206908417Y-65489500D01*
X206711583Y-65489500D01*
X206711577Y-65489500D01*
X206634630Y-65501687D01*
X206565337Y-65492732D01*
X206527552Y-65466895D01*
X195306819Y-54246162D01*
X195273334Y-54184839D01*
X195270500Y-54158481D01*
X195270500Y-53317648D01*
X216199500Y-53317648D01*
X216199500Y-53522351D01*
X216231522Y-53724534D01*
X216294781Y-53919223D01*
X216346070Y-54019881D01*
X216383606Y-54093550D01*
X216387715Y-54101613D01*
X216508028Y-54267213D01*
X216652786Y-54411971D01*
X216807749Y-54524556D01*
X216818390Y-54532287D01*
X216910052Y-54578991D01*
X217000776Y-54625218D01*
X217000778Y-54625218D01*
X217000781Y-54625220D01*
X217026000Y-54633414D01*
X217195465Y-54688477D01*
X217295506Y-54704322D01*
X217397648Y-54720500D01*
X217397649Y-54720500D01*
X217602351Y-54720500D01*
X217602352Y-54720500D01*
X217804534Y-54688477D01*
X217999219Y-54625220D01*
X218181610Y-54532287D01*
X218274590Y-54464732D01*
X218347213Y-54411971D01*
X218347215Y-54411968D01*
X218347219Y-54411966D01*
X218491966Y-54267219D01*
X218491968Y-54267215D01*
X218491971Y-54267213D01*
X218570968Y-54158481D01*
X218612287Y-54101610D01*
X218705220Y-53919219D01*
X218768477Y-53724534D01*
X218800500Y-53522352D01*
X218800500Y-53317648D01*
X218784580Y-53217135D01*
X219874500Y-53217135D01*
X219874500Y-55012870D01*
X219874501Y-55012876D01*
X219880908Y-55072483D01*
X219931202Y-55207328D01*
X219931206Y-55207335D01*
X220017452Y-55322544D01*
X220017455Y-55322547D01*
X220132664Y-55408793D01*
X220132671Y-55408797D01*
X220267517Y-55459091D01*
X220267516Y-55459091D01*
X220274444Y-55459835D01*
X220327127Y-55465500D01*
X222122872Y-55465499D01*
X222182483Y-55459091D01*
X222317331Y-55408796D01*
X222432546Y-55322546D01*
X222518796Y-55207331D01*
X222567810Y-55075916D01*
X222609681Y-55019984D01*
X222675145Y-54995566D01*
X222743418Y-55010417D01*
X222771673Y-55031569D01*
X222885213Y-55145109D01*
X223057179Y-55270048D01*
X223057181Y-55270049D01*
X223057184Y-55270051D01*
X223246588Y-55366557D01*
X223448757Y-55432246D01*
X223658713Y-55465500D01*
X223658714Y-55465500D01*
X223871286Y-55465500D01*
X223871287Y-55465500D01*
X224081243Y-55432246D01*
X224283412Y-55366557D01*
X224472816Y-55270051D01*
X224525847Y-55231522D01*
X224644786Y-55145109D01*
X224644788Y-55145106D01*
X224644792Y-55145104D01*
X224795104Y-54994792D01*
X224795106Y-54994788D01*
X224795109Y-54994786D01*
X224920048Y-54822820D01*
X224920047Y-54822820D01*
X224920051Y-54822816D01*
X225016557Y-54633412D01*
X225082246Y-54431243D01*
X225115500Y-54221287D01*
X225115500Y-54008713D01*
X225082246Y-53798757D01*
X225016557Y-53596588D01*
X224920051Y-53407184D01*
X224920049Y-53407181D01*
X224920048Y-53407179D01*
X224795109Y-53235213D01*
X224644792Y-53084896D01*
X224559136Y-53022664D01*
X224507604Y-52985224D01*
X224507603Y-52985222D01*
X224472819Y-52959951D01*
X224472818Y-52959950D01*
X224472816Y-52959949D01*
X224335097Y-52889778D01*
X230599500Y-52889778D01*
X230599500Y-53110222D01*
X230600331Y-53115466D01*
X230633985Y-53327952D01*
X230702103Y-53537603D01*
X230702104Y-53537606D01*
X230732158Y-53596588D01*
X230775479Y-53681610D01*
X230802187Y-53734025D01*
X230931752Y-53912358D01*
X230931756Y-53912363D01*
X230981928Y-53962535D01*
X231015413Y-54023858D01*
X231010429Y-54093550D01*
X230968557Y-54149483D01*
X230937581Y-54166398D01*
X230857669Y-54196203D01*
X230857664Y-54196206D01*
X230742455Y-54282452D01*
X230742452Y-54282455D01*
X230656206Y-54397664D01*
X230656202Y-54397671D01*
X230605908Y-54532517D01*
X230599501Y-54592116D01*
X230599501Y-54592123D01*
X230599500Y-54592135D01*
X230599500Y-56487870D01*
X230599501Y-56487876D01*
X230605908Y-56547483D01*
X230656202Y-56682328D01*
X230656206Y-56682335D01*
X230742452Y-56797544D01*
X230742455Y-56797547D01*
X230857664Y-56883793D01*
X230857671Y-56883797D01*
X230992517Y-56934091D01*
X230992516Y-56934091D01*
X230999444Y-56934835D01*
X231052127Y-56940500D01*
X232947872Y-56940499D01*
X233007483Y-56934091D01*
X233142331Y-56883796D01*
X233257546Y-56797546D01*
X233343796Y-56682331D01*
X233394091Y-56547483D01*
X233400500Y-56487873D01*
X233400499Y-54592128D01*
X233394091Y-54532517D01*
X233394005Y-54532287D01*
X233343797Y-54397671D01*
X233343793Y-54397664D01*
X233316627Y-54361375D01*
X233257547Y-54282455D01*
X233257544Y-54282452D01*
X233214194Y-54250000D01*
X235072769Y-54250000D01*
X236451518Y-54250000D01*
X236440889Y-54268409D01*
X236400000Y-54421009D01*
X236400000Y-54578991D01*
X236440889Y-54731591D01*
X236451518Y-54750000D01*
X235072769Y-54750000D01*
X235083242Y-54816126D01*
X235083242Y-54816129D01*
X235148904Y-55018217D01*
X235245379Y-55207557D01*
X235370272Y-55379459D01*
X235370276Y-55379464D01*
X235520535Y-55529723D01*
X235520540Y-55529727D01*
X235692442Y-55654620D01*
X235881782Y-55751095D01*
X236083870Y-55816757D01*
X236293754Y-55850000D01*
X236750000Y-55850000D01*
X236750000Y-55048482D01*
X236768409Y-55059111D01*
X236921009Y-55100000D01*
X237078991Y-55100000D01*
X237231591Y-55059111D01*
X237250000Y-55048482D01*
X237250000Y-55850000D01*
X237706246Y-55850000D01*
X237916127Y-55816757D01*
X237916130Y-55816757D01*
X238118217Y-55751095D01*
X238307557Y-55654620D01*
X238479459Y-55529727D01*
X238479464Y-55529723D01*
X238629723Y-55379464D01*
X238629727Y-55379459D01*
X238754620Y-55207557D01*
X238851095Y-55018217D01*
X238916757Y-54816129D01*
X238916757Y-54816126D01*
X238927231Y-54750000D01*
X237548482Y-54750000D01*
X237559111Y-54731591D01*
X237600000Y-54578991D01*
X237600000Y-54421009D01*
X237559111Y-54268409D01*
X237548482Y-54250000D01*
X238927231Y-54250000D01*
X247572769Y-54250000D01*
X248951518Y-54250000D01*
X248940889Y-54268409D01*
X248900000Y-54421009D01*
X248900000Y-54578991D01*
X248940889Y-54731591D01*
X248951518Y-54750000D01*
X247572769Y-54750000D01*
X247583242Y-54816126D01*
X247583242Y-54816129D01*
X247648904Y-55018217D01*
X247745379Y-55207557D01*
X247870272Y-55379459D01*
X247870276Y-55379464D01*
X248020535Y-55529723D01*
X248020540Y-55529727D01*
X248192442Y-55654620D01*
X248381782Y-55751095D01*
X248583870Y-55816757D01*
X248793754Y-55850000D01*
X249250000Y-55850000D01*
X249250000Y-55048482D01*
X249268409Y-55059111D01*
X249421009Y-55100000D01*
X249578991Y-55100000D01*
X249731591Y-55059111D01*
X249750000Y-55048482D01*
X249750000Y-55850000D01*
X250206246Y-55850000D01*
X250416127Y-55816757D01*
X250416130Y-55816757D01*
X250618217Y-55751095D01*
X250807557Y-55654620D01*
X250979459Y-55529727D01*
X250979464Y-55529723D01*
X251129723Y-55379464D01*
X251129727Y-55379459D01*
X251254620Y-55207557D01*
X251351095Y-55018217D01*
X251416757Y-54816129D01*
X251416757Y-54816126D01*
X251427231Y-54750000D01*
X250048482Y-54750000D01*
X250059111Y-54731591D01*
X250100000Y-54578991D01*
X250100000Y-54421009D01*
X250059111Y-54268409D01*
X250048482Y-54250000D01*
X251427231Y-54250000D01*
X251416757Y-54183873D01*
X251416757Y-54183870D01*
X251351095Y-53981782D01*
X251254620Y-53792442D01*
X251129727Y-53620540D01*
X251129723Y-53620535D01*
X250979464Y-53470276D01*
X250979459Y-53470272D01*
X250807557Y-53345379D01*
X250618217Y-53248904D01*
X250416129Y-53183242D01*
X250206246Y-53150000D01*
X249750000Y-53150000D01*
X249750000Y-53951517D01*
X249731591Y-53940889D01*
X249578991Y-53900000D01*
X249421009Y-53900000D01*
X249268409Y-53940889D01*
X249250000Y-53951517D01*
X249250000Y-53150000D01*
X248793754Y-53150000D01*
X248583872Y-53183242D01*
X248583869Y-53183242D01*
X248381782Y-53248904D01*
X248192442Y-53345379D01*
X248020540Y-53470272D01*
X248020535Y-53470276D01*
X247870276Y-53620535D01*
X247870272Y-53620540D01*
X247745379Y-53792442D01*
X247648904Y-53981782D01*
X247583242Y-54183870D01*
X247583242Y-54183873D01*
X247572769Y-54250000D01*
X238927231Y-54250000D01*
X238916757Y-54183873D01*
X238916757Y-54183870D01*
X238851095Y-53981782D01*
X238754620Y-53792442D01*
X238629727Y-53620540D01*
X238629723Y-53620535D01*
X238479464Y-53470276D01*
X238479459Y-53470272D01*
X238307557Y-53345379D01*
X238118217Y-53248904D01*
X237916129Y-53183242D01*
X237706246Y-53150000D01*
X237250000Y-53150000D01*
X237250000Y-53951517D01*
X237231591Y-53940889D01*
X237078991Y-53900000D01*
X236921009Y-53900000D01*
X236768409Y-53940889D01*
X236750000Y-53951517D01*
X236750000Y-53150000D01*
X236293754Y-53150000D01*
X236083872Y-53183242D01*
X236083869Y-53183242D01*
X235881782Y-53248904D01*
X235692442Y-53345379D01*
X235520540Y-53470272D01*
X235520535Y-53470276D01*
X235370276Y-53620535D01*
X235370272Y-53620540D01*
X235245379Y-53792442D01*
X235148904Y-53981782D01*
X235083242Y-54183870D01*
X235083242Y-54183873D01*
X235072769Y-54250000D01*
X233214194Y-54250000D01*
X233142335Y-54196206D01*
X233142328Y-54196202D01*
X233062419Y-54166398D01*
X233006485Y-54124527D01*
X232982068Y-54059062D01*
X232996920Y-53990789D01*
X233018069Y-53962537D01*
X233068242Y-53912365D01*
X233197815Y-53734022D01*
X233297895Y-53537606D01*
X233366015Y-53327951D01*
X233400500Y-53110222D01*
X233400500Y-52889778D01*
X233366015Y-52672049D01*
X233297895Y-52462394D01*
X233270917Y-52409448D01*
X242099500Y-52409448D01*
X242099500Y-52590551D01*
X242127829Y-52769410D01*
X242183787Y-52941636D01*
X242183788Y-52941639D01*
X242225076Y-53022669D01*
X242265676Y-53102351D01*
X242266006Y-53102997D01*
X242372441Y-53249494D01*
X242372445Y-53249499D01*
X242500500Y-53377554D01*
X242500505Y-53377558D01*
X242628116Y-53470272D01*
X242647006Y-53483996D01*
X242752215Y-53537603D01*
X242808360Y-53566211D01*
X242808363Y-53566212D01*
X242894476Y-53594191D01*
X242980591Y-53622171D01*
X243063429Y-53635291D01*
X243159449Y-53650500D01*
X243159454Y-53650500D01*
X243340551Y-53650500D01*
X243427259Y-53636765D01*
X243519409Y-53622171D01*
X243691639Y-53566211D01*
X243852994Y-53483996D01*
X243999501Y-53377553D01*
X244127553Y-53249501D01*
X244233996Y-53102994D01*
X244316211Y-52941639D01*
X244372171Y-52769409D01*
X244387592Y-52672047D01*
X244400500Y-52590551D01*
X244400500Y-52409448D01*
X244378886Y-52272989D01*
X244372171Y-52230591D01*
X244329902Y-52100498D01*
X244316212Y-52058363D01*
X244316211Y-52058360D01*
X244283058Y-51993295D01*
X244233996Y-51897006D01*
X244220396Y-51878287D01*
X244127558Y-51750505D01*
X244127554Y-51750500D01*
X243999499Y-51622445D01*
X243999494Y-51622441D01*
X243852997Y-51516006D01*
X243852996Y-51516005D01*
X243852994Y-51516004D01*
X243801300Y-51489664D01*
X243691639Y-51433788D01*
X243691636Y-51433787D01*
X243519410Y-51377829D01*
X243340551Y-51349500D01*
X243340546Y-51349500D01*
X243159454Y-51349500D01*
X243159449Y-51349500D01*
X242980589Y-51377829D01*
X242808363Y-51433787D01*
X242808360Y-51433788D01*
X242647002Y-51516006D01*
X242500505Y-51622441D01*
X242500500Y-51622445D01*
X242372445Y-51750500D01*
X242372441Y-51750505D01*
X242266006Y-51897002D01*
X242183788Y-52058360D01*
X242183787Y-52058363D01*
X242127829Y-52230589D01*
X242099500Y-52409448D01*
X233270917Y-52409448D01*
X233197815Y-52265978D01*
X233164545Y-52220185D01*
X233068247Y-52087641D01*
X233068243Y-52087636D01*
X232912363Y-51931756D01*
X232912358Y-51931752D01*
X232734025Y-51802187D01*
X232734024Y-51802186D01*
X232734022Y-51802185D01*
X232671096Y-51770122D01*
X232537606Y-51702104D01*
X232537603Y-51702103D01*
X232327952Y-51633985D01*
X232219086Y-51616742D01*
X232110222Y-51599500D01*
X231889778Y-51599500D01*
X231817201Y-51610995D01*
X231672047Y-51633985D01*
X231462396Y-51702103D01*
X231462393Y-51702104D01*
X231265974Y-51802187D01*
X231087641Y-51931752D01*
X231087636Y-51931756D01*
X230931756Y-52087636D01*
X230931752Y-52087641D01*
X230802187Y-52265974D01*
X230702104Y-52462393D01*
X230702103Y-52462396D01*
X230633985Y-52672047D01*
X230603671Y-52863443D01*
X230599500Y-52889778D01*
X224335097Y-52889778D01*
X224283412Y-52863443D01*
X224081243Y-52797754D01*
X224081241Y-52797753D01*
X224081240Y-52797753D01*
X223919957Y-52772208D01*
X223871287Y-52764500D01*
X223658713Y-52764500D01*
X223610042Y-52772208D01*
X223448760Y-52797753D01*
X223246585Y-52863444D01*
X223057179Y-52959951D01*
X222885215Y-53084889D01*
X222771673Y-53198431D01*
X222710350Y-53231915D01*
X222640658Y-53226931D01*
X222584725Y-53185059D01*
X222567810Y-53154082D01*
X222518797Y-53022671D01*
X222518793Y-53022664D01*
X222432547Y-52907455D01*
X222432544Y-52907452D01*
X222317335Y-52821206D01*
X222317328Y-52821202D01*
X222182482Y-52770908D01*
X222182483Y-52770908D01*
X222122883Y-52764501D01*
X222122881Y-52764500D01*
X222122873Y-52764500D01*
X222122864Y-52764500D01*
X220327129Y-52764500D01*
X220327123Y-52764501D01*
X220267516Y-52770908D01*
X220132671Y-52821202D01*
X220132664Y-52821206D01*
X220017455Y-52907452D01*
X220017452Y-52907455D01*
X219931206Y-53022664D01*
X219931202Y-53022671D01*
X219880908Y-53157517D01*
X219874501Y-53217116D01*
X219874500Y-53217135D01*
X218784580Y-53217135D01*
X218768477Y-53115466D01*
X218705220Y-52920781D01*
X218705218Y-52920778D01*
X218705218Y-52920776D01*
X218654482Y-52821202D01*
X218612287Y-52738390D01*
X218581101Y-52695466D01*
X218491971Y-52572786D01*
X218347213Y-52428028D01*
X218181613Y-52307715D01*
X218181612Y-52307714D01*
X218181610Y-52307713D01*
X218118803Y-52275711D01*
X217999223Y-52214781D01*
X217804534Y-52151522D01*
X217627310Y-52123453D01*
X217602352Y-52119500D01*
X217397648Y-52119500D01*
X217373329Y-52123351D01*
X217195465Y-52151522D01*
X217000776Y-52214781D01*
X216818386Y-52307715D01*
X216652786Y-52428028D01*
X216508028Y-52572786D01*
X216387715Y-52738386D01*
X216294781Y-52920776D01*
X216231522Y-53115465D01*
X216199500Y-53317648D01*
X195270500Y-53317648D01*
X195270500Y-52501004D01*
X195243581Y-52365677D01*
X195243580Y-52365676D01*
X195243580Y-52365672D01*
X195222445Y-52314647D01*
X195190776Y-52238191D01*
X195190775Y-52238189D01*
X195147605Y-52173580D01*
X195114114Y-52123457D01*
X195114111Y-52123453D01*
X194392235Y-51401577D01*
X195399500Y-51401577D01*
X195399500Y-51598422D01*
X195430290Y-51792826D01*
X195491117Y-51980029D01*
X195564196Y-52123453D01*
X195580476Y-52155405D01*
X195696172Y-52314646D01*
X195835354Y-52453828D01*
X195994595Y-52569524D01*
X196055741Y-52600679D01*
X196169970Y-52658882D01*
X196169972Y-52658882D01*
X196169975Y-52658884D01*
X196218870Y-52674771D01*
X196357173Y-52719709D01*
X196551578Y-52750500D01*
X196551583Y-52750500D01*
X196748422Y-52750500D01*
X196942826Y-52719709D01*
X197130025Y-52658884D01*
X197305405Y-52569524D01*
X197464646Y-52453828D01*
X197603828Y-52314646D01*
X197719524Y-52155405D01*
X197808884Y-51980025D01*
X197809515Y-51978787D01*
X197857489Y-51927990D01*
X197925310Y-51911195D01*
X197991445Y-51933732D01*
X198030485Y-51978787D01*
X198120474Y-52155403D01*
X198153240Y-52200500D01*
X198236172Y-52314646D01*
X198375354Y-52453828D01*
X198534595Y-52569524D01*
X198595741Y-52600679D01*
X198709970Y-52658882D01*
X198709972Y-52658882D01*
X198709975Y-52658884D01*
X198758870Y-52674771D01*
X198897173Y-52719709D01*
X199091578Y-52750500D01*
X199091583Y-52750500D01*
X199288422Y-52750500D01*
X199482826Y-52719709D01*
X199670025Y-52658884D01*
X199845405Y-52569524D01*
X200004646Y-52453828D01*
X200143828Y-52314646D01*
X200259524Y-52155405D01*
X200348884Y-51980025D01*
X200349515Y-51978787D01*
X200397489Y-51927990D01*
X200465310Y-51911195D01*
X200531445Y-51933732D01*
X200570485Y-51978787D01*
X200660474Y-52155403D01*
X200693240Y-52200500D01*
X200776172Y-52314646D01*
X200915354Y-52453828D01*
X201074595Y-52569524D01*
X201135741Y-52600679D01*
X201249970Y-52658882D01*
X201249972Y-52658882D01*
X201249975Y-52658884D01*
X201298870Y-52674771D01*
X201437173Y-52719709D01*
X201631578Y-52750500D01*
X201631583Y-52750500D01*
X201828422Y-52750500D01*
X202022826Y-52719709D01*
X202210025Y-52658884D01*
X202385405Y-52569524D01*
X202544646Y-52453828D01*
X202683828Y-52314646D01*
X202799524Y-52155405D01*
X202888884Y-51980025D01*
X202889515Y-51978787D01*
X202937489Y-51927990D01*
X203005310Y-51911195D01*
X203071445Y-51933732D01*
X203110485Y-51978787D01*
X203200474Y-52155403D01*
X203233240Y-52200500D01*
X203316172Y-52314646D01*
X203455354Y-52453828D01*
X203614595Y-52569524D01*
X203675741Y-52600679D01*
X203789970Y-52658882D01*
X203789972Y-52658882D01*
X203789975Y-52658884D01*
X203838870Y-52674771D01*
X203977173Y-52719709D01*
X204171578Y-52750500D01*
X204171583Y-52750500D01*
X204368422Y-52750500D01*
X204562826Y-52719709D01*
X204750025Y-52658884D01*
X204925405Y-52569524D01*
X205084646Y-52453828D01*
X205223828Y-52314646D01*
X205339524Y-52155405D01*
X205428884Y-51980025D01*
X205429515Y-51978787D01*
X205477489Y-51927990D01*
X205545310Y-51911195D01*
X205611445Y-51933732D01*
X205650485Y-51978787D01*
X205740474Y-52155403D01*
X205773240Y-52200500D01*
X205856172Y-52314646D01*
X205995354Y-52453828D01*
X206154595Y-52569524D01*
X206215741Y-52600679D01*
X206329970Y-52658882D01*
X206329972Y-52658882D01*
X206329975Y-52658884D01*
X206378870Y-52674771D01*
X206517173Y-52719709D01*
X206711578Y-52750500D01*
X206711583Y-52750500D01*
X206908422Y-52750500D01*
X207102826Y-52719709D01*
X207290025Y-52658884D01*
X207465405Y-52569524D01*
X207624646Y-52453828D01*
X207763828Y-52314646D01*
X207879524Y-52155405D01*
X207968884Y-51980025D01*
X207969515Y-51978787D01*
X208017489Y-51927990D01*
X208085310Y-51911195D01*
X208151445Y-51933732D01*
X208190485Y-51978787D01*
X208280474Y-52155403D01*
X208313240Y-52200500D01*
X208396172Y-52314646D01*
X208535354Y-52453828D01*
X208694595Y-52569524D01*
X208755741Y-52600679D01*
X208869970Y-52658882D01*
X208869972Y-52658882D01*
X208869975Y-52658884D01*
X208918870Y-52674771D01*
X209057173Y-52719709D01*
X209251578Y-52750500D01*
X209251583Y-52750500D01*
X209448422Y-52750500D01*
X209642826Y-52719709D01*
X209830025Y-52658884D01*
X210005405Y-52569524D01*
X210164646Y-52453828D01*
X210303828Y-52314646D01*
X210419524Y-52155405D01*
X210508884Y-51980025D01*
X210569709Y-51792826D01*
X210576413Y-51750499D01*
X210600500Y-51598422D01*
X210600500Y-51401577D01*
X210569709Y-51207173D01*
X210525791Y-51072009D01*
X210508884Y-51019975D01*
X210508882Y-51019972D01*
X210508882Y-51019970D01*
X210461743Y-50927455D01*
X210419524Y-50844595D01*
X210303828Y-50685354D01*
X210164646Y-50546172D01*
X210005405Y-50430476D01*
X209986336Y-50420760D01*
X209830029Y-50341117D01*
X209642826Y-50280290D01*
X209448422Y-50249500D01*
X209448417Y-50249500D01*
X209251583Y-50249500D01*
X209251578Y-50249500D01*
X209057173Y-50280290D01*
X208869970Y-50341117D01*
X208694594Y-50430476D01*
X208603741Y-50496485D01*
X208535354Y-50546172D01*
X208535352Y-50546174D01*
X208535351Y-50546174D01*
X208396174Y-50685351D01*
X208396174Y-50685352D01*
X208396172Y-50685354D01*
X208375310Y-50714068D01*
X208280476Y-50844594D01*
X208190485Y-51021213D01*
X208142511Y-51072009D01*
X208074690Y-51088804D01*
X208008555Y-51066267D01*
X207969515Y-51021213D01*
X207925133Y-50934108D01*
X207879524Y-50844595D01*
X207763828Y-50685354D01*
X207624646Y-50546172D01*
X207465405Y-50430476D01*
X207446336Y-50420760D01*
X207290029Y-50341117D01*
X207102826Y-50280290D01*
X206908422Y-50249500D01*
X206908417Y-50249500D01*
X206711583Y-50249500D01*
X206711578Y-50249500D01*
X206517173Y-50280290D01*
X206329970Y-50341117D01*
X206154594Y-50430476D01*
X206063741Y-50496485D01*
X205995354Y-50546172D01*
X205995352Y-50546174D01*
X205995351Y-50546174D01*
X205856174Y-50685351D01*
X205856174Y-50685352D01*
X205856172Y-50685354D01*
X205835310Y-50714068D01*
X205740476Y-50844594D01*
X205650485Y-51021213D01*
X205602511Y-51072009D01*
X205534690Y-51088804D01*
X205468555Y-51066267D01*
X205429515Y-51021213D01*
X205385133Y-50934108D01*
X205339524Y-50844595D01*
X205223828Y-50685354D01*
X205084646Y-50546172D01*
X204925405Y-50430476D01*
X204906336Y-50420760D01*
X204750029Y-50341117D01*
X204562826Y-50280290D01*
X204368422Y-50249500D01*
X204368417Y-50249500D01*
X204171583Y-50249500D01*
X204171578Y-50249500D01*
X203977173Y-50280290D01*
X203789970Y-50341117D01*
X203614594Y-50430476D01*
X203523741Y-50496485D01*
X203455354Y-50546172D01*
X203455352Y-50546174D01*
X203455351Y-50546174D01*
X203316174Y-50685351D01*
X203316174Y-50685352D01*
X203316172Y-50685354D01*
X203295310Y-50714068D01*
X203200476Y-50844594D01*
X203110485Y-51021213D01*
X203062511Y-51072009D01*
X202994690Y-51088804D01*
X202928555Y-51066267D01*
X202889515Y-51021213D01*
X202845133Y-50934108D01*
X202799524Y-50844595D01*
X202683828Y-50685354D01*
X202544646Y-50546172D01*
X202385405Y-50430476D01*
X202366336Y-50420760D01*
X202210029Y-50341117D01*
X202022826Y-50280290D01*
X201828422Y-50249500D01*
X201828417Y-50249500D01*
X201631583Y-50249500D01*
X201631578Y-50249500D01*
X201437173Y-50280290D01*
X201249970Y-50341117D01*
X201074594Y-50430476D01*
X200983741Y-50496485D01*
X200915354Y-50546172D01*
X200915352Y-50546174D01*
X200915351Y-50546174D01*
X200776174Y-50685351D01*
X200776174Y-50685352D01*
X200776172Y-50685354D01*
X200755310Y-50714068D01*
X200660476Y-50844594D01*
X200570485Y-51021213D01*
X200522511Y-51072009D01*
X200454690Y-51088804D01*
X200388555Y-51066267D01*
X200349515Y-51021213D01*
X200305133Y-50934108D01*
X200259524Y-50844595D01*
X200143828Y-50685354D01*
X200004646Y-50546172D01*
X199845405Y-50430476D01*
X199826336Y-50420760D01*
X199670029Y-50341117D01*
X199482826Y-50280290D01*
X199288422Y-50249500D01*
X199288417Y-50249500D01*
X199091583Y-50249500D01*
X199091578Y-50249500D01*
X198897173Y-50280290D01*
X198709970Y-50341117D01*
X198534594Y-50430476D01*
X198443741Y-50496485D01*
X198375354Y-50546172D01*
X198375352Y-50546174D01*
X198375351Y-50546174D01*
X198236174Y-50685351D01*
X198236174Y-50685352D01*
X198236172Y-50685354D01*
X198215310Y-50714068D01*
X198120476Y-50844594D01*
X198030485Y-51021213D01*
X197982511Y-51072009D01*
X197914690Y-51088804D01*
X197848555Y-51066267D01*
X197809515Y-51021213D01*
X197765133Y-50934108D01*
X197719524Y-50844595D01*
X197603828Y-50685354D01*
X197464646Y-50546172D01*
X197305405Y-50430476D01*
X197286336Y-50420760D01*
X197130029Y-50341117D01*
X196942826Y-50280290D01*
X196748422Y-50249500D01*
X196748417Y-50249500D01*
X196551583Y-50249500D01*
X196551578Y-50249500D01*
X196357173Y-50280290D01*
X196169970Y-50341117D01*
X195994594Y-50430476D01*
X195903741Y-50496485D01*
X195835354Y-50546172D01*
X195835352Y-50546174D01*
X195835351Y-50546174D01*
X195696174Y-50685351D01*
X195696174Y-50685352D01*
X195696172Y-50685354D01*
X195675310Y-50714068D01*
X195580476Y-50844594D01*
X195491117Y-51019970D01*
X195430290Y-51207173D01*
X195399500Y-51401577D01*
X194392235Y-51401577D01*
X193946545Y-50955887D01*
X193831807Y-50879222D01*
X193704332Y-50826421D01*
X193704322Y-50826418D01*
X193568996Y-50799500D01*
X193568994Y-50799500D01*
X193568993Y-50799500D01*
X169068994Y-50799500D01*
X168931006Y-50799500D01*
X168931004Y-50799500D01*
X168795677Y-50826418D01*
X168795667Y-50826421D01*
X168668192Y-50879222D01*
X168553454Y-50955887D01*
X156422693Y-63086648D01*
X156361370Y-63120133D01*
X156291678Y-63115149D01*
X156235745Y-63073277D01*
X156217081Y-63037286D01*
X156205220Y-63000781D01*
X156112287Y-62818390D01*
X156057358Y-62742786D01*
X155991971Y-62652786D01*
X155847213Y-62508028D01*
X155681614Y-62387715D01*
X155661670Y-62377553D01*
X155588917Y-62340483D01*
X155538123Y-62292511D01*
X155521328Y-62224690D01*
X155543865Y-62158555D01*
X155588917Y-62119516D01*
X155681610Y-62072287D01*
X155702770Y-62056913D01*
X155847213Y-61951971D01*
X155847215Y-61951968D01*
X155847219Y-61951966D01*
X155991966Y-61807219D01*
X155991968Y-61807215D01*
X155991971Y-61807213D01*
X156044732Y-61734590D01*
X156112287Y-61641610D01*
X156205220Y-61459219D01*
X156268477Y-61264534D01*
X156300500Y-61062352D01*
X156300500Y-60857648D01*
X156281362Y-60736819D01*
X156268477Y-60655465D01*
X156223163Y-60516004D01*
X156205220Y-60460781D01*
X156205218Y-60460778D01*
X156205218Y-60460776D01*
X156148519Y-60349500D01*
X156112287Y-60278390D01*
X156104556Y-60267749D01*
X155991971Y-60112786D01*
X155847213Y-59968028D01*
X155681614Y-59847715D01*
X155675006Y-59844348D01*
X155588917Y-59800483D01*
X155538123Y-59752511D01*
X155521328Y-59684690D01*
X155543865Y-59618555D01*
X155588917Y-59579516D01*
X155681610Y-59532287D01*
X155724982Y-59500776D01*
X155847213Y-59411971D01*
X155847215Y-59411968D01*
X155847219Y-59411966D01*
X155991966Y-59267219D01*
X155991968Y-59267215D01*
X155991971Y-59267213D01*
X156071424Y-59157853D01*
X156112287Y-59101610D01*
X156205220Y-58919219D01*
X156268477Y-58724534D01*
X156300500Y-58522352D01*
X156300500Y-58317648D01*
X156268477Y-58115466D01*
X156205220Y-57920781D01*
X156205218Y-57920778D01*
X156205218Y-57920776D01*
X156153047Y-57818386D01*
X156112287Y-57738390D01*
X156088188Y-57705220D01*
X155991971Y-57572786D01*
X155847213Y-57428028D01*
X155681614Y-57307715D01*
X155675006Y-57304348D01*
X155588917Y-57260483D01*
X155538123Y-57212511D01*
X155521328Y-57144690D01*
X155543865Y-57078555D01*
X155588917Y-57039516D01*
X155681610Y-56992287D01*
X155702770Y-56976913D01*
X155847213Y-56871971D01*
X155847215Y-56871968D01*
X155847219Y-56871966D01*
X155991966Y-56727219D01*
X155991968Y-56727215D01*
X155991971Y-56727213D01*
X156082687Y-56602351D01*
X156112287Y-56561610D01*
X156205220Y-56379219D01*
X156268477Y-56184534D01*
X156300500Y-55982352D01*
X156300500Y-55777648D01*
X156281014Y-55654620D01*
X156268477Y-55575465D01*
X156232747Y-55465500D01*
X156205220Y-55380781D01*
X156205218Y-55380778D01*
X156205218Y-55380776D01*
X156148800Y-55270051D01*
X156112287Y-55198390D01*
X156104556Y-55187749D01*
X155991971Y-55032786D01*
X155847213Y-54888028D01*
X155681613Y-54767715D01*
X155681612Y-54767714D01*
X155681610Y-54767713D01*
X155610717Y-54731591D01*
X155499223Y-54674781D01*
X155304534Y-54611522D01*
X155129995Y-54583878D01*
X155102352Y-54579500D01*
X154897648Y-54579500D01*
X154873329Y-54583351D01*
X154695465Y-54611522D01*
X154500776Y-54674781D01*
X154318386Y-54767715D01*
X154152786Y-54888028D01*
X154008028Y-55032786D01*
X153887715Y-55198386D01*
X153794781Y-55380776D01*
X153731522Y-55575465D01*
X153699500Y-55777648D01*
X153699500Y-55982351D01*
X153731522Y-56184534D01*
X153794781Y-56379223D01*
X153850147Y-56487883D01*
X153880514Y-56547482D01*
X153887715Y-56561613D01*
X154008028Y-56727213D01*
X154152786Y-56871971D01*
X154307749Y-56984556D01*
X154318390Y-56992287D01*
X154409840Y-57038883D01*
X154411080Y-57039515D01*
X154461876Y-57087490D01*
X154478671Y-57155311D01*
X154456134Y-57221446D01*
X154411080Y-57260485D01*
X154318386Y-57307715D01*
X154152786Y-57428028D01*
X154008028Y-57572786D01*
X153887715Y-57738386D01*
X153794781Y-57920776D01*
X153731522Y-58115465D01*
X153699500Y-58317648D01*
X153699500Y-58522351D01*
X153731522Y-58724534D01*
X153794781Y-58919223D01*
X153887715Y-59101613D01*
X154008028Y-59267213D01*
X154152786Y-59411971D01*
X154275018Y-59500776D01*
X154318390Y-59532287D01*
X154409840Y-59578883D01*
X154411080Y-59579515D01*
X154461876Y-59627490D01*
X154478671Y-59695311D01*
X154456134Y-59761446D01*
X154411080Y-59800485D01*
X154318386Y-59847715D01*
X154152786Y-59968028D01*
X154008028Y-60112786D01*
X153887715Y-60278386D01*
X153794781Y-60460776D01*
X153731522Y-60655465D01*
X153699500Y-60857648D01*
X153699500Y-61062351D01*
X153731522Y-61264534D01*
X153794781Y-61459223D01*
X153828812Y-61526011D01*
X153879464Y-61625421D01*
X153887715Y-61641613D01*
X154008028Y-61807213D01*
X154152786Y-61951971D01*
X154307749Y-62064556D01*
X154318390Y-62072287D01*
X154378656Y-62102994D01*
X154411080Y-62119515D01*
X154461876Y-62167490D01*
X154478671Y-62235311D01*
X154456134Y-62301446D01*
X154411080Y-62340485D01*
X154318386Y-62387715D01*
X154152786Y-62508028D01*
X154008028Y-62652786D01*
X153887715Y-62818386D01*
X153794781Y-63000776D01*
X153731522Y-63195465D01*
X153699500Y-63397648D01*
X153699500Y-63602351D01*
X153717986Y-63719068D01*
X153709031Y-63788362D01*
X153683194Y-63826147D01*
X153254887Y-64254454D01*
X153178222Y-64369192D01*
X153125421Y-64496667D01*
X153125418Y-64496679D01*
X153102804Y-64610364D01*
X153102796Y-64610410D01*
X153102423Y-64612287D01*
X153098500Y-64632007D01*
X153098500Y-66468477D01*
X153098500Y-66606465D01*
X153098500Y-66606467D01*
X153098499Y-66606467D01*
X153125418Y-66741793D01*
X153125421Y-66741803D01*
X153178222Y-66869278D01*
X153254887Y-66984016D01*
X153254888Y-66984017D01*
X153931303Y-67660431D01*
X153964788Y-67721754D01*
X153959804Y-67791445D01*
X153943941Y-67820995D01*
X153887717Y-67898383D01*
X153887712Y-67898391D01*
X153794781Y-68080776D01*
X153731522Y-68275465D01*
X153699500Y-68477648D01*
X153699500Y-68682351D01*
X153731522Y-68884534D01*
X153794781Y-69079223D01*
X153887715Y-69261613D01*
X154008028Y-69427213D01*
X154152786Y-69571971D01*
X154262892Y-69651966D01*
X154318390Y-69692287D01*
X154409840Y-69738883D01*
X154411080Y-69739515D01*
X154461876Y-69787490D01*
X154478671Y-69855311D01*
X154456134Y-69921446D01*
X154411080Y-69960485D01*
X154318386Y-70007715D01*
X154152786Y-70128028D01*
X154008028Y-70272786D01*
X153887715Y-70438386D01*
X153794781Y-70620776D01*
X153731522Y-70815465D01*
X153699500Y-71017648D01*
X153699500Y-71222351D01*
X153731522Y-71424534D01*
X153794781Y-71619223D01*
X153852036Y-71731591D01*
X153887207Y-71800617D01*
X153887715Y-71801613D01*
X154008028Y-71967213D01*
X154152786Y-72111971D01*
X154284352Y-72207557D01*
X154318390Y-72232287D01*
X154382813Y-72265112D01*
X154411080Y-72279515D01*
X154461876Y-72327490D01*
X154478671Y-72395311D01*
X154456134Y-72461446D01*
X154411080Y-72500485D01*
X154318386Y-72547715D01*
X154152786Y-72668028D01*
X154008028Y-72812786D01*
X153887715Y-72978386D01*
X153794781Y-73160776D01*
X153731522Y-73355465D01*
X153699500Y-73557648D01*
X153699500Y-73762351D01*
X153731522Y-73964534D01*
X153794781Y-74159223D01*
X153887715Y-74341613D01*
X154008028Y-74507213D01*
X154152786Y-74651971D01*
X154276656Y-74741966D01*
X154318390Y-74772287D01*
X154407416Y-74817648D01*
X154411080Y-74819515D01*
X154461876Y-74867490D01*
X154478671Y-74935311D01*
X154456134Y-75001446D01*
X154411080Y-75040485D01*
X154318386Y-75087715D01*
X154152786Y-75208028D01*
X154008028Y-75352786D01*
X153887715Y-75518386D01*
X153794781Y-75700776D01*
X153731522Y-75895465D01*
X153699500Y-76097648D01*
X153699500Y-76302351D01*
X153731522Y-76504534D01*
X153794781Y-76699223D01*
X153837643Y-76783342D01*
X153875452Y-76857547D01*
X153887715Y-76881613D01*
X154008028Y-77047213D01*
X154152786Y-77191971D01*
X154307749Y-77304556D01*
X154318390Y-77312287D01*
X154391425Y-77349500D01*
X154411080Y-77359515D01*
X154461876Y-77407490D01*
X154478671Y-77475311D01*
X154456134Y-77541446D01*
X154411080Y-77580485D01*
X154318386Y-77627715D01*
X154152786Y-77748028D01*
X154008028Y-77892786D01*
X153887715Y-78058386D01*
X153794781Y-78240776D01*
X153731522Y-78435465D01*
X153699500Y-78637648D01*
X153699500Y-78842351D01*
X153731522Y-79044534D01*
X153794781Y-79239223D01*
X153855007Y-79357421D01*
X153887140Y-79420486D01*
X153887715Y-79421613D01*
X154008028Y-79587213D01*
X154152786Y-79731971D01*
X154307749Y-79844556D01*
X154318390Y-79852287D01*
X154409840Y-79898883D01*
X154411080Y-79899515D01*
X154461876Y-79947490D01*
X154478671Y-80015311D01*
X154456134Y-80081446D01*
X154411080Y-80120485D01*
X154318386Y-80167715D01*
X154152786Y-80288028D01*
X154008028Y-80432786D01*
X153887715Y-80598386D01*
X153794781Y-80780776D01*
X153731522Y-80975465D01*
X153699500Y-81177648D01*
X153699500Y-81382351D01*
X153731522Y-81584534D01*
X153794781Y-81779223D01*
X153887715Y-81961613D01*
X154008028Y-82127213D01*
X154152786Y-82271971D01*
X154307749Y-82384556D01*
X154318390Y-82392287D01*
X154390424Y-82428990D01*
X154411629Y-82439795D01*
X154462425Y-82487770D01*
X154479220Y-82555591D01*
X154456682Y-82621726D01*
X154411629Y-82660765D01*
X154318650Y-82708140D01*
X154153105Y-82828417D01*
X154153104Y-82828417D01*
X154008417Y-82973104D01*
X154008417Y-82973105D01*
X153888140Y-83138650D01*
X153795244Y-83320970D01*
X153732009Y-83515586D01*
X153723391Y-83570000D01*
X154566988Y-83570000D01*
X154534075Y-83627007D01*
X154500000Y-83754174D01*
X154500000Y-83885826D01*
X154534075Y-84012993D01*
X154566988Y-84070000D01*
X153723391Y-84070000D01*
X153732009Y-84124413D01*
X153795244Y-84319029D01*
X153888140Y-84501349D01*
X154008417Y-84666894D01*
X154008417Y-84666895D01*
X154153104Y-84811582D01*
X154318652Y-84931861D01*
X154411628Y-84979234D01*
X154462425Y-85027208D01*
X154479220Y-85095029D01*
X154456683Y-85161164D01*
X154411630Y-85200203D01*
X154318388Y-85247713D01*
X154152786Y-85368028D01*
X154008028Y-85512786D01*
X153887715Y-85678386D01*
X153794781Y-85860776D01*
X153731522Y-86055465D01*
X153699500Y-86257648D01*
X153699500Y-86462351D01*
X153731522Y-86664534D01*
X153794781Y-86859223D01*
X153887715Y-87041613D01*
X154008028Y-87207213D01*
X154152786Y-87351971D01*
X154282492Y-87446206D01*
X154318390Y-87472287D01*
X154409840Y-87518883D01*
X154411080Y-87519515D01*
X154461876Y-87567490D01*
X154478671Y-87635311D01*
X154456134Y-87701446D01*
X154411080Y-87740485D01*
X154318386Y-87787715D01*
X154152786Y-87908028D01*
X154008028Y-88052786D01*
X153887715Y-88218386D01*
X153794781Y-88400776D01*
X153731522Y-88595465D01*
X153699500Y-88797648D01*
X153699500Y-89002351D01*
X153731522Y-89204534D01*
X153794781Y-89399223D01*
X153887715Y-89581613D01*
X154008028Y-89747213D01*
X154152784Y-89891969D01*
X154189068Y-89918330D01*
X154231735Y-89973659D01*
X154237715Y-90043273D01*
X154205109Y-90105068D01*
X154144271Y-90139426D01*
X154129440Y-90141938D01*
X154092519Y-90145907D01*
X153957671Y-90196202D01*
X153957664Y-90196206D01*
X153842455Y-90282452D01*
X153842452Y-90282455D01*
X153756206Y-90397664D01*
X153756202Y-90397671D01*
X153705908Y-90532517D01*
X153699940Y-90588034D01*
X153699501Y-90592123D01*
X153699500Y-90592135D01*
X153699500Y-92287870D01*
X153699501Y-92287876D01*
X153705908Y-92347483D01*
X153756202Y-92482328D01*
X153756206Y-92482335D01*
X153842452Y-92597544D01*
X153842455Y-92597547D01*
X153957664Y-92683793D01*
X153957671Y-92683797D01*
X154092517Y-92734091D01*
X154092516Y-92734091D01*
X154099444Y-92734835D01*
X154152127Y-92740500D01*
X155847872Y-92740499D01*
X155907483Y-92734091D01*
X156042331Y-92683796D01*
X156157546Y-92597546D01*
X156243796Y-92482331D01*
X156294091Y-92347483D01*
X156300500Y-92287873D01*
X156300499Y-91477648D01*
X158699500Y-91477648D01*
X158699500Y-91682351D01*
X158731522Y-91884534D01*
X158794781Y-92079223D01*
X158887715Y-92261613D01*
X159008028Y-92427213D01*
X159152786Y-92571971D01*
X159281350Y-92665376D01*
X159318390Y-92692287D01*
X159434607Y-92751503D01*
X159500776Y-92785218D01*
X159500778Y-92785218D01*
X159500781Y-92785220D01*
X159605137Y-92819127D01*
X159695465Y-92848477D01*
X159784103Y-92862516D01*
X159897648Y-92880500D01*
X159897649Y-92880500D01*
X160102351Y-92880500D01*
X160102352Y-92880500D01*
X160304534Y-92848477D01*
X160499219Y-92785220D01*
X160681610Y-92692287D01*
X160791492Y-92612454D01*
X160847213Y-92571971D01*
X160847215Y-92571968D01*
X160847219Y-92571966D01*
X160991966Y-92427219D01*
X160991968Y-92427215D01*
X160991971Y-92427213D01*
X161059221Y-92334649D01*
X161112287Y-92261610D01*
X161205220Y-92079219D01*
X161268477Y-91884534D01*
X161300500Y-91682352D01*
X161300500Y-91477648D01*
X161287829Y-91397648D01*
X162199500Y-91397648D01*
X162199500Y-91602351D01*
X162231522Y-91804534D01*
X162294781Y-91999223D01*
X162387715Y-92181613D01*
X162508028Y-92347213D01*
X162652786Y-92491971D01*
X162798102Y-92597547D01*
X162818390Y-92612287D01*
X162922575Y-92665372D01*
X163000776Y-92705218D01*
X163000778Y-92705218D01*
X163000781Y-92705220D01*
X163089637Y-92734091D01*
X163195465Y-92768477D01*
X163296557Y-92784488D01*
X163397648Y-92800500D01*
X163397649Y-92800500D01*
X163602351Y-92800500D01*
X163602352Y-92800500D01*
X163804534Y-92768477D01*
X163999219Y-92705220D01*
X164181610Y-92612287D01*
X164292726Y-92531557D01*
X164347213Y-92491971D01*
X164347215Y-92491968D01*
X164347219Y-92491966D01*
X164491966Y-92347219D01*
X164491968Y-92347215D01*
X164491971Y-92347213D01*
X164554164Y-92261610D01*
X164612287Y-92181610D01*
X164705220Y-91999219D01*
X164768477Y-91804534D01*
X164800500Y-91602352D01*
X164800500Y-91397648D01*
X164782396Y-91283343D01*
X164768477Y-91195465D01*
X164739127Y-91105137D01*
X164705220Y-91000781D01*
X164705218Y-91000778D01*
X164705218Y-91000776D01*
X164644142Y-90880909D01*
X164612287Y-90818390D01*
X164588873Y-90786163D01*
X164491971Y-90652786D01*
X164347213Y-90508028D01*
X164181613Y-90387715D01*
X164181612Y-90387714D01*
X164181610Y-90387713D01*
X164110042Y-90351247D01*
X163999223Y-90294781D01*
X163804534Y-90231522D01*
X163629995Y-90203878D01*
X163602352Y-90199500D01*
X163397648Y-90199500D01*
X163373329Y-90203351D01*
X163195465Y-90231522D01*
X163000776Y-90294781D01*
X162818386Y-90387715D01*
X162652786Y-90508028D01*
X162508028Y-90652786D01*
X162387715Y-90818386D01*
X162294781Y-91000776D01*
X162231522Y-91195465D01*
X162199500Y-91397648D01*
X161287829Y-91397648D01*
X161286707Y-91390566D01*
X161268477Y-91275465D01*
X161205218Y-91080776D01*
X161164455Y-91000776D01*
X161112287Y-90898390D01*
X161094930Y-90874500D01*
X160991971Y-90732786D01*
X160847213Y-90588028D01*
X160681613Y-90467715D01*
X160681612Y-90467714D01*
X160681610Y-90467713D01*
X160624653Y-90438691D01*
X160499223Y-90374781D01*
X160304534Y-90311522D01*
X160121009Y-90282455D01*
X160102352Y-90279500D01*
X159897648Y-90279500D01*
X159878991Y-90282455D01*
X159695465Y-90311522D01*
X159500776Y-90374781D01*
X159318386Y-90467715D01*
X159152786Y-90588028D01*
X159008028Y-90732786D01*
X158887715Y-90898386D01*
X158794781Y-91080776D01*
X158731522Y-91275465D01*
X158699500Y-91477648D01*
X156300499Y-91477648D01*
X156300499Y-91412174D01*
X156300499Y-90592129D01*
X156300498Y-90592123D01*
X156300497Y-90592116D01*
X156294091Y-90532517D01*
X156284959Y-90508034D01*
X156243797Y-90397671D01*
X156243793Y-90397664D01*
X156157547Y-90282455D01*
X156157544Y-90282452D01*
X156042335Y-90196206D01*
X156042328Y-90196202D01*
X155907482Y-90145908D01*
X155907483Y-90145908D01*
X155870560Y-90141939D01*
X155806009Y-90115201D01*
X155766160Y-90057809D01*
X155763667Y-89987984D01*
X155799319Y-89927895D01*
X155810930Y-89918331D01*
X155847219Y-89891966D01*
X155991966Y-89747219D01*
X155991968Y-89747215D01*
X155991971Y-89747213D01*
X156065181Y-89646446D01*
X156112287Y-89581610D01*
X156205220Y-89399219D01*
X156268477Y-89204534D01*
X156300500Y-89002352D01*
X156300500Y-88797648D01*
X156278621Y-88659514D01*
X156268477Y-88595465D01*
X156205218Y-88400776D01*
X156171503Y-88334607D01*
X156112287Y-88218390D01*
X156104556Y-88207749D01*
X155991971Y-88052786D01*
X155847213Y-87908028D01*
X155681614Y-87787715D01*
X155671410Y-87782516D01*
X155588917Y-87740483D01*
X155538123Y-87692511D01*
X155521328Y-87624690D01*
X155543865Y-87558555D01*
X155588917Y-87519516D01*
X155681610Y-87472287D01*
X155717508Y-87446206D01*
X155847213Y-87351971D01*
X155847215Y-87351968D01*
X155847219Y-87351966D01*
X155991966Y-87207219D01*
X155991968Y-87207215D01*
X155991971Y-87207213D01*
X156044732Y-87134590D01*
X156112287Y-87041610D01*
X156205220Y-86859219D01*
X156268477Y-86664534D01*
X156300500Y-86462352D01*
X156300500Y-86257648D01*
X156271091Y-86071971D01*
X156268477Y-86055465D01*
X156225924Y-85924501D01*
X156205220Y-85860781D01*
X156205218Y-85860778D01*
X156205218Y-85860776D01*
X156152127Y-85756580D01*
X156112287Y-85678390D01*
X156066081Y-85614792D01*
X155991971Y-85512786D01*
X155847213Y-85368028D01*
X155681611Y-85247713D01*
X155588369Y-85200203D01*
X155537574Y-85152229D01*
X155520779Y-85084407D01*
X155543317Y-85018273D01*
X155588371Y-84979234D01*
X155681347Y-84931861D01*
X155846894Y-84811582D01*
X155846895Y-84811582D01*
X155991582Y-84666895D01*
X155991582Y-84666894D01*
X156111859Y-84501349D01*
X156204755Y-84319029D01*
X156267990Y-84124413D01*
X156276609Y-84070000D01*
X155433012Y-84070000D01*
X155465925Y-84012993D01*
X155500000Y-83885826D01*
X155500000Y-83754174D01*
X155465925Y-83627007D01*
X155433012Y-83570000D01*
X156276609Y-83570000D01*
X156267990Y-83515586D01*
X156204755Y-83320970D01*
X156111859Y-83138650D01*
X155991582Y-82973105D01*
X155991582Y-82973104D01*
X155846895Y-82828417D01*
X155681349Y-82708140D01*
X155588370Y-82660765D01*
X155537574Y-82612790D01*
X155520779Y-82544969D01*
X155543316Y-82478835D01*
X155588370Y-82439795D01*
X155681610Y-82392287D01*
X155799596Y-82306566D01*
X155847213Y-82271971D01*
X155847215Y-82271968D01*
X155847219Y-82271966D01*
X155991966Y-82127219D01*
X155991968Y-82127215D01*
X155991971Y-82127213D01*
X156066317Y-82024883D01*
X156112287Y-81961610D01*
X156205220Y-81779219D01*
X156268477Y-81584534D01*
X156300500Y-81382352D01*
X156300500Y-81330519D01*
X156320185Y-81263480D01*
X156372989Y-81217725D01*
X156442147Y-81207781D01*
X156505703Y-81236806D01*
X156512181Y-81242838D01*
X159032200Y-83762858D01*
X159032201Y-83762859D01*
X159146939Y-83839524D01*
X159258724Y-83885826D01*
X159274419Y-83892327D01*
X159274423Y-83892327D01*
X159274424Y-83892328D01*
X159409750Y-83919247D01*
X159409753Y-83919247D01*
X159409754Y-83919247D01*
X168833103Y-83919247D01*
X168900142Y-83938932D01*
X168945897Y-83991736D01*
X168955576Y-84023849D01*
X168971523Y-84124534D01*
X169034781Y-84319223D01*
X169127715Y-84501613D01*
X169248028Y-84667213D01*
X169392786Y-84811971D01*
X169511836Y-84898464D01*
X169558390Y-84932287D01*
X169647416Y-84977648D01*
X169651080Y-84979515D01*
X169701876Y-85027490D01*
X169718671Y-85095311D01*
X169696134Y-85161446D01*
X169651080Y-85200485D01*
X169558386Y-85247715D01*
X169392786Y-85368028D01*
X169248028Y-85512786D01*
X169127715Y-85678386D01*
X169034781Y-85860776D01*
X168971522Y-86055465D01*
X168939500Y-86257648D01*
X168939500Y-86462351D01*
X168971522Y-86664534D01*
X169034781Y-86859223D01*
X169127715Y-87041613D01*
X169248028Y-87207213D01*
X169392786Y-87351971D01*
X169522492Y-87446206D01*
X169558390Y-87472287D01*
X169630424Y-87508990D01*
X169651629Y-87519795D01*
X169702425Y-87567770D01*
X169719220Y-87635591D01*
X169696682Y-87701726D01*
X169651629Y-87740765D01*
X169558650Y-87788140D01*
X169393105Y-87908417D01*
X169393104Y-87908417D01*
X169248417Y-88053104D01*
X169248417Y-88053105D01*
X169128140Y-88218650D01*
X169035244Y-88400970D01*
X168972009Y-88595586D01*
X168963391Y-88650000D01*
X169806988Y-88650000D01*
X169774075Y-88707007D01*
X169740000Y-88834174D01*
X169740000Y-88965826D01*
X169774075Y-89092993D01*
X169806988Y-89150000D01*
X168963391Y-89150000D01*
X168972009Y-89204413D01*
X169035244Y-89399029D01*
X169128140Y-89581349D01*
X169248417Y-89746894D01*
X169248417Y-89746895D01*
X169393104Y-89891582D01*
X169558652Y-90011861D01*
X169651628Y-90059234D01*
X169702425Y-90107208D01*
X169719220Y-90175029D01*
X169696683Y-90241164D01*
X169651630Y-90280203D01*
X169558388Y-90327713D01*
X169392786Y-90448028D01*
X169248028Y-90592786D01*
X169127715Y-90758386D01*
X169034781Y-90940776D01*
X168971522Y-91135465D01*
X168939500Y-91337648D01*
X168939500Y-91542351D01*
X168971522Y-91744534D01*
X169034781Y-91939223D01*
X169127715Y-92121613D01*
X169248028Y-92287213D01*
X169303181Y-92342366D01*
X169336666Y-92403689D01*
X169339500Y-92430047D01*
X169339500Y-96828696D01*
X169374103Y-97002659D01*
X169374105Y-97002666D01*
X169400295Y-97065892D01*
X169441987Y-97166547D01*
X169459787Y-97193186D01*
X169464753Y-97200618D01*
X169540537Y-97314038D01*
X171425960Y-99199461D01*
X171425964Y-99199464D01*
X171535117Y-99272398D01*
X171579922Y-99326010D01*
X171588629Y-99395335D01*
X171558475Y-99458362D01*
X171499032Y-99495082D01*
X171466226Y-99499500D01*
X154003751Y-99499500D01*
X153996264Y-99499274D01*
X153706205Y-99481728D01*
X153691340Y-99479923D01*
X153409201Y-99428219D01*
X153394663Y-99424635D01*
X153120832Y-99339306D01*
X153106831Y-99333997D01*
X152845263Y-99216275D01*
X152832004Y-99209316D01*
X152586540Y-99060928D01*
X152574217Y-99052422D01*
X152348426Y-98875526D01*
X152337218Y-98865596D01*
X152134403Y-98662781D01*
X152124473Y-98651573D01*
X152070454Y-98582623D01*
X151947573Y-98425776D01*
X151939075Y-98413465D01*
X151790680Y-98167989D01*
X151783727Y-98154743D01*
X151666000Y-97893163D01*
X151660693Y-97879167D01*
X151647262Y-97836066D01*
X151575363Y-97605335D01*
X151571780Y-97590798D01*
X151520076Y-97308659D01*
X151518271Y-97293794D01*
X151512185Y-97193186D01*
X151500726Y-97003736D01*
X151500500Y-96996249D01*
X151500500Y-96862332D01*
X151899500Y-96862332D01*
X151899500Y-97137667D01*
X151899501Y-97137684D01*
X151935438Y-97410655D01*
X151935439Y-97410660D01*
X151935440Y-97410666D01*
X151935441Y-97410668D01*
X152006704Y-97676630D01*
X152112075Y-97931017D01*
X152112080Y-97931028D01*
X152191809Y-98069121D01*
X152249751Y-98169479D01*
X152249753Y-98169482D01*
X152249754Y-98169483D01*
X152417370Y-98387926D01*
X152417376Y-98387933D01*
X152612066Y-98582623D01*
X152612072Y-98582628D01*
X152830521Y-98750249D01*
X152983778Y-98838732D01*
X153068971Y-98887919D01*
X153068976Y-98887921D01*
X153068979Y-98887923D01*
X153323368Y-98993295D01*
X153589334Y-99064560D01*
X153862326Y-99100500D01*
X153862333Y-99100500D01*
X154137667Y-99100500D01*
X154137674Y-99100500D01*
X154410666Y-99064560D01*
X154676632Y-98993295D01*
X154931021Y-98887923D01*
X155169479Y-98750249D01*
X155387928Y-98582628D01*
X155582628Y-98387928D01*
X155750249Y-98169479D01*
X155887923Y-97931021D01*
X155993295Y-97676632D01*
X156064560Y-97410666D01*
X156100500Y-97137674D01*
X156100500Y-96862326D01*
X156064560Y-96589334D01*
X155993295Y-96323368D01*
X155887923Y-96068979D01*
X155887921Y-96068976D01*
X155887919Y-96068971D01*
X155838732Y-95983778D01*
X155750249Y-95830521D01*
X155582628Y-95612072D01*
X155582623Y-95612066D01*
X155387933Y-95417376D01*
X155387926Y-95417370D01*
X155169483Y-95249754D01*
X155169482Y-95249753D01*
X155169479Y-95249751D01*
X155074407Y-95194861D01*
X154931028Y-95112080D01*
X154931017Y-95112075D01*
X154676630Y-95006704D01*
X154494835Y-94957993D01*
X154410666Y-94935440D01*
X154410660Y-94935439D01*
X154410655Y-94935438D01*
X154137684Y-94899501D01*
X154137679Y-94899500D01*
X154137674Y-94899500D01*
X153862326Y-94899500D01*
X153862320Y-94899500D01*
X153862315Y-94899501D01*
X153589344Y-94935438D01*
X153589337Y-94935439D01*
X153589334Y-94935440D01*
X153533125Y-94950500D01*
X153323369Y-95006704D01*
X153068982Y-95112075D01*
X153068971Y-95112080D01*
X152830516Y-95249754D01*
X152612073Y-95417370D01*
X152612066Y-95417376D01*
X152417376Y-95612066D01*
X152417370Y-95612073D01*
X152249754Y-95830516D01*
X152112080Y-96068971D01*
X152112075Y-96068982D01*
X152006704Y-96323369D01*
X151935441Y-96589331D01*
X151935438Y-96589344D01*
X151899501Y-96862315D01*
X151899500Y-96862332D01*
X151500500Y-96862332D01*
X151500500Y-51003051D01*
X151500649Y-50996967D01*
X151506433Y-50879222D01*
X151517052Y-50663068D01*
X151518245Y-50650962D01*
X151552392Y-50420760D01*
X151566849Y-50323296D01*
X151569218Y-50311385D01*
X151649710Y-49990043D01*
X151653232Y-49978431D01*
X151694773Y-49862332D01*
X249899500Y-49862332D01*
X249899500Y-50137667D01*
X249899501Y-50137684D01*
X249935438Y-50410655D01*
X249935439Y-50410660D01*
X249935440Y-50410666D01*
X249938145Y-50420760D01*
X250006704Y-50676630D01*
X250112075Y-50931017D01*
X250112080Y-50931028D01*
X250164149Y-51021213D01*
X250249751Y-51169479D01*
X250249753Y-51169482D01*
X250249754Y-51169483D01*
X250417370Y-51387926D01*
X250417376Y-51387933D01*
X250612066Y-51582623D01*
X250612073Y-51582629D01*
X250663963Y-51622445D01*
X250830521Y-51750249D01*
X250983778Y-51838732D01*
X251068971Y-51887919D01*
X251068976Y-51887921D01*
X251068979Y-51887923D01*
X251323368Y-51993295D01*
X251589334Y-52064560D01*
X251862326Y-52100500D01*
X251862333Y-52100500D01*
X252137667Y-52100500D01*
X252137674Y-52100500D01*
X252410666Y-52064560D01*
X252676632Y-51993295D01*
X252931021Y-51887923D01*
X253169479Y-51750249D01*
X253387928Y-51582628D01*
X253582628Y-51387928D01*
X253750249Y-51169479D01*
X253887923Y-50931021D01*
X253993295Y-50676632D01*
X254064560Y-50410666D01*
X254100500Y-50137674D01*
X254100500Y-49862326D01*
X254064560Y-49589334D01*
X253993295Y-49323368D01*
X253887923Y-49068979D01*
X253887921Y-49068976D01*
X253887919Y-49068971D01*
X253838732Y-48983778D01*
X253750249Y-48830521D01*
X253582628Y-48612072D01*
X253582623Y-48612066D01*
X253387933Y-48417376D01*
X253387926Y-48417370D01*
X253169483Y-48249754D01*
X253169482Y-48249753D01*
X253169479Y-48249751D01*
X253074407Y-48194861D01*
X252931028Y-48112080D01*
X252931017Y-48112075D01*
X252676630Y-48006704D01*
X252543649Y-47971072D01*
X252410666Y-47935440D01*
X252410660Y-47935439D01*
X252410655Y-47935438D01*
X252137684Y-47899501D01*
X252137679Y-47899500D01*
X252137674Y-47899500D01*
X251862326Y-47899500D01*
X251862320Y-47899500D01*
X251862315Y-47899501D01*
X251589344Y-47935438D01*
X251589337Y-47935439D01*
X251589334Y-47935440D01*
X251575783Y-47939071D01*
X251323369Y-48006704D01*
X251068982Y-48112075D01*
X251068971Y-48112080D01*
X250830516Y-48249754D01*
X250612073Y-48417370D01*
X250612066Y-48417376D01*
X250417376Y-48612066D01*
X250417370Y-48612073D01*
X250249754Y-48830516D01*
X250112080Y-49068971D01*
X250112075Y-49068982D01*
X250006704Y-49323369D01*
X249935441Y-49589331D01*
X249935438Y-49589344D01*
X249899501Y-49862315D01*
X249899500Y-49862332D01*
X151694773Y-49862332D01*
X151764835Y-49666525D01*
X151769476Y-49655318D01*
X151911124Y-49355828D01*
X151916840Y-49345136D01*
X152087145Y-49060998D01*
X152093888Y-49050905D01*
X152291232Y-48784818D01*
X152298935Y-48775433D01*
X152521405Y-48529975D01*
X152529975Y-48521405D01*
X152775433Y-48298935D01*
X152784818Y-48291232D01*
X153050905Y-48093888D01*
X153060998Y-48087145D01*
X153345136Y-47916840D01*
X153355828Y-47911124D01*
X153655318Y-47769476D01*
X153666525Y-47764835D01*
X153978412Y-47653239D01*
X153990043Y-47649710D01*
X154311385Y-47569218D01*
X154323296Y-47566849D01*
X154650962Y-47518244D01*
X154663068Y-47517052D01*
X154996967Y-47500648D01*
X155003051Y-47500500D01*
X155065892Y-47500500D01*
X251934108Y-47500500D01*
X251996249Y-47500500D01*
X252003736Y-47500726D01*
G37*
%TD.AperFunction*%
%TA.AperFunction,Conductor*%
G36*
X168931563Y-68099185D02*
G01*
X168977318Y-68151989D01*
X168987262Y-68221147D01*
X168982455Y-68241817D01*
X168971524Y-68275457D01*
X168971523Y-68275464D01*
X168939500Y-68477648D01*
X168939500Y-68682351D01*
X168971522Y-68884534D01*
X169034781Y-69079223D01*
X169127715Y-69261613D01*
X169248028Y-69427213D01*
X169392786Y-69571971D01*
X169502892Y-69651966D01*
X169558390Y-69692287D01*
X169649840Y-69738883D01*
X169651080Y-69739515D01*
X169701876Y-69787490D01*
X169718671Y-69855311D01*
X169696134Y-69921446D01*
X169651080Y-69960485D01*
X169558386Y-70007715D01*
X169392786Y-70128028D01*
X169248028Y-70272786D01*
X169127715Y-70438386D01*
X169034781Y-70620776D01*
X168971522Y-70815465D01*
X168939500Y-71017648D01*
X168939500Y-71222351D01*
X168971522Y-71424534D01*
X169034781Y-71619223D01*
X169092036Y-71731591D01*
X169127207Y-71800617D01*
X169127715Y-71801613D01*
X169248028Y-71967213D01*
X169392786Y-72111971D01*
X169524352Y-72207557D01*
X169558390Y-72232287D01*
X169622813Y-72265112D01*
X169651080Y-72279515D01*
X169701876Y-72327490D01*
X169718671Y-72395311D01*
X169696134Y-72461446D01*
X169651080Y-72500485D01*
X169558386Y-72547715D01*
X169392786Y-72668028D01*
X169248028Y-72812786D01*
X169127715Y-72978386D01*
X169034781Y-73160776D01*
X168971522Y-73355465D01*
X168939500Y-73557648D01*
X168939500Y-73762351D01*
X168971522Y-73964534D01*
X169034781Y-74159223D01*
X169127717Y-74341618D01*
X169130259Y-74345766D01*
X169128609Y-74346776D01*
X169149347Y-74404840D01*
X169133542Y-74472899D01*
X169113232Y-74499638D01*
X168149691Y-75463181D01*
X168088368Y-75496666D01*
X168062010Y-75499500D01*
X156161744Y-75499500D01*
X156094705Y-75479815D01*
X156061425Y-75448384D01*
X155991969Y-75352784D01*
X155847213Y-75208028D01*
X155681614Y-75087715D01*
X155608575Y-75050500D01*
X155588917Y-75040483D01*
X155538123Y-74992511D01*
X155521328Y-74924690D01*
X155543865Y-74858555D01*
X155588917Y-74819516D01*
X155681610Y-74772287D01*
X155762432Y-74713567D01*
X155847213Y-74651971D01*
X155847215Y-74651968D01*
X155847219Y-74651966D01*
X155991966Y-74507219D01*
X155991968Y-74507215D01*
X155991971Y-74507213D01*
X156064291Y-74407671D01*
X156112287Y-74341610D01*
X156205220Y-74159219D01*
X156268477Y-73964534D01*
X156300500Y-73762352D01*
X156300500Y-73557648D01*
X156290639Y-73495395D01*
X156282013Y-73440929D01*
X156290967Y-73371636D01*
X156316802Y-73333853D01*
X157192838Y-72457819D01*
X157254161Y-72424334D01*
X157280519Y-72421500D01*
X159110473Y-72421500D01*
X159177512Y-72441185D01*
X159223267Y-72493989D01*
X159233211Y-72563147D01*
X159204186Y-72626703D01*
X159183357Y-72645819D01*
X159152784Y-72668030D01*
X159008028Y-72812786D01*
X158887715Y-72978386D01*
X158794781Y-73160776D01*
X158731522Y-73355465D01*
X158699500Y-73557648D01*
X158699500Y-73762351D01*
X158731522Y-73964534D01*
X158794781Y-74159223D01*
X158887715Y-74341613D01*
X159008028Y-74507213D01*
X159152786Y-74651971D01*
X159276656Y-74741966D01*
X159318390Y-74772287D01*
X159407416Y-74817648D01*
X159500776Y-74865218D01*
X159500778Y-74865218D01*
X159500781Y-74865220D01*
X159605137Y-74899127D01*
X159695465Y-74928477D01*
X159714697Y-74931523D01*
X159897648Y-74960500D01*
X159897649Y-74960500D01*
X160102351Y-74960500D01*
X160102352Y-74960500D01*
X160304534Y-74928477D01*
X160499219Y-74865220D01*
X160681610Y-74772287D01*
X160774590Y-74704732D01*
X160847213Y-74651971D01*
X160847215Y-74651968D01*
X160847219Y-74651966D01*
X160991966Y-74507219D01*
X160991968Y-74507215D01*
X160991971Y-74507213D01*
X161064291Y-74407671D01*
X161112287Y-74341610D01*
X161205220Y-74159219D01*
X161268477Y-73964534D01*
X161300500Y-73762352D01*
X161300500Y-73647648D01*
X162199500Y-73647648D01*
X162199500Y-73852351D01*
X162231522Y-74054534D01*
X162294781Y-74249223D01*
X162343973Y-74345766D01*
X162382195Y-74420781D01*
X162387715Y-74431613D01*
X162508028Y-74597213D01*
X162652786Y-74741971D01*
X162807749Y-74854556D01*
X162818390Y-74862287D01*
X162934607Y-74921503D01*
X163000776Y-74955218D01*
X163000778Y-74955218D01*
X163000781Y-74955220D01*
X163105137Y-74989127D01*
X163195465Y-75018477D01*
X163219931Y-75022352D01*
X163397648Y-75050500D01*
X163397649Y-75050500D01*
X163602351Y-75050500D01*
X163602352Y-75050500D01*
X163804534Y-75018477D01*
X163999219Y-74955220D01*
X164181610Y-74862287D01*
X164274590Y-74794732D01*
X164347213Y-74741971D01*
X164347215Y-74741968D01*
X164347219Y-74741966D01*
X164491966Y-74597219D01*
X164491968Y-74597215D01*
X164491971Y-74597213D01*
X164597379Y-74452129D01*
X164612287Y-74431610D01*
X164705220Y-74249219D01*
X164768477Y-74054534D01*
X164800500Y-73852352D01*
X164800500Y-73647648D01*
X164768477Y-73445466D01*
X164705220Y-73250781D01*
X164705218Y-73250778D01*
X164705218Y-73250776D01*
X164671503Y-73184607D01*
X164612287Y-73068390D01*
X164546896Y-72978386D01*
X164491971Y-72902786D01*
X164347213Y-72758028D01*
X164181613Y-72637715D01*
X164181612Y-72637714D01*
X164181610Y-72637713D01*
X164088928Y-72590489D01*
X163999223Y-72544781D01*
X163804534Y-72481522D01*
X163621362Y-72452511D01*
X163602352Y-72449500D01*
X163397648Y-72449500D01*
X163378638Y-72452511D01*
X163195465Y-72481522D01*
X163000776Y-72544781D01*
X162818386Y-72637715D01*
X162652786Y-72758028D01*
X162508028Y-72902786D01*
X162387715Y-73068386D01*
X162294781Y-73250776D01*
X162231522Y-73445465D01*
X162199500Y-73647648D01*
X161300500Y-73647648D01*
X161300500Y-73557648D01*
X161268477Y-73355466D01*
X161205220Y-73160781D01*
X161205218Y-73160778D01*
X161205218Y-73160776D01*
X161158142Y-73068386D01*
X161112287Y-72978390D01*
X161057358Y-72902786D01*
X160991971Y-72812786D01*
X160847215Y-72668030D01*
X160816643Y-72645819D01*
X160773976Y-72590489D01*
X160767997Y-72520876D01*
X160800602Y-72459081D01*
X160861440Y-72424723D01*
X160889527Y-72421500D01*
X161239467Y-72421500D01*
X161330511Y-72403389D01*
X161374799Y-72394580D01*
X161438540Y-72368177D01*
X161502278Y-72341777D01*
X161502279Y-72341776D01*
X161502282Y-72341775D01*
X161617014Y-72265114D01*
X165766309Y-68115819D01*
X165827632Y-68082334D01*
X165853990Y-68079500D01*
X168864524Y-68079500D01*
X168931563Y-68099185D01*
G37*
%TD.AperFunction*%
%TA.AperFunction,Conductor*%
G36*
X173104520Y-68099185D02*
G01*
X173125162Y-68115819D01*
X173251161Y-68241817D01*
X173346886Y-68337542D01*
X173399010Y-68389666D01*
X173444459Y-68435115D01*
X173559182Y-68511771D01*
X173559186Y-68511773D01*
X173559189Y-68511775D01*
X173633866Y-68542707D01*
X173686671Y-68564580D01*
X173713591Y-68569934D01*
X173810630Y-68589237D01*
X173822006Y-68591500D01*
X173822007Y-68591500D01*
X174117173Y-68591500D01*
X174184212Y-68611185D01*
X174229967Y-68663989D01*
X174239911Y-68733147D01*
X174231734Y-68762950D01*
X174230263Y-68766503D01*
X174230262Y-68766506D01*
X174230261Y-68766510D01*
X174199500Y-68921153D01*
X174199500Y-69078846D01*
X174230261Y-69233489D01*
X174230264Y-69233501D01*
X174290602Y-69379172D01*
X174290609Y-69379185D01*
X174378210Y-69510288D01*
X174378213Y-69510292D01*
X174489707Y-69621786D01*
X174489711Y-69621789D01*
X174620814Y-69709390D01*
X174620827Y-69709397D01*
X174766498Y-69769735D01*
X174766503Y-69769737D01*
X174921153Y-69800499D01*
X174921156Y-69800500D01*
X174921158Y-69800500D01*
X175078844Y-69800500D01*
X175078845Y-69800499D01*
X175233497Y-69769737D01*
X175379179Y-69709394D01*
X175510289Y-69621789D01*
X175621789Y-69510289D01*
X175709394Y-69379179D01*
X175769737Y-69233497D01*
X175800500Y-69078842D01*
X175800500Y-68921158D01*
X175800500Y-68921155D01*
X175800499Y-68921153D01*
X175786714Y-68851853D01*
X175769737Y-68766503D01*
X175768266Y-68762953D01*
X175768050Y-68760945D01*
X175767969Y-68760676D01*
X175768020Y-68760660D01*
X175760796Y-68693487D01*
X175792069Y-68631007D01*
X175852157Y-68595353D01*
X175882827Y-68591500D01*
X179187068Y-68591500D01*
X179254107Y-68611185D01*
X179299862Y-68663989D01*
X179309806Y-68733147D01*
X179280781Y-68796703D01*
X179274749Y-68803181D01*
X173953749Y-74124181D01*
X173892426Y-74157666D01*
X173866068Y-74160500D01*
X171615476Y-74160500D01*
X171548437Y-74140815D01*
X171502682Y-74088011D01*
X171492738Y-74018853D01*
X171497545Y-73998183D01*
X171508475Y-73964542D01*
X171508475Y-73964538D01*
X171508477Y-73964534D01*
X171540500Y-73762352D01*
X171540500Y-73557648D01*
X171508477Y-73355466D01*
X171445220Y-73160781D01*
X171445218Y-73160778D01*
X171445218Y-73160776D01*
X171398142Y-73068386D01*
X171352287Y-72978390D01*
X171297358Y-72902786D01*
X171231971Y-72812786D01*
X171087213Y-72668028D01*
X171038357Y-72632533D01*
X170921614Y-72547715D01*
X170915006Y-72544348D01*
X170828917Y-72500483D01*
X170778123Y-72452511D01*
X170761328Y-72384690D01*
X170783865Y-72318555D01*
X170828917Y-72279516D01*
X170921610Y-72232287D01*
X170955648Y-72207557D01*
X171087213Y-72111971D01*
X171087215Y-72111968D01*
X171087219Y-72111966D01*
X171231966Y-71967219D01*
X171231968Y-71967215D01*
X171231971Y-71967213D01*
X171308847Y-71861400D01*
X171352287Y-71801610D01*
X171445220Y-71619219D01*
X171458754Y-71577565D01*
X171498190Y-71519892D01*
X171562549Y-71492693D01*
X171631395Y-71504607D01*
X171682871Y-71551851D01*
X171697612Y-71597757D01*
X171699237Y-71597500D01*
X171732009Y-71804417D01*
X171795244Y-71999031D01*
X171888141Y-72181350D01*
X171888147Y-72181359D01*
X171920523Y-72225921D01*
X171920524Y-72225922D01*
X172600000Y-71546446D01*
X172600000Y-71552661D01*
X172627259Y-71654394D01*
X172679920Y-71745606D01*
X172754394Y-71820080D01*
X172845606Y-71872741D01*
X172947339Y-71900000D01*
X172953553Y-71900000D01*
X172274076Y-72579474D01*
X172318650Y-72611859D01*
X172500968Y-72704755D01*
X172695582Y-72767990D01*
X172897683Y-72800000D01*
X173102317Y-72800000D01*
X173304417Y-72767990D01*
X173499031Y-72704755D01*
X173681349Y-72611859D01*
X173725921Y-72579474D01*
X173046447Y-71900000D01*
X173052661Y-71900000D01*
X173154394Y-71872741D01*
X173245606Y-71820080D01*
X173320080Y-71745606D01*
X173372741Y-71654394D01*
X173400000Y-71552661D01*
X173400000Y-71546448D01*
X174079474Y-72225922D01*
X174079474Y-72225921D01*
X174111859Y-72181349D01*
X174204755Y-71999031D01*
X174267990Y-71804417D01*
X174300000Y-71602317D01*
X174300000Y-71397682D01*
X174267990Y-71195582D01*
X174204755Y-71000968D01*
X174111859Y-70818650D01*
X174079474Y-70774077D01*
X174079474Y-70774076D01*
X173400000Y-71453551D01*
X173400000Y-71447339D01*
X173372741Y-71345606D01*
X173320080Y-71254394D01*
X173245606Y-71179920D01*
X173154394Y-71127259D01*
X173052661Y-71100000D01*
X173046446Y-71100000D01*
X173725922Y-70420524D01*
X173725921Y-70420523D01*
X173681359Y-70388147D01*
X173681350Y-70388141D01*
X173499031Y-70295244D01*
X173304417Y-70232009D01*
X173102317Y-70200000D01*
X172897683Y-70200000D01*
X172695582Y-70232009D01*
X172500968Y-70295244D01*
X172318644Y-70388143D01*
X172274077Y-70420523D01*
X172274077Y-70420524D01*
X172953554Y-71100000D01*
X172947339Y-71100000D01*
X172845606Y-71127259D01*
X172754394Y-71179920D01*
X172679920Y-71254394D01*
X172627259Y-71345606D01*
X172600000Y-71447339D01*
X172600000Y-71453553D01*
X171920524Y-70774077D01*
X171920523Y-70774077D01*
X171888143Y-70818644D01*
X171795242Y-71000972D01*
X171781752Y-71042491D01*
X171742314Y-71100166D01*
X171677955Y-71127363D01*
X171609108Y-71115447D01*
X171557634Y-71068202D01*
X171542876Y-71022204D01*
X171541262Y-71022460D01*
X171508477Y-70815465D01*
X171455619Y-70652786D01*
X171445220Y-70620781D01*
X171445218Y-70620778D01*
X171445218Y-70620776D01*
X171395947Y-70524078D01*
X171371025Y-70475166D01*
X171352287Y-70438390D01*
X171352285Y-70438387D01*
X171352284Y-70438385D01*
X171231971Y-70272786D01*
X171087213Y-70128028D01*
X170921614Y-70007715D01*
X170915006Y-70004348D01*
X170828917Y-69960483D01*
X170778123Y-69912511D01*
X170761328Y-69844690D01*
X170783865Y-69778555D01*
X170828917Y-69739516D01*
X170921610Y-69692287D01*
X171018643Y-69621789D01*
X171087213Y-69571971D01*
X171087215Y-69571968D01*
X171087219Y-69571966D01*
X171231966Y-69427219D01*
X171231968Y-69427215D01*
X171231971Y-69427213D01*
X171294164Y-69341610D01*
X171352287Y-69261610D01*
X171445220Y-69079219D01*
X171508477Y-68884534D01*
X171540500Y-68682352D01*
X171540500Y-68477648D01*
X171508477Y-68275466D01*
X171508475Y-68275462D01*
X171508475Y-68275457D01*
X171497545Y-68241817D01*
X171495550Y-68171976D01*
X171531631Y-68112144D01*
X171594332Y-68081316D01*
X171615476Y-68079500D01*
X173037481Y-68079500D01*
X173104520Y-68099185D01*
G37*
%TD.AperFunction*%
%TA.AperFunction,Conductor*%
G36*
X180748071Y-52201275D02*
G01*
X180750742Y-52200614D01*
X180781407Y-52211063D01*
X180812470Y-52220185D01*
X180814270Y-52222262D01*
X180816877Y-52223151D01*
X180837028Y-52248527D01*
X180858225Y-52272989D01*
X180858616Y-52275711D01*
X180860328Y-52277867D01*
X180863559Y-52310088D01*
X180868169Y-52342147D01*
X180867109Y-52345488D01*
X180867300Y-52347387D01*
X180855916Y-52380795D01*
X180794781Y-52500776D01*
X180731522Y-52695465D01*
X180699500Y-52897648D01*
X180699500Y-53102351D01*
X180731522Y-53304534D01*
X180794781Y-53499223D01*
X180887715Y-53681613D01*
X181008028Y-53847213D01*
X181152786Y-53991971D01*
X181303694Y-54101610D01*
X181318390Y-54112287D01*
X181409051Y-54158481D01*
X181500776Y-54205218D01*
X181500778Y-54205218D01*
X181500781Y-54205220D01*
X181605137Y-54239127D01*
X181695465Y-54268477D01*
X181783699Y-54282452D01*
X181897648Y-54300500D01*
X181897649Y-54300500D01*
X182102351Y-54300500D01*
X182102352Y-54300500D01*
X182304534Y-54268477D01*
X182499219Y-54205220D01*
X182681610Y-54112287D01*
X182824169Y-54008713D01*
X182847213Y-53991971D01*
X182847215Y-53991968D01*
X182847219Y-53991966D01*
X182991966Y-53847219D01*
X182991968Y-53847215D01*
X182991971Y-53847213D01*
X183044732Y-53774590D01*
X183112287Y-53681610D01*
X183205220Y-53499219D01*
X183268477Y-53304534D01*
X183300500Y-53102352D01*
X183300500Y-52897648D01*
X183268477Y-52695465D01*
X183205218Y-52500776D01*
X183144084Y-52380795D01*
X183131188Y-52312126D01*
X183157464Y-52247385D01*
X183214571Y-52207128D01*
X183254569Y-52200500D01*
X190905431Y-52200500D01*
X190972470Y-52220185D01*
X191018225Y-52272989D01*
X191028169Y-52342147D01*
X191015916Y-52380795D01*
X190954781Y-52500776D01*
X190891522Y-52695465D01*
X190859500Y-52897648D01*
X190859500Y-53102351D01*
X190891522Y-53304534D01*
X190954781Y-53499223D01*
X191047715Y-53681613D01*
X191168028Y-53847213D01*
X191312786Y-53991971D01*
X191463694Y-54101610D01*
X191478390Y-54112287D01*
X191569051Y-54158481D01*
X191660776Y-54205218D01*
X191660778Y-54205218D01*
X191660781Y-54205220D01*
X191765137Y-54239127D01*
X191855465Y-54268477D01*
X191943699Y-54282452D01*
X192057648Y-54300500D01*
X192057649Y-54300500D01*
X192262351Y-54300500D01*
X192262352Y-54300500D01*
X192464534Y-54268477D01*
X192659219Y-54205220D01*
X192841610Y-54112287D01*
X192984169Y-54008713D01*
X193007213Y-53991971D01*
X193007215Y-53991968D01*
X193007219Y-53991966D01*
X193151966Y-53847219D01*
X193151968Y-53847215D01*
X193151971Y-53847213D01*
X193204732Y-53774590D01*
X193272287Y-53681610D01*
X193365220Y-53499219D01*
X193428477Y-53304534D01*
X193460500Y-53102352D01*
X193460500Y-52897648D01*
X193436174Y-52744062D01*
X193445128Y-52674771D01*
X193490124Y-52621319D01*
X193556876Y-52600679D01*
X193624190Y-52619404D01*
X193646328Y-52636985D01*
X193833181Y-52823838D01*
X193866666Y-52885161D01*
X193869500Y-52911519D01*
X193869500Y-54431006D01*
X193869500Y-54568994D01*
X193869500Y-54568996D01*
X193869499Y-54568996D01*
X193896418Y-54704322D01*
X193896421Y-54704332D01*
X193949222Y-54831807D01*
X194025887Y-54946545D01*
X194025888Y-54946546D01*
X204357162Y-65277819D01*
X204390647Y-65339142D01*
X204385663Y-65408834D01*
X204343791Y-65464767D01*
X204278327Y-65489184D01*
X204269481Y-65489500D01*
X204171578Y-65489500D01*
X203977173Y-65520290D01*
X203789970Y-65581117D01*
X203614594Y-65670476D01*
X203525146Y-65735465D01*
X203455354Y-65786172D01*
X203455352Y-65786174D01*
X203455351Y-65786174D01*
X203316174Y-65925351D01*
X203316174Y-65925352D01*
X203316172Y-65925354D01*
X203266485Y-65993741D01*
X203200476Y-66084594D01*
X203110485Y-66261213D01*
X203062511Y-66312009D01*
X202994690Y-66328804D01*
X202928555Y-66306267D01*
X202889515Y-66261213D01*
X202828952Y-66142351D01*
X202799524Y-66084595D01*
X202683828Y-65925354D01*
X202544646Y-65786172D01*
X202385405Y-65670476D01*
X202210029Y-65581117D01*
X202022826Y-65520290D01*
X201828422Y-65489500D01*
X201828417Y-65489500D01*
X201631583Y-65489500D01*
X201631577Y-65489500D01*
X201554629Y-65501687D01*
X201485336Y-65492732D01*
X201447551Y-65466895D01*
X197735546Y-61754888D01*
X197735545Y-61754887D01*
X197620807Y-61678222D01*
X197493332Y-61625421D01*
X197493322Y-61625418D01*
X197357996Y-61598500D01*
X197357994Y-61598500D01*
X197357993Y-61598500D01*
X171570636Y-61598500D01*
X171503597Y-61578815D01*
X171457842Y-61526011D01*
X171447898Y-61456853D01*
X171452703Y-61436186D01*
X171508477Y-61264534D01*
X171540500Y-61062352D01*
X171540500Y-60857648D01*
X171521362Y-60736819D01*
X171508477Y-60655465D01*
X171463163Y-60516004D01*
X171445220Y-60460781D01*
X171445218Y-60460778D01*
X171445218Y-60460776D01*
X171388519Y-60349500D01*
X171352287Y-60278390D01*
X171344556Y-60267749D01*
X171231971Y-60112786D01*
X171087213Y-59968028D01*
X170990342Y-59897648D01*
X180699500Y-59897648D01*
X180699500Y-60102351D01*
X180731522Y-60304534D01*
X180794781Y-60499223D01*
X180857565Y-60622441D01*
X180874391Y-60655465D01*
X180887715Y-60681613D01*
X181008028Y-60847213D01*
X181152786Y-60991971D01*
X181307749Y-61104556D01*
X181318390Y-61112287D01*
X181434607Y-61171503D01*
X181500776Y-61205218D01*
X181500778Y-61205218D01*
X181500781Y-61205220D01*
X181578859Y-61230589D01*
X181695465Y-61268477D01*
X181796557Y-61284488D01*
X181897648Y-61300500D01*
X181897649Y-61300500D01*
X182102351Y-61300500D01*
X182102352Y-61300500D01*
X182304534Y-61268477D01*
X182499219Y-61205220D01*
X182681610Y-61112287D01*
X182774590Y-61044732D01*
X182847213Y-60991971D01*
X182847215Y-60991968D01*
X182847219Y-60991966D01*
X182991966Y-60847219D01*
X182991968Y-60847215D01*
X182991971Y-60847213D01*
X183062236Y-60750500D01*
X183112287Y-60681610D01*
X183205220Y-60499219D01*
X183268477Y-60304534D01*
X183300500Y-60102352D01*
X183300500Y-59897648D01*
X190859500Y-59897648D01*
X190859500Y-60102351D01*
X190891522Y-60304534D01*
X190954781Y-60499223D01*
X191017565Y-60622441D01*
X191034391Y-60655465D01*
X191047715Y-60681613D01*
X191168028Y-60847213D01*
X191312786Y-60991971D01*
X191467749Y-61104556D01*
X191478390Y-61112287D01*
X191594607Y-61171503D01*
X191660776Y-61205218D01*
X191660778Y-61205218D01*
X191660781Y-61205220D01*
X191738859Y-61230589D01*
X191855465Y-61268477D01*
X191956557Y-61284488D01*
X192057648Y-61300500D01*
X192057649Y-61300500D01*
X192262351Y-61300500D01*
X192262352Y-61300500D01*
X192464534Y-61268477D01*
X192659219Y-61205220D01*
X192841610Y-61112287D01*
X192934590Y-61044732D01*
X193007213Y-60991971D01*
X193007215Y-60991968D01*
X193007219Y-60991966D01*
X193151966Y-60847219D01*
X193151968Y-60847215D01*
X193151971Y-60847213D01*
X193222236Y-60750500D01*
X193272287Y-60681610D01*
X193365220Y-60499219D01*
X193428477Y-60304534D01*
X193460500Y-60102352D01*
X193460500Y-59897648D01*
X193428477Y-59695466D01*
X193365220Y-59500781D01*
X193365218Y-59500778D01*
X193365218Y-59500776D01*
X193303284Y-59379225D01*
X193272287Y-59318390D01*
X193244261Y-59279815D01*
X193151971Y-59152786D01*
X193007213Y-59008028D01*
X192841613Y-58887715D01*
X192841612Y-58887714D01*
X192841610Y-58887713D01*
X192784653Y-58858691D01*
X192659223Y-58794781D01*
X192464534Y-58731522D01*
X192289995Y-58703878D01*
X192262352Y-58699500D01*
X192057648Y-58699500D01*
X192033329Y-58703351D01*
X191855465Y-58731522D01*
X191660776Y-58794781D01*
X191478386Y-58887715D01*
X191312786Y-59008028D01*
X191168028Y-59152786D01*
X191047715Y-59318386D01*
X190954781Y-59500776D01*
X190891522Y-59695465D01*
X190859500Y-59897648D01*
X183300500Y-59897648D01*
X183268477Y-59695466D01*
X183205220Y-59500781D01*
X183205218Y-59500778D01*
X183205218Y-59500776D01*
X183143284Y-59379225D01*
X183112287Y-59318390D01*
X183084261Y-59279815D01*
X182991971Y-59152786D01*
X182847213Y-59008028D01*
X182681613Y-58887715D01*
X182681612Y-58887714D01*
X182681610Y-58887713D01*
X182624653Y-58858691D01*
X182499223Y-58794781D01*
X182304534Y-58731522D01*
X182129995Y-58703878D01*
X182102352Y-58699500D01*
X181897648Y-58699500D01*
X181873329Y-58703351D01*
X181695465Y-58731522D01*
X181500776Y-58794781D01*
X181318386Y-58887715D01*
X181152786Y-59008028D01*
X181008028Y-59152786D01*
X180887715Y-59318386D01*
X180794781Y-59500776D01*
X180731522Y-59695465D01*
X180699500Y-59897648D01*
X170990342Y-59897648D01*
X170921614Y-59847715D01*
X170915006Y-59844348D01*
X170828917Y-59800483D01*
X170778123Y-59752511D01*
X170761328Y-59684690D01*
X170783865Y-59618555D01*
X170828917Y-59579516D01*
X170921610Y-59532287D01*
X170964982Y-59500776D01*
X171087213Y-59411971D01*
X171087215Y-59411968D01*
X171087219Y-59411966D01*
X171231966Y-59267219D01*
X171231968Y-59267215D01*
X171231971Y-59267213D01*
X171311424Y-59157853D01*
X171352287Y-59101610D01*
X171445220Y-58919219D01*
X171508477Y-58724534D01*
X171540500Y-58522352D01*
X171540500Y-58317648D01*
X171508477Y-58115466D01*
X171445220Y-57920781D01*
X171445218Y-57920778D01*
X171445218Y-57920776D01*
X171393047Y-57818386D01*
X171352287Y-57738390D01*
X171328188Y-57705220D01*
X171231971Y-57572786D01*
X171087213Y-57428028D01*
X170921614Y-57307715D01*
X170915006Y-57304348D01*
X170828917Y-57260483D01*
X170778123Y-57212511D01*
X170761328Y-57144690D01*
X170783865Y-57078555D01*
X170828917Y-57039516D01*
X170921610Y-56992287D01*
X170942770Y-56976913D01*
X171087213Y-56871971D01*
X171087215Y-56871968D01*
X171087219Y-56871966D01*
X171231966Y-56727219D01*
X171231968Y-56727215D01*
X171231971Y-56727213D01*
X171322687Y-56602351D01*
X171352287Y-56561610D01*
X171435830Y-56397648D01*
X180699500Y-56397648D01*
X180699500Y-56602351D01*
X180731522Y-56804534D01*
X180794781Y-56999223D01*
X180887715Y-57181613D01*
X181008028Y-57347213D01*
X181152786Y-57491971D01*
X181264014Y-57572781D01*
X181318390Y-57612287D01*
X181397864Y-57652781D01*
X181500776Y-57705218D01*
X181500778Y-57705218D01*
X181500781Y-57705220D01*
X181602855Y-57738386D01*
X181695465Y-57768477D01*
X181796557Y-57784488D01*
X181897648Y-57800500D01*
X181897649Y-57800500D01*
X182102351Y-57800500D01*
X182102352Y-57800500D01*
X182304534Y-57768477D01*
X182499219Y-57705220D01*
X182681610Y-57612287D01*
X182774590Y-57544732D01*
X182847213Y-57491971D01*
X182847215Y-57491968D01*
X182847219Y-57491966D01*
X182991966Y-57347219D01*
X182991968Y-57347215D01*
X182991971Y-57347213D01*
X183076024Y-57231522D01*
X183112287Y-57181610D01*
X183205220Y-56999219D01*
X183268477Y-56804534D01*
X183300500Y-56602352D01*
X183300500Y-56397648D01*
X190859500Y-56397648D01*
X190859500Y-56602351D01*
X190891522Y-56804534D01*
X190954781Y-56999223D01*
X191047715Y-57181613D01*
X191168028Y-57347213D01*
X191312786Y-57491971D01*
X191424014Y-57572781D01*
X191478390Y-57612287D01*
X191557864Y-57652781D01*
X191660776Y-57705218D01*
X191660778Y-57705218D01*
X191660781Y-57705220D01*
X191762855Y-57738386D01*
X191855465Y-57768477D01*
X191956557Y-57784488D01*
X192057648Y-57800500D01*
X192057649Y-57800500D01*
X192262351Y-57800500D01*
X192262352Y-57800500D01*
X192464534Y-57768477D01*
X192659219Y-57705220D01*
X192841610Y-57612287D01*
X192934590Y-57544732D01*
X193007213Y-57491971D01*
X193007215Y-57491968D01*
X193007219Y-57491966D01*
X193151966Y-57347219D01*
X193151968Y-57347215D01*
X193151971Y-57347213D01*
X193236024Y-57231522D01*
X193272287Y-57181610D01*
X193365220Y-56999219D01*
X193428477Y-56804534D01*
X193460500Y-56602352D01*
X193460500Y-56397648D01*
X193428477Y-56195466D01*
X193365220Y-56000781D01*
X193365218Y-56000778D01*
X193365218Y-56000776D01*
X193331503Y-55934607D01*
X193272287Y-55818390D01*
X193264556Y-55807749D01*
X193151971Y-55652786D01*
X193007213Y-55508028D01*
X192841613Y-55387715D01*
X192841612Y-55387714D01*
X192841610Y-55387713D01*
X192784653Y-55358691D01*
X192659223Y-55294781D01*
X192464534Y-55231522D01*
X192289995Y-55203878D01*
X192262352Y-55199500D01*
X192057648Y-55199500D01*
X192033329Y-55203351D01*
X191855465Y-55231522D01*
X191660776Y-55294781D01*
X191478386Y-55387715D01*
X191312786Y-55508028D01*
X191168028Y-55652786D01*
X191047715Y-55818386D01*
X190954781Y-56000776D01*
X190891522Y-56195465D01*
X190859500Y-56397648D01*
X183300500Y-56397648D01*
X183268477Y-56195466D01*
X183205220Y-56000781D01*
X183205218Y-56000778D01*
X183205218Y-56000776D01*
X183171503Y-55934607D01*
X183112287Y-55818390D01*
X183104556Y-55807749D01*
X182991971Y-55652786D01*
X182847213Y-55508028D01*
X182681613Y-55387715D01*
X182681612Y-55387714D01*
X182681610Y-55387713D01*
X182624653Y-55358691D01*
X182499223Y-55294781D01*
X182304534Y-55231522D01*
X182129995Y-55203878D01*
X182102352Y-55199500D01*
X181897648Y-55199500D01*
X181873329Y-55203351D01*
X181695465Y-55231522D01*
X181500776Y-55294781D01*
X181318386Y-55387715D01*
X181152786Y-55508028D01*
X181008028Y-55652786D01*
X180887715Y-55818386D01*
X180794781Y-56000776D01*
X180731522Y-56195465D01*
X180699500Y-56397648D01*
X171435830Y-56397648D01*
X171445220Y-56379219D01*
X171508477Y-56184534D01*
X171540500Y-55982352D01*
X171540500Y-55777648D01*
X171521014Y-55654620D01*
X171508477Y-55575465D01*
X171472747Y-55465500D01*
X171445220Y-55380781D01*
X171445218Y-55380778D01*
X171445218Y-55380776D01*
X171388800Y-55270051D01*
X171352287Y-55198390D01*
X171344556Y-55187749D01*
X171231971Y-55032786D01*
X171087213Y-54888028D01*
X170921613Y-54767715D01*
X170921612Y-54767714D01*
X170921610Y-54767713D01*
X170850717Y-54731591D01*
X170739223Y-54674781D01*
X170544534Y-54611522D01*
X170369995Y-54583878D01*
X170342352Y-54579500D01*
X170137648Y-54579500D01*
X170113329Y-54583351D01*
X169935465Y-54611522D01*
X169740776Y-54674781D01*
X169558386Y-54767715D01*
X169392786Y-54888028D01*
X169248028Y-55032786D01*
X169127715Y-55198386D01*
X169034781Y-55380776D01*
X168971522Y-55575465D01*
X168939500Y-55777648D01*
X168939500Y-55982351D01*
X168971522Y-56184534D01*
X169034781Y-56379223D01*
X169090147Y-56487883D01*
X169120514Y-56547482D01*
X169127715Y-56561613D01*
X169248028Y-56727213D01*
X169392786Y-56871971D01*
X169547749Y-56984556D01*
X169558390Y-56992287D01*
X169649840Y-57038883D01*
X169651080Y-57039515D01*
X169701876Y-57087490D01*
X169718671Y-57155311D01*
X169696134Y-57221446D01*
X169651080Y-57260485D01*
X169558386Y-57307715D01*
X169392786Y-57428028D01*
X169248028Y-57572786D01*
X169127715Y-57738386D01*
X169034781Y-57920776D01*
X168971522Y-58115465D01*
X168939500Y-58317648D01*
X168939500Y-58522351D01*
X168971522Y-58724534D01*
X169034781Y-58919223D01*
X169127715Y-59101613D01*
X169248028Y-59267213D01*
X169392786Y-59411971D01*
X169515018Y-59500776D01*
X169558390Y-59532287D01*
X169649840Y-59578883D01*
X169651080Y-59579515D01*
X169701876Y-59627490D01*
X169718671Y-59695311D01*
X169696134Y-59761446D01*
X169651080Y-59800485D01*
X169558386Y-59847715D01*
X169392786Y-59968028D01*
X169248028Y-60112786D01*
X169127715Y-60278386D01*
X169034781Y-60460776D01*
X168971522Y-60655465D01*
X168939500Y-60857648D01*
X168939500Y-61062351D01*
X168971522Y-61264534D01*
X168988538Y-61316901D01*
X169027295Y-61436182D01*
X169029290Y-61506023D01*
X168993210Y-61565856D01*
X168930509Y-61596684D01*
X168909364Y-61598500D01*
X166420474Y-61598500D01*
X166312061Y-61620065D01*
X166312060Y-61620065D01*
X166298602Y-61622742D01*
X166285144Y-61625419D01*
X166258739Y-61636356D01*
X166232337Y-61647292D01*
X166232335Y-61647293D01*
X166232334Y-61647292D01*
X166157662Y-61678223D01*
X166069491Y-61737138D01*
X166042928Y-61754886D01*
X166042922Y-61754891D01*
X164826514Y-62971298D01*
X164765191Y-63004783D01*
X164695499Y-62999799D01*
X164639566Y-62957927D01*
X164628348Y-62939912D01*
X164612284Y-62908385D01*
X164491971Y-62742786D01*
X164347213Y-62598028D01*
X164181613Y-62477715D01*
X164181612Y-62477714D01*
X164181610Y-62477713D01*
X164092088Y-62432099D01*
X163999223Y-62384781D01*
X163804534Y-62321522D01*
X163621362Y-62292511D01*
X163602352Y-62289500D01*
X163397648Y-62289500D01*
X163378638Y-62292511D01*
X163195465Y-62321522D01*
X163000776Y-62384781D01*
X162818386Y-62477715D01*
X162652786Y-62598028D01*
X162508028Y-62742786D01*
X162387715Y-62908386D01*
X162294781Y-63090776D01*
X162231522Y-63285465D01*
X162199500Y-63487648D01*
X162199500Y-63692351D01*
X162231522Y-63894534D01*
X162294781Y-64089223D01*
X162341857Y-64181613D01*
X162382619Y-64261613D01*
X162387715Y-64271613D01*
X162508028Y-64437213D01*
X162652786Y-64581971D01*
X162818385Y-64702284D01*
X162818387Y-64702285D01*
X162818390Y-64702287D01*
X162849912Y-64718348D01*
X162900708Y-64766322D01*
X162917503Y-64834143D01*
X162894966Y-64900278D01*
X162881298Y-64916514D01*
X161293633Y-66504181D01*
X161232310Y-66537666D01*
X161205952Y-66540500D01*
X156375476Y-66540500D01*
X156308437Y-66520815D01*
X156262682Y-66468011D01*
X156252738Y-66398853D01*
X156257545Y-66378183D01*
X156268475Y-66344542D01*
X156268475Y-66344538D01*
X156268477Y-66344534D01*
X156300500Y-66142352D01*
X156300500Y-65937648D01*
X156291768Y-65882516D01*
X156268477Y-65735465D01*
X156218326Y-65581117D01*
X156205220Y-65540781D01*
X156205218Y-65540778D01*
X156205218Y-65540776D01*
X156159931Y-65451896D01*
X156147035Y-65383227D01*
X156173311Y-65318486D01*
X156182726Y-65307929D01*
X158576316Y-62914339D01*
X158637637Y-62880856D01*
X158707329Y-62885840D01*
X158763262Y-62927712D01*
X158787679Y-62993176D01*
X158781926Y-63040340D01*
X158731523Y-63195461D01*
X158731523Y-63195464D01*
X158699500Y-63397648D01*
X158699500Y-63602351D01*
X158731522Y-63804534D01*
X158794781Y-63999223D01*
X158840637Y-64089219D01*
X158875116Y-64156888D01*
X158887715Y-64181613D01*
X159008028Y-64347213D01*
X159152786Y-64491971D01*
X159262892Y-64571966D01*
X159318390Y-64612287D01*
X159434607Y-64671503D01*
X159500776Y-64705218D01*
X159500778Y-64705218D01*
X159500781Y-64705220D01*
X159605137Y-64739127D01*
X159695465Y-64768477D01*
X159796557Y-64784488D01*
X159897648Y-64800500D01*
X159897649Y-64800500D01*
X160102351Y-64800500D01*
X160102352Y-64800500D01*
X160304534Y-64768477D01*
X160499219Y-64705220D01*
X160681610Y-64612287D01*
X160774590Y-64544732D01*
X160847213Y-64491971D01*
X160847215Y-64491968D01*
X160847219Y-64491966D01*
X160991966Y-64347219D01*
X160991968Y-64347215D01*
X160991971Y-64347213D01*
X161059363Y-64254454D01*
X161112287Y-64181610D01*
X161205220Y-63999219D01*
X161268477Y-63804534D01*
X161300500Y-63602352D01*
X161300500Y-63397648D01*
X161268477Y-63195466D01*
X161268476Y-63195464D01*
X161233120Y-63086648D01*
X161205220Y-63000781D01*
X161205218Y-63000777D01*
X161205218Y-63000776D01*
X161167989Y-62927712D01*
X161112287Y-62818390D01*
X161057358Y-62742786D01*
X160991971Y-62652786D01*
X160847213Y-62508028D01*
X160681613Y-62387715D01*
X160681612Y-62387714D01*
X160681610Y-62387713D01*
X160624653Y-62358691D01*
X160499223Y-62294781D01*
X160304534Y-62231522D01*
X160129995Y-62203878D01*
X160102352Y-62199500D01*
X159897648Y-62199500D01*
X159830254Y-62210174D01*
X159695464Y-62231523D01*
X159695461Y-62231523D01*
X159540340Y-62281926D01*
X159470499Y-62283921D01*
X159410666Y-62247841D01*
X159379838Y-62185140D01*
X159387803Y-62115726D01*
X159414338Y-62076317D01*
X169253838Y-52236819D01*
X169315161Y-52203334D01*
X169341519Y-52200500D01*
X180745431Y-52200500D01*
X180748071Y-52201275D01*
G37*
%TD.AperFunction*%
%TD*%
M02*
