M48
; DRILL file {KiCad 9.0.7} date 2026-03-21T16:53:59+1300
; FORMAT={-:-/ absolute / metric / decimal}
; #@! TF.CreationDate,2026-03-21T16:53:59+13:00
; #@! TF.GenerationSoftware,Kicad,Pcbnew,9.0.7
; #@! TF.FileFunction,Plated,1,2,PTH
FMAT,2
METRIC
; #@! TA.AperFunction,Plated,PTH,ViaDrill
T1C0.300
; #@! TA.AperFunction,Plated,PTH,ComponentDrill
T2C0.800
; #@! TA.AperFunction,Plated,PTH,ComponentDrill
T3C0.900
; #@! TA.AperFunction,Plated,PTH,ComponentDrill
T4C1.000
; #@! TA.AperFunction,Plated,PTH,ComponentDrill
T5C1.200
; #@! TA.AperFunction,Plated,PTH,ComponentDrill
T6C1.500
%
G90
G05
T1
X153.0Y-75.0
X157.0Y-75.0
X168.5Y-72.5
X175.0Y-69.0
X175.0Y-72.0
X182.0Y-77.0
X182.5Y-73.5
X186.5Y-60.0
X189.5Y-50.5
T2
X160.0Y-63.5
X160.0Y-73.66
X160.0Y-81.42
X160.0Y-91.58
X163.5Y-63.59
X163.5Y-73.75
X163.5Y-81.34
X163.5Y-91.5
X173.0Y-71.5
X182.0Y-53.0
X182.0Y-56.5
X182.0Y-60.0
X182.0Y-63.5
X183.0Y-71.5
X185.5Y-71.5
X192.16Y-53.0
X192.16Y-56.5
X192.16Y-60.0
X192.16Y-63.5
X195.5Y-71.5
X198.0Y-74.92
X198.0Y-85.08
X206.5Y-74.92
X206.5Y-85.08
X216.5Y-74.92
X216.5Y-85.08
X217.5Y-53.42
X217.5Y-63.58
X223.5Y-83.84
X223.5Y-94.0
X232.0Y-58.5
X232.0Y-68.66
T3
X194.0Y-77.42
X194.0Y-79.96
X203.0Y-77.42
X203.0Y-79.96
X212.0Y-77.42
X212.0Y-79.96
X232.0Y-53.0
X232.0Y-55.54
T4
X155.0Y-55.88
X155.0Y-58.42
X155.0Y-60.96
X155.0Y-63.5
X155.0Y-66.04
X155.0Y-68.58
X155.0Y-71.12
X155.0Y-73.66
X155.0Y-76.2
X155.0Y-78.74
X155.0Y-81.28
X155.0Y-83.82
X155.0Y-86.36
X155.0Y-88.9
X155.0Y-91.44
X170.24Y-55.88
X170.24Y-58.42
X170.24Y-60.96
X170.24Y-63.5
X170.24Y-66.04
X170.24Y-68.58
X170.24Y-71.12
X170.24Y-73.66
X170.24Y-76.2
X170.24Y-78.74
X170.24Y-81.28
X170.24Y-83.82
X170.24Y-86.36
X170.24Y-88.9
X170.24Y-91.44
X180.5Y-75.5
X180.5Y-90.0
X183.0Y-75.5
X185.5Y-75.5
X185.5Y-90.0
X194.0Y-88.74
X194.0Y-91.28
X194.0Y-93.82
X196.65Y-51.5
X196.65Y-66.74
X198.0Y-88.74
X198.0Y-91.28
X198.0Y-93.82
X199.19Y-51.5
X199.19Y-66.74
X201.73Y-51.5
X201.73Y-66.74
X203.0Y-88.74
X203.0Y-91.28
X203.0Y-93.82
X204.27Y-51.5
X204.27Y-66.74
X206.81Y-51.5
X206.81Y-66.74
X209.35Y-51.5
X209.35Y-66.74
X212.0Y-88.74
X212.0Y-91.28
X212.0Y-93.82
X216.5Y-88.74
X216.5Y-91.28
X216.5Y-93.82
X221.225Y-54.115
X223.5Y-75.5
X223.5Y-78.04
X223.5Y-80.58
X223.765Y-54.115
X241.385Y-84.735
X241.385Y-87.275
X241.385Y-92.225
X241.385Y-94.765
X251.5Y-87.5
X251.5Y-90.04
X251.5Y-92.58
T5
X237.0Y-54.5
X237.0Y-59.5
X237.0Y-71.5
X237.0Y-76.5
X249.5Y-54.5
X249.5Y-59.5
X249.5Y-71.5
X249.5Y-76.5
T6
G00X177.4Y-82.35
M15
G01X177.4Y-83.65
M16
G05
G00X188.6Y-82.35
M15
G01X188.6Y-83.65
M16
G05
M30
