%TF.GenerationSoftware,KiCad,Pcbnew,9.0.7*%
%TF.CreationDate,2026-03-21T16:53:52+13:00*%
%TF.ProjectId,PomodoroTimer,506f6d6f-646f-4726-9f54-696d65722e6b,rev?*%
%TF.SameCoordinates,Original*%
%TF.FileFunction,Soldermask,Bot*%
%TF.FilePolarity,Negative*%
%FSLAX46Y46*%
G04 Gerber Fmt 4.6, Leading zero omitted, Abs format (unit mm)*
G04 Created by KiCad (PCBNEW 9.0.7) date 2026-03-21 16:53:52*
%MOMM*%
%LPD*%
G01*
G04 APERTURE LIST*
%ADD10R,1.700000X1.700000*%
%ADD11C,1.700000*%
%ADD12C,1.600000*%
%ADD13R,2.000000X2.000000*%
%ADD14C,2.000000*%
%ADD15R,2.000000X3.200000*%
%ADD16C,1.800000*%
%ADD17O,2.900000X1.700000*%
%ADD18R,1.800000X1.800000*%
%ADD19R,1.500000X1.500000*%
%ADD20C,1.500000*%
%ADD21R,1.600000X1.600000*%
%ADD22O,1.600000X1.600000*%
G04 APERTURE END LIST*
D10*
%TO.C,SW2*%
X203000000Y-88740000D03*
D11*
X203000000Y-91280000D03*
X203000000Y-93820000D03*
%TD*%
D12*
%TO.C,R10*%
X160000000Y-63500000D03*
X160000000Y-73660000D03*
%TD*%
D10*
%TO.C,RV1*%
X223500000Y-75500000D03*
D11*
X223500000Y-78040000D03*
X223500000Y-80580000D03*
%TD*%
D13*
%TO.C,SW6*%
X185500000Y-75500000D03*
D14*
X180500000Y-75500000D03*
X183000000Y-75500000D03*
D15*
X188600000Y-83000000D03*
X177400000Y-83000000D03*
D14*
X180500000Y-90000000D03*
X185500000Y-90000000D03*
%TD*%
D16*
%TO.C,SW5*%
X243250000Y-69500000D03*
X243250000Y-78500000D03*
D17*
X237000000Y-71500000D03*
X249500000Y-71500000D03*
X237000000Y-76500000D03*
X249500000Y-76500000D03*
%TD*%
D18*
%TO.C,D3*%
X203000000Y-79960000D03*
D16*
X203000000Y-77420000D03*
%TD*%
D10*
%TO.C,LS1*%
X241385000Y-87275000D03*
D11*
X241385000Y-84735000D03*
%TD*%
D16*
%TO.C,SW4*%
X243250000Y-52500000D03*
X243250000Y-61500000D03*
D17*
X237000000Y-54500000D03*
X249500000Y-54500000D03*
X237000000Y-59500000D03*
X249500000Y-59500000D03*
%TD*%
D12*
%TO.C,R14*%
X160000000Y-91580000D03*
X160000000Y-81420000D03*
%TD*%
D10*
%TO.C,SW7*%
X251500000Y-92580000D03*
D11*
X251500000Y-90040000D03*
X251500000Y-87500000D03*
%TD*%
D18*
%TO.C,D1*%
X212000000Y-79960000D03*
D16*
X212000000Y-77420000D03*
%TD*%
D18*
%TO.C,D2*%
X232000000Y-55540000D03*
D16*
X232000000Y-53000000D03*
%TD*%
D10*
%TO.C,SW3*%
X194000000Y-88740000D03*
D11*
X194000000Y-91280000D03*
X194000000Y-93820000D03*
%TD*%
D19*
%TO.C,U1*%
X196650000Y-66740000D03*
D20*
X199190000Y-66740000D03*
X201730000Y-66740000D03*
X204270000Y-66740000D03*
X206810000Y-66740000D03*
X209350000Y-66740000D03*
X209350000Y-51500000D03*
X206810000Y-51500000D03*
X204270000Y-51500000D03*
X201730000Y-51500000D03*
X199190000Y-51500000D03*
X196650000Y-51500000D03*
%TD*%
D18*
%TO.C,D4*%
X194000000Y-79960000D03*
D16*
X194000000Y-77420000D03*
%TD*%
D10*
%TO.C,SW1*%
X212000000Y-88740000D03*
D11*
X212000000Y-91280000D03*
X212000000Y-93820000D03*
%TD*%
D12*
%TO.C,R13*%
X163500000Y-91500000D03*
X163500000Y-81340000D03*
%TD*%
%TO.C,R6*%
X163500000Y-63590000D03*
X163500000Y-73750000D03*
%TD*%
%TO.C,C2*%
X183000000Y-71500000D03*
X173000000Y-71500000D03*
%TD*%
%TO.C,R8*%
X206500000Y-74920000D03*
X206500000Y-85080000D03*
%TD*%
%TO.C,R12*%
X198000000Y-74920000D03*
X198000000Y-85080000D03*
%TD*%
%TO.C,R11*%
X217500000Y-63580000D03*
X217500000Y-53420000D03*
%TD*%
%TO.C,R9*%
X232000000Y-58500000D03*
X232000000Y-68660000D03*
%TD*%
%TO.C,C1*%
X185500000Y-71500000D03*
X195500000Y-71500000D03*
%TD*%
D10*
%TO.C,M1*%
X221225000Y-54115000D03*
D11*
X223765000Y-54115000D03*
%TD*%
D12*
%TO.C,R4*%
X192160000Y-63500000D03*
X182000000Y-63500000D03*
%TD*%
%TO.C,R7*%
X216500000Y-74920000D03*
X216500000Y-85080000D03*
%TD*%
D10*
%TO.C,Q2*%
X198000000Y-93820000D03*
D11*
X198000000Y-91280000D03*
X198000000Y-88740000D03*
%TD*%
D12*
%TO.C,R1*%
X192160000Y-60000000D03*
X182000000Y-60000000D03*
%TD*%
%TO.C,R2*%
X192160000Y-56500000D03*
X182000000Y-56500000D03*
%TD*%
%TO.C,R3*%
X192160000Y-53000000D03*
X182000000Y-53000000D03*
%TD*%
D10*
%TO.C,Q1*%
X216500000Y-93820000D03*
D11*
X216500000Y-91280000D03*
X216500000Y-88740000D03*
%TD*%
D12*
%TO.C,Rw1*%
X223500000Y-83840000D03*
X223500000Y-94000000D03*
%TD*%
D21*
%TO.C,A1*%
X155000000Y-91440000D03*
D22*
X155000000Y-88900000D03*
X155000000Y-86360000D03*
X155000000Y-83820000D03*
X155000000Y-81280000D03*
X155000000Y-78740000D03*
X155000000Y-76200000D03*
X155000000Y-73660000D03*
X155000000Y-71120000D03*
X155000000Y-68580000D03*
X155000000Y-66040000D03*
X155000000Y-63500000D03*
X155000000Y-60960000D03*
X155000000Y-58420000D03*
X155000000Y-55880000D03*
X170240000Y-55880000D03*
X170240000Y-58420000D03*
X170240000Y-60960000D03*
X170240000Y-63500000D03*
X170240000Y-66040000D03*
X170240000Y-68580000D03*
X170240000Y-71120000D03*
X170240000Y-73660000D03*
X170240000Y-76200000D03*
X170240000Y-78740000D03*
X170240000Y-81280000D03*
X170240000Y-83820000D03*
X170240000Y-86360000D03*
X170240000Y-88900000D03*
X170240000Y-91440000D03*
%TD*%
D10*
%TO.C,BT1*%
X241385000Y-92225000D03*
D11*
X241385000Y-94765000D03*
%TD*%
M02*
