%TF.GenerationSoftware,KiCad,Pcbnew,9.0.7*%
%TF.CreationDate,2026-03-21T16:53:52+13:00*%
%TF.ProjectId,PomodoroTimer,506f6d6f-646f-4726-9f54-696d65722e6b,rev?*%
%TF.SameCoordinates,Original*%
%TF.FileFunction,Legend,Bot*%
%TF.FilePolarity,Positive*%
%FSLAX46Y46*%
G04 Gerber Fmt 4.6, Leading zero omitted, Abs format (unit mm)*
G04 Created by KiCad (PCBNEW 9.0.7) date 2026-03-21 16:53:52*
%MOMM*%
%LPD*%
G01*
G04 APERTURE LIST*
%ADD10C,0.100000*%
%ADD11C,0.150000*%
%ADD12C,0.120000*%
G04 APERTURE END LIST*
D10*
X196316115Y-88714664D02*
X195982782Y-88714664D01*
X195839925Y-89238474D02*
X196316115Y-89238474D01*
X196316115Y-89238474D02*
X196316115Y-88238474D01*
X196316115Y-88238474D02*
X195839925Y-88238474D01*
X195982782Y-91321823D02*
X195839925Y-91369442D01*
X195839925Y-91369442D02*
X195792306Y-91417061D01*
X195792306Y-91417061D02*
X195744687Y-91512299D01*
X195744687Y-91512299D02*
X195744687Y-91655156D01*
X195744687Y-91655156D02*
X195792306Y-91750394D01*
X195792306Y-91750394D02*
X195839925Y-91798014D01*
X195839925Y-91798014D02*
X195935163Y-91845633D01*
X195935163Y-91845633D02*
X196316115Y-91845633D01*
X196316115Y-91845633D02*
X196316115Y-90845633D01*
X196316115Y-90845633D02*
X195982782Y-90845633D01*
X195982782Y-90845633D02*
X195887544Y-90893252D01*
X195887544Y-90893252D02*
X195839925Y-90940871D01*
X195839925Y-90940871D02*
X195792306Y-91036109D01*
X195792306Y-91036109D02*
X195792306Y-91131347D01*
X195792306Y-91131347D02*
X195839925Y-91226585D01*
X195839925Y-91226585D02*
X195887544Y-91274204D01*
X195887544Y-91274204D02*
X195982782Y-91321823D01*
X195982782Y-91321823D02*
X196316115Y-91321823D01*
X225338972Y-50872419D02*
X225005639Y-51872419D01*
X225005639Y-51872419D02*
X224672306Y-50872419D01*
X224338972Y-51872419D02*
X224338972Y-51205752D01*
X224338972Y-50872419D02*
X224386591Y-50920038D01*
X224386591Y-50920038D02*
X224338972Y-50967657D01*
X224338972Y-50967657D02*
X224291353Y-50920038D01*
X224291353Y-50920038D02*
X224338972Y-50872419D01*
X224338972Y-50872419D02*
X224338972Y-50967657D01*
X223862782Y-51872419D02*
X223862782Y-50872419D01*
X223862782Y-51253371D02*
X223767544Y-51205752D01*
X223767544Y-51205752D02*
X223577068Y-51205752D01*
X223577068Y-51205752D02*
X223481830Y-51253371D01*
X223481830Y-51253371D02*
X223434211Y-51300990D01*
X223434211Y-51300990D02*
X223386592Y-51396228D01*
X223386592Y-51396228D02*
X223386592Y-51681942D01*
X223386592Y-51681942D02*
X223434211Y-51777180D01*
X223434211Y-51777180D02*
X223481830Y-51824800D01*
X223481830Y-51824800D02*
X223577068Y-51872419D01*
X223577068Y-51872419D02*
X223767544Y-51872419D01*
X223767544Y-51872419D02*
X223862782Y-51824800D01*
X222958020Y-51872419D02*
X222958020Y-51205752D01*
X222958020Y-51396228D02*
X222910401Y-51300990D01*
X222910401Y-51300990D02*
X222862782Y-51253371D01*
X222862782Y-51253371D02*
X222767544Y-51205752D01*
X222767544Y-51205752D02*
X222672306Y-51205752D01*
X221910401Y-51872419D02*
X221910401Y-51348609D01*
X221910401Y-51348609D02*
X221958020Y-51253371D01*
X221958020Y-51253371D02*
X222053258Y-51205752D01*
X222053258Y-51205752D02*
X222243734Y-51205752D01*
X222243734Y-51205752D02*
X222338972Y-51253371D01*
X221910401Y-51824800D02*
X222005639Y-51872419D01*
X222005639Y-51872419D02*
X222243734Y-51872419D01*
X222243734Y-51872419D02*
X222338972Y-51824800D01*
X222338972Y-51824800D02*
X222386591Y-51729561D01*
X222386591Y-51729561D02*
X222386591Y-51634323D01*
X222386591Y-51634323D02*
X222338972Y-51539085D01*
X222338972Y-51539085D02*
X222243734Y-51491466D01*
X222243734Y-51491466D02*
X222005639Y-51491466D01*
X222005639Y-51491466D02*
X221910401Y-51443847D01*
X221577067Y-51205752D02*
X221196115Y-51205752D01*
X221434210Y-50872419D02*
X221434210Y-51729561D01*
X221434210Y-51729561D02*
X221386591Y-51824800D01*
X221386591Y-51824800D02*
X221291353Y-51872419D01*
X221291353Y-51872419D02*
X221196115Y-51872419D01*
X220862781Y-51872419D02*
X220862781Y-51205752D01*
X220862781Y-50872419D02*
X220910400Y-50920038D01*
X220910400Y-50920038D02*
X220862781Y-50967657D01*
X220862781Y-50967657D02*
X220815162Y-50920038D01*
X220815162Y-50920038D02*
X220862781Y-50872419D01*
X220862781Y-50872419D02*
X220862781Y-50967657D01*
X220243734Y-51872419D02*
X220338972Y-51824800D01*
X220338972Y-51824800D02*
X220386591Y-51777180D01*
X220386591Y-51777180D02*
X220434210Y-51681942D01*
X220434210Y-51681942D02*
X220434210Y-51396228D01*
X220434210Y-51396228D02*
X220386591Y-51300990D01*
X220386591Y-51300990D02*
X220338972Y-51253371D01*
X220338972Y-51253371D02*
X220243734Y-51205752D01*
X220243734Y-51205752D02*
X220100877Y-51205752D01*
X220100877Y-51205752D02*
X220005639Y-51253371D01*
X220005639Y-51253371D02*
X219958020Y-51300990D01*
X219958020Y-51300990D02*
X219910401Y-51396228D01*
X219910401Y-51396228D02*
X219910401Y-51681942D01*
X219910401Y-51681942D02*
X219958020Y-51777180D01*
X219958020Y-51777180D02*
X220005639Y-51824800D01*
X220005639Y-51824800D02*
X220100877Y-51872419D01*
X220100877Y-51872419D02*
X220243734Y-51872419D01*
X219481829Y-51205752D02*
X219481829Y-51872419D01*
X219481829Y-51300990D02*
X219434210Y-51253371D01*
X219434210Y-51253371D02*
X219338972Y-51205752D01*
X219338972Y-51205752D02*
X219196115Y-51205752D01*
X219196115Y-51205752D02*
X219100877Y-51253371D01*
X219100877Y-51253371D02*
X219053258Y-51348609D01*
X219053258Y-51348609D02*
X219053258Y-51872419D01*
X214482782Y-91281629D02*
X214339925Y-91329248D01*
X214339925Y-91329248D02*
X214292306Y-91376867D01*
X214292306Y-91376867D02*
X214244687Y-91472105D01*
X214244687Y-91472105D02*
X214244687Y-91614962D01*
X214244687Y-91614962D02*
X214292306Y-91710200D01*
X214292306Y-91710200D02*
X214339925Y-91757820D01*
X214339925Y-91757820D02*
X214435163Y-91805439D01*
X214435163Y-91805439D02*
X214816115Y-91805439D01*
X214816115Y-91805439D02*
X214816115Y-90805439D01*
X214816115Y-90805439D02*
X214482782Y-90805439D01*
X214482782Y-90805439D02*
X214387544Y-90853058D01*
X214387544Y-90853058D02*
X214339925Y-90900677D01*
X214339925Y-90900677D02*
X214292306Y-90995915D01*
X214292306Y-90995915D02*
X214292306Y-91091153D01*
X214292306Y-91091153D02*
X214339925Y-91186391D01*
X214339925Y-91186391D02*
X214387544Y-91234010D01*
X214387544Y-91234010D02*
X214482782Y-91281629D01*
X214482782Y-91281629D02*
X214816115Y-91281629D01*
X244696115Y-91991466D02*
X243934211Y-91991466D01*
X244315163Y-92372419D02*
X244315163Y-91610514D01*
X179763734Y-68967657D02*
X179716115Y-68920038D01*
X179716115Y-68920038D02*
X179620877Y-68872419D01*
X179620877Y-68872419D02*
X179382782Y-68872419D01*
X179382782Y-68872419D02*
X179287544Y-68920038D01*
X179287544Y-68920038D02*
X179239925Y-68967657D01*
X179239925Y-68967657D02*
X179192306Y-69062895D01*
X179192306Y-69062895D02*
X179192306Y-69158133D01*
X179192306Y-69158133D02*
X179239925Y-69300990D01*
X179239925Y-69300990D02*
X179811353Y-69872419D01*
X179811353Y-69872419D02*
X179192306Y-69872419D01*
X178573258Y-68872419D02*
X178478020Y-68872419D01*
X178478020Y-68872419D02*
X178382782Y-68920038D01*
X178382782Y-68920038D02*
X178335163Y-68967657D01*
X178335163Y-68967657D02*
X178287544Y-69062895D01*
X178287544Y-69062895D02*
X178239925Y-69253371D01*
X178239925Y-69253371D02*
X178239925Y-69491466D01*
X178239925Y-69491466D02*
X178287544Y-69681942D01*
X178287544Y-69681942D02*
X178335163Y-69777180D01*
X178335163Y-69777180D02*
X178382782Y-69824800D01*
X178382782Y-69824800D02*
X178478020Y-69872419D01*
X178478020Y-69872419D02*
X178573258Y-69872419D01*
X178573258Y-69872419D02*
X178668496Y-69824800D01*
X178668496Y-69824800D02*
X178716115Y-69777180D01*
X178716115Y-69777180D02*
X178763734Y-69681942D01*
X178763734Y-69681942D02*
X178811353Y-69491466D01*
X178811353Y-69491466D02*
X178811353Y-69253371D01*
X178811353Y-69253371D02*
X178763734Y-69062895D01*
X178763734Y-69062895D02*
X178716115Y-68967657D01*
X178716115Y-68967657D02*
X178668496Y-68920038D01*
X178668496Y-68920038D02*
X178573258Y-68872419D01*
X177620877Y-68872419D02*
X177525639Y-68872419D01*
X177525639Y-68872419D02*
X177430401Y-68920038D01*
X177430401Y-68920038D02*
X177382782Y-68967657D01*
X177382782Y-68967657D02*
X177335163Y-69062895D01*
X177335163Y-69062895D02*
X177287544Y-69253371D01*
X177287544Y-69253371D02*
X177287544Y-69491466D01*
X177287544Y-69491466D02*
X177335163Y-69681942D01*
X177335163Y-69681942D02*
X177382782Y-69777180D01*
X177382782Y-69777180D02*
X177430401Y-69824800D01*
X177430401Y-69824800D02*
X177525639Y-69872419D01*
X177525639Y-69872419D02*
X177620877Y-69872419D01*
X177620877Y-69872419D02*
X177716115Y-69824800D01*
X177716115Y-69824800D02*
X177763734Y-69777180D01*
X177763734Y-69777180D02*
X177811353Y-69681942D01*
X177811353Y-69681942D02*
X177858972Y-69491466D01*
X177858972Y-69491466D02*
X177858972Y-69253371D01*
X177858972Y-69253371D02*
X177811353Y-69062895D01*
X177811353Y-69062895D02*
X177763734Y-68967657D01*
X177763734Y-68967657D02*
X177716115Y-68920038D01*
X177716115Y-68920038D02*
X177620877Y-68872419D01*
X176858972Y-69205752D02*
X176858972Y-69872419D01*
X176858972Y-69300990D02*
X176811353Y-69253371D01*
X176811353Y-69253371D02*
X176716115Y-69205752D01*
X176716115Y-69205752D02*
X176573258Y-69205752D01*
X176573258Y-69205752D02*
X176478020Y-69253371D01*
X176478020Y-69253371D02*
X176430401Y-69348609D01*
X176430401Y-69348609D02*
X176430401Y-69872419D01*
X175620877Y-69348609D02*
X175954210Y-69348609D01*
X175954210Y-69872419D02*
X175954210Y-68872419D01*
X175954210Y-68872419D02*
X175478020Y-68872419D01*
X216947383Y-79772995D02*
X216947383Y-79201567D01*
X216947383Y-79487281D02*
X215947383Y-79487281D01*
X215947383Y-79487281D02*
X216090240Y-79392043D01*
X216090240Y-79392043D02*
X216185478Y-79296805D01*
X216185478Y-79296805D02*
X216233097Y-79201567D01*
X215947383Y-80392043D02*
X215947383Y-80487281D01*
X215947383Y-80487281D02*
X215995002Y-80582519D01*
X215995002Y-80582519D02*
X216042621Y-80630138D01*
X216042621Y-80630138D02*
X216137859Y-80677757D01*
X216137859Y-80677757D02*
X216328335Y-80725376D01*
X216328335Y-80725376D02*
X216566430Y-80725376D01*
X216566430Y-80725376D02*
X216756906Y-80677757D01*
X216756906Y-80677757D02*
X216852144Y-80630138D01*
X216852144Y-80630138D02*
X216899764Y-80582519D01*
X216899764Y-80582519D02*
X216947383Y-80487281D01*
X216947383Y-80487281D02*
X216947383Y-80392043D01*
X216947383Y-80392043D02*
X216899764Y-80296805D01*
X216899764Y-80296805D02*
X216852144Y-80249186D01*
X216852144Y-80249186D02*
X216756906Y-80201567D01*
X216756906Y-80201567D02*
X216566430Y-80153948D01*
X216566430Y-80153948D02*
X216328335Y-80153948D01*
X216328335Y-80153948D02*
X216137859Y-80201567D01*
X216137859Y-80201567D02*
X216042621Y-80249186D01*
X216042621Y-80249186D02*
X215995002Y-80296805D01*
X215995002Y-80296805D02*
X215947383Y-80392043D01*
X216947383Y-81153948D02*
X215947383Y-81153948D01*
X216947383Y-81725376D02*
X216375954Y-81296805D01*
X215947383Y-81725376D02*
X216518811Y-81153948D01*
X198384700Y-79381250D02*
X198384700Y-78809822D01*
X198384700Y-79095536D02*
X197384700Y-79095536D01*
X197384700Y-79095536D02*
X197527557Y-79000298D01*
X197527557Y-79000298D02*
X197622795Y-78905060D01*
X197622795Y-78905060D02*
X197670414Y-78809822D01*
X197384700Y-80000298D02*
X197384700Y-80095536D01*
X197384700Y-80095536D02*
X197432319Y-80190774D01*
X197432319Y-80190774D02*
X197479938Y-80238393D01*
X197479938Y-80238393D02*
X197575176Y-80286012D01*
X197575176Y-80286012D02*
X197765652Y-80333631D01*
X197765652Y-80333631D02*
X198003747Y-80333631D01*
X198003747Y-80333631D02*
X198194223Y-80286012D01*
X198194223Y-80286012D02*
X198289461Y-80238393D01*
X198289461Y-80238393D02*
X198337081Y-80190774D01*
X198337081Y-80190774D02*
X198384700Y-80095536D01*
X198384700Y-80095536D02*
X198384700Y-80000298D01*
X198384700Y-80000298D02*
X198337081Y-79905060D01*
X198337081Y-79905060D02*
X198289461Y-79857441D01*
X198289461Y-79857441D02*
X198194223Y-79809822D01*
X198194223Y-79809822D02*
X198003747Y-79762203D01*
X198003747Y-79762203D02*
X197765652Y-79762203D01*
X197765652Y-79762203D02*
X197575176Y-79809822D01*
X197575176Y-79809822D02*
X197479938Y-79857441D01*
X197479938Y-79857441D02*
X197432319Y-79905060D01*
X197432319Y-79905060D02*
X197384700Y-80000298D01*
X198384700Y-80762203D02*
X197384700Y-80762203D01*
X198384700Y-81333631D02*
X197813271Y-80905060D01*
X197384700Y-81333631D02*
X197956128Y-80762203D01*
X244696115Y-94991466D02*
X243934211Y-94991466D01*
X214244687Y-94246986D02*
X214292306Y-94294606D01*
X214292306Y-94294606D02*
X214435163Y-94342225D01*
X214435163Y-94342225D02*
X214530401Y-94342225D01*
X214530401Y-94342225D02*
X214673258Y-94294606D01*
X214673258Y-94294606D02*
X214768496Y-94199367D01*
X214768496Y-94199367D02*
X214816115Y-94104129D01*
X214816115Y-94104129D02*
X214863734Y-93913653D01*
X214863734Y-93913653D02*
X214863734Y-93770796D01*
X214863734Y-93770796D02*
X214816115Y-93580320D01*
X214816115Y-93580320D02*
X214768496Y-93485082D01*
X214768496Y-93485082D02*
X214673258Y-93389844D01*
X214673258Y-93389844D02*
X214530401Y-93342225D01*
X214530401Y-93342225D02*
X214435163Y-93342225D01*
X214435163Y-93342225D02*
X214292306Y-93389844D01*
X214292306Y-93389844D02*
X214244687Y-93437463D01*
X199627580Y-90196115D02*
X200627580Y-90196115D01*
X200627580Y-90196115D02*
X199627580Y-89624687D01*
X199627580Y-89624687D02*
X200627580Y-89624687D01*
X199627580Y-89148496D02*
X200627580Y-89148496D01*
X200627580Y-89148496D02*
X200627580Y-88767544D01*
X200627580Y-88767544D02*
X200579961Y-88672306D01*
X200579961Y-88672306D02*
X200532342Y-88624687D01*
X200532342Y-88624687D02*
X200437104Y-88577068D01*
X200437104Y-88577068D02*
X200294247Y-88577068D01*
X200294247Y-88577068D02*
X200199009Y-88624687D01*
X200199009Y-88624687D02*
X200151390Y-88672306D01*
X200151390Y-88672306D02*
X200103771Y-88767544D01*
X200103771Y-88767544D02*
X200103771Y-89148496D01*
X199627580Y-88148496D02*
X200627580Y-88148496D01*
X200627580Y-88148496D02*
X199627580Y-87577068D01*
X199627580Y-87577068D02*
X200627580Y-87577068D01*
X192243734Y-68967657D02*
X192196115Y-68920038D01*
X192196115Y-68920038D02*
X192100877Y-68872419D01*
X192100877Y-68872419D02*
X191862782Y-68872419D01*
X191862782Y-68872419D02*
X191767544Y-68920038D01*
X191767544Y-68920038D02*
X191719925Y-68967657D01*
X191719925Y-68967657D02*
X191672306Y-69062895D01*
X191672306Y-69062895D02*
X191672306Y-69158133D01*
X191672306Y-69158133D02*
X191719925Y-69300990D01*
X191719925Y-69300990D02*
X192291353Y-69872419D01*
X192291353Y-69872419D02*
X191672306Y-69872419D01*
X191053258Y-68872419D02*
X190958020Y-68872419D01*
X190958020Y-68872419D02*
X190862782Y-68920038D01*
X190862782Y-68920038D02*
X190815163Y-68967657D01*
X190815163Y-68967657D02*
X190767544Y-69062895D01*
X190767544Y-69062895D02*
X190719925Y-69253371D01*
X190719925Y-69253371D02*
X190719925Y-69491466D01*
X190719925Y-69491466D02*
X190767544Y-69681942D01*
X190767544Y-69681942D02*
X190815163Y-69777180D01*
X190815163Y-69777180D02*
X190862782Y-69824800D01*
X190862782Y-69824800D02*
X190958020Y-69872419D01*
X190958020Y-69872419D02*
X191053258Y-69872419D01*
X191053258Y-69872419D02*
X191148496Y-69824800D01*
X191148496Y-69824800D02*
X191196115Y-69777180D01*
X191196115Y-69777180D02*
X191243734Y-69681942D01*
X191243734Y-69681942D02*
X191291353Y-69491466D01*
X191291353Y-69491466D02*
X191291353Y-69253371D01*
X191291353Y-69253371D02*
X191243734Y-69062895D01*
X191243734Y-69062895D02*
X191196115Y-68967657D01*
X191196115Y-68967657D02*
X191148496Y-68920038D01*
X191148496Y-68920038D02*
X191053258Y-68872419D01*
X190100877Y-68872419D02*
X190005639Y-68872419D01*
X190005639Y-68872419D02*
X189910401Y-68920038D01*
X189910401Y-68920038D02*
X189862782Y-68967657D01*
X189862782Y-68967657D02*
X189815163Y-69062895D01*
X189815163Y-69062895D02*
X189767544Y-69253371D01*
X189767544Y-69253371D02*
X189767544Y-69491466D01*
X189767544Y-69491466D02*
X189815163Y-69681942D01*
X189815163Y-69681942D02*
X189862782Y-69777180D01*
X189862782Y-69777180D02*
X189910401Y-69824800D01*
X189910401Y-69824800D02*
X190005639Y-69872419D01*
X190005639Y-69872419D02*
X190100877Y-69872419D01*
X190100877Y-69872419D02*
X190196115Y-69824800D01*
X190196115Y-69824800D02*
X190243734Y-69777180D01*
X190243734Y-69777180D02*
X190291353Y-69681942D01*
X190291353Y-69681942D02*
X190338972Y-69491466D01*
X190338972Y-69491466D02*
X190338972Y-69253371D01*
X190338972Y-69253371D02*
X190291353Y-69062895D01*
X190291353Y-69062895D02*
X190243734Y-68967657D01*
X190243734Y-68967657D02*
X190196115Y-68920038D01*
X190196115Y-68920038D02*
X190100877Y-68872419D01*
X189338972Y-69205752D02*
X189338972Y-69872419D01*
X189338972Y-69300990D02*
X189291353Y-69253371D01*
X189291353Y-69253371D02*
X189196115Y-69205752D01*
X189196115Y-69205752D02*
X189053258Y-69205752D01*
X189053258Y-69205752D02*
X188958020Y-69253371D01*
X188958020Y-69253371D02*
X188910401Y-69348609D01*
X188910401Y-69348609D02*
X188910401Y-69872419D01*
X188100877Y-69348609D02*
X188434210Y-69348609D01*
X188434210Y-69872419D02*
X188434210Y-68872419D01*
X188434210Y-68872419D02*
X187958020Y-68872419D01*
X223037609Y-87541218D02*
X223037609Y-88160265D01*
X223037609Y-88160265D02*
X223418561Y-87826932D01*
X223418561Y-87826932D02*
X223418561Y-87969789D01*
X223418561Y-87969789D02*
X223466180Y-88065027D01*
X223466180Y-88065027D02*
X223513799Y-88112646D01*
X223513799Y-88112646D02*
X223609037Y-88160265D01*
X223609037Y-88160265D02*
X223847132Y-88160265D01*
X223847132Y-88160265D02*
X223942370Y-88112646D01*
X223942370Y-88112646D02*
X223989990Y-88065027D01*
X223989990Y-88065027D02*
X224037609Y-87969789D01*
X224037609Y-87969789D02*
X224037609Y-87684075D01*
X224037609Y-87684075D02*
X223989990Y-87588837D01*
X223989990Y-87588837D02*
X223942370Y-87541218D01*
X223037609Y-88493599D02*
X223037609Y-89112646D01*
X223037609Y-89112646D02*
X223418561Y-88779313D01*
X223418561Y-88779313D02*
X223418561Y-88922170D01*
X223418561Y-88922170D02*
X223466180Y-89017408D01*
X223466180Y-89017408D02*
X223513799Y-89065027D01*
X223513799Y-89065027D02*
X223609037Y-89112646D01*
X223609037Y-89112646D02*
X223847132Y-89112646D01*
X223847132Y-89112646D02*
X223942370Y-89065027D01*
X223942370Y-89065027D02*
X223989990Y-89017408D01*
X223989990Y-89017408D02*
X224037609Y-88922170D01*
X224037609Y-88922170D02*
X224037609Y-88636456D01*
X224037609Y-88636456D02*
X223989990Y-88541218D01*
X223989990Y-88541218D02*
X223942370Y-88493599D01*
X224037609Y-90112646D02*
X223561418Y-89779313D01*
X224037609Y-89541218D02*
X223037609Y-89541218D01*
X223037609Y-89541218D02*
X223037609Y-89922170D01*
X223037609Y-89922170D02*
X223085228Y-90017408D01*
X223085228Y-90017408D02*
X223132847Y-90065027D01*
X223132847Y-90065027D02*
X223228085Y-90112646D01*
X223228085Y-90112646D02*
X223370942Y-90112646D01*
X223370942Y-90112646D02*
X223466180Y-90065027D01*
X223466180Y-90065027D02*
X223513799Y-90017408D01*
X223513799Y-90017408D02*
X223561418Y-89922170D01*
X223561418Y-89922170D02*
X223561418Y-89541218D01*
X206912686Y-79592189D02*
X206912686Y-79020761D01*
X206912686Y-79306475D02*
X205912686Y-79306475D01*
X205912686Y-79306475D02*
X206055543Y-79211237D01*
X206055543Y-79211237D02*
X206150781Y-79115999D01*
X206150781Y-79115999D02*
X206198400Y-79020761D01*
X205912686Y-80211237D02*
X205912686Y-80306475D01*
X205912686Y-80306475D02*
X205960305Y-80401713D01*
X205960305Y-80401713D02*
X206007924Y-80449332D01*
X206007924Y-80449332D02*
X206103162Y-80496951D01*
X206103162Y-80496951D02*
X206293638Y-80544570D01*
X206293638Y-80544570D02*
X206531733Y-80544570D01*
X206531733Y-80544570D02*
X206722209Y-80496951D01*
X206722209Y-80496951D02*
X206817447Y-80449332D01*
X206817447Y-80449332D02*
X206865067Y-80401713D01*
X206865067Y-80401713D02*
X206912686Y-80306475D01*
X206912686Y-80306475D02*
X206912686Y-80211237D01*
X206912686Y-80211237D02*
X206865067Y-80115999D01*
X206865067Y-80115999D02*
X206817447Y-80068380D01*
X206817447Y-80068380D02*
X206722209Y-80020761D01*
X206722209Y-80020761D02*
X206531733Y-79973142D01*
X206531733Y-79973142D02*
X206293638Y-79973142D01*
X206293638Y-79973142D02*
X206103162Y-80020761D01*
X206103162Y-80020761D02*
X206007924Y-80068380D01*
X206007924Y-80068380D02*
X205960305Y-80115999D01*
X205960305Y-80115999D02*
X205912686Y-80211237D01*
X206912686Y-80973142D02*
X205912686Y-80973142D01*
X206912686Y-81544570D02*
X206341257Y-81115999D01*
X205912686Y-81544570D02*
X206484114Y-80973142D01*
X214508023Y-51519852D02*
X215508023Y-51853185D01*
X215508023Y-51853185D02*
X214508023Y-52186518D01*
X215508023Y-52519852D02*
X214841356Y-52519852D01*
X214508023Y-52519852D02*
X214555642Y-52472233D01*
X214555642Y-52472233D02*
X214603261Y-52519852D01*
X214603261Y-52519852D02*
X214555642Y-52567471D01*
X214555642Y-52567471D02*
X214508023Y-52519852D01*
X214508023Y-52519852D02*
X214603261Y-52519852D01*
X215508023Y-52996042D02*
X214508023Y-52996042D01*
X214888975Y-52996042D02*
X214841356Y-53091280D01*
X214841356Y-53091280D02*
X214841356Y-53281756D01*
X214841356Y-53281756D02*
X214888975Y-53376994D01*
X214888975Y-53376994D02*
X214936594Y-53424613D01*
X214936594Y-53424613D02*
X215031832Y-53472232D01*
X215031832Y-53472232D02*
X215317546Y-53472232D01*
X215317546Y-53472232D02*
X215412784Y-53424613D01*
X215412784Y-53424613D02*
X215460404Y-53376994D01*
X215460404Y-53376994D02*
X215508023Y-53281756D01*
X215508023Y-53281756D02*
X215508023Y-53091280D01*
X215508023Y-53091280D02*
X215460404Y-52996042D01*
X215508023Y-53900804D02*
X214841356Y-53900804D01*
X215031832Y-53900804D02*
X214936594Y-53948423D01*
X214936594Y-53948423D02*
X214888975Y-53996042D01*
X214888975Y-53996042D02*
X214841356Y-54091280D01*
X214841356Y-54091280D02*
X214841356Y-54186518D01*
X215508023Y-54948423D02*
X214984213Y-54948423D01*
X214984213Y-54948423D02*
X214888975Y-54900804D01*
X214888975Y-54900804D02*
X214841356Y-54805566D01*
X214841356Y-54805566D02*
X214841356Y-54615090D01*
X214841356Y-54615090D02*
X214888975Y-54519852D01*
X215460404Y-54948423D02*
X215508023Y-54853185D01*
X215508023Y-54853185D02*
X215508023Y-54615090D01*
X215508023Y-54615090D02*
X215460404Y-54519852D01*
X215460404Y-54519852D02*
X215365165Y-54472233D01*
X215365165Y-54472233D02*
X215269927Y-54472233D01*
X215269927Y-54472233D02*
X215174689Y-54519852D01*
X215174689Y-54519852D02*
X215127070Y-54615090D01*
X215127070Y-54615090D02*
X215127070Y-54853185D01*
X215127070Y-54853185D02*
X215079451Y-54948423D01*
X214841356Y-55281757D02*
X214841356Y-55662709D01*
X214508023Y-55424614D02*
X215365165Y-55424614D01*
X215365165Y-55424614D02*
X215460404Y-55472233D01*
X215460404Y-55472233D02*
X215508023Y-55567471D01*
X215508023Y-55567471D02*
X215508023Y-55662709D01*
X215508023Y-55996043D02*
X214841356Y-55996043D01*
X214508023Y-55996043D02*
X214555642Y-55948424D01*
X214555642Y-55948424D02*
X214603261Y-55996043D01*
X214603261Y-55996043D02*
X214555642Y-56043662D01*
X214555642Y-56043662D02*
X214508023Y-55996043D01*
X214508023Y-55996043D02*
X214603261Y-55996043D01*
X215508023Y-56615090D02*
X215460404Y-56519852D01*
X215460404Y-56519852D02*
X215412784Y-56472233D01*
X215412784Y-56472233D02*
X215317546Y-56424614D01*
X215317546Y-56424614D02*
X215031832Y-56424614D01*
X215031832Y-56424614D02*
X214936594Y-56472233D01*
X214936594Y-56472233D02*
X214888975Y-56519852D01*
X214888975Y-56519852D02*
X214841356Y-56615090D01*
X214841356Y-56615090D02*
X214841356Y-56757947D01*
X214841356Y-56757947D02*
X214888975Y-56853185D01*
X214888975Y-56853185D02*
X214936594Y-56900804D01*
X214936594Y-56900804D02*
X215031832Y-56948423D01*
X215031832Y-56948423D02*
X215317546Y-56948423D01*
X215317546Y-56948423D02*
X215412784Y-56900804D01*
X215412784Y-56900804D02*
X215460404Y-56853185D01*
X215460404Y-56853185D02*
X215508023Y-56757947D01*
X215508023Y-56757947D02*
X215508023Y-56615090D01*
X214841356Y-57376995D02*
X215508023Y-57376995D01*
X214936594Y-57376995D02*
X214888975Y-57424614D01*
X214888975Y-57424614D02*
X214841356Y-57519852D01*
X214841356Y-57519852D02*
X214841356Y-57662709D01*
X214841356Y-57662709D02*
X214888975Y-57757947D01*
X214888975Y-57757947D02*
X214984213Y-57805566D01*
X214984213Y-57805566D02*
X215508023Y-57805566D01*
X215222308Y-58996043D02*
X215222308Y-59472233D01*
X215508023Y-58900805D02*
X214508023Y-59234138D01*
X214508023Y-59234138D02*
X215508023Y-59567471D01*
X215508023Y-59900805D02*
X214841356Y-59900805D01*
X214936594Y-59900805D02*
X214888975Y-59948424D01*
X214888975Y-59948424D02*
X214841356Y-60043662D01*
X214841356Y-60043662D02*
X214841356Y-60186519D01*
X214841356Y-60186519D02*
X214888975Y-60281757D01*
X214888975Y-60281757D02*
X214984213Y-60329376D01*
X214984213Y-60329376D02*
X215508023Y-60329376D01*
X214984213Y-60329376D02*
X214888975Y-60376995D01*
X214888975Y-60376995D02*
X214841356Y-60472233D01*
X214841356Y-60472233D02*
X214841356Y-60615090D01*
X214841356Y-60615090D02*
X214888975Y-60710329D01*
X214888975Y-60710329D02*
X214984213Y-60757948D01*
X214984213Y-60757948D02*
X215508023Y-60757948D01*
X214841356Y-61234138D02*
X215841356Y-61234138D01*
X214888975Y-61234138D02*
X214841356Y-61329376D01*
X214841356Y-61329376D02*
X214841356Y-61519852D01*
X214841356Y-61519852D02*
X214888975Y-61615090D01*
X214888975Y-61615090D02*
X214936594Y-61662709D01*
X214936594Y-61662709D02*
X215031832Y-61710328D01*
X215031832Y-61710328D02*
X215317546Y-61710328D01*
X215317546Y-61710328D02*
X215412784Y-61662709D01*
X215412784Y-61662709D02*
X215460404Y-61615090D01*
X215460404Y-61615090D02*
X215508023Y-61519852D01*
X215508023Y-61519852D02*
X215508023Y-61329376D01*
X215508023Y-61329376D02*
X215460404Y-61234138D01*
X215508023Y-62281757D02*
X215460404Y-62186519D01*
X215460404Y-62186519D02*
X215365165Y-62138900D01*
X215365165Y-62138900D02*
X214508023Y-62138900D01*
X215508023Y-62662710D02*
X214841356Y-62662710D01*
X214508023Y-62662710D02*
X214555642Y-62615091D01*
X214555642Y-62615091D02*
X214603261Y-62662710D01*
X214603261Y-62662710D02*
X214555642Y-62710329D01*
X214555642Y-62710329D02*
X214508023Y-62662710D01*
X214508023Y-62662710D02*
X214603261Y-62662710D01*
X214841356Y-62996043D02*
X214841356Y-63376995D01*
X214508023Y-63138900D02*
X215365165Y-63138900D01*
X215365165Y-63138900D02*
X215460404Y-63186519D01*
X215460404Y-63186519D02*
X215508023Y-63281757D01*
X215508023Y-63281757D02*
X215508023Y-63376995D01*
X214841356Y-64138900D02*
X215508023Y-64138900D01*
X214841356Y-63710329D02*
X215365165Y-63710329D01*
X215365165Y-63710329D02*
X215460404Y-63757948D01*
X215460404Y-63757948D02*
X215508023Y-63853186D01*
X215508023Y-63853186D02*
X215508023Y-63996043D01*
X215508023Y-63996043D02*
X215460404Y-64091281D01*
X215460404Y-64091281D02*
X215412784Y-64138900D01*
X215508023Y-65043662D02*
X214508023Y-65043662D01*
X215460404Y-65043662D02*
X215508023Y-64948424D01*
X215508023Y-64948424D02*
X215508023Y-64757948D01*
X215508023Y-64757948D02*
X215460404Y-64662710D01*
X215460404Y-64662710D02*
X215412784Y-64615091D01*
X215412784Y-64615091D02*
X215317546Y-64567472D01*
X215317546Y-64567472D02*
X215031832Y-64567472D01*
X215031832Y-64567472D02*
X214936594Y-64615091D01*
X214936594Y-64615091D02*
X214888975Y-64662710D01*
X214888975Y-64662710D02*
X214841356Y-64757948D01*
X214841356Y-64757948D02*
X214841356Y-64948424D01*
X214841356Y-64948424D02*
X214888975Y-65043662D01*
X215460404Y-65900805D02*
X215508023Y-65805567D01*
X215508023Y-65805567D02*
X215508023Y-65615091D01*
X215508023Y-65615091D02*
X215460404Y-65519853D01*
X215460404Y-65519853D02*
X215365165Y-65472234D01*
X215365165Y-65472234D02*
X214984213Y-65472234D01*
X214984213Y-65472234D02*
X214888975Y-65519853D01*
X214888975Y-65519853D02*
X214841356Y-65615091D01*
X214841356Y-65615091D02*
X214841356Y-65805567D01*
X214841356Y-65805567D02*
X214888975Y-65900805D01*
X214888975Y-65900805D02*
X214984213Y-65948424D01*
X214984213Y-65948424D02*
X215079451Y-65948424D01*
X215079451Y-65948424D02*
X215174689Y-65472234D01*
X214816115Y-88674470D02*
X214482782Y-88674470D01*
X214339925Y-89198280D02*
X214816115Y-89198280D01*
X214816115Y-89198280D02*
X214816115Y-88198280D01*
X214816115Y-88198280D02*
X214339925Y-88198280D01*
X229348609Y-60947217D02*
X229396228Y-61090074D01*
X229396228Y-61090074D02*
X229443847Y-61137693D01*
X229443847Y-61137693D02*
X229539085Y-61185312D01*
X229539085Y-61185312D02*
X229681942Y-61185312D01*
X229681942Y-61185312D02*
X229777180Y-61137693D01*
X229777180Y-61137693D02*
X229824800Y-61090074D01*
X229824800Y-61090074D02*
X229872419Y-60994836D01*
X229872419Y-60994836D02*
X229872419Y-60613884D01*
X229872419Y-60613884D02*
X228872419Y-60613884D01*
X228872419Y-60613884D02*
X228872419Y-60947217D01*
X228872419Y-60947217D02*
X228920038Y-61042455D01*
X228920038Y-61042455D02*
X228967657Y-61090074D01*
X228967657Y-61090074D02*
X229062895Y-61137693D01*
X229062895Y-61137693D02*
X229158133Y-61137693D01*
X229158133Y-61137693D02*
X229253371Y-61090074D01*
X229253371Y-61090074D02*
X229300990Y-61042455D01*
X229300990Y-61042455D02*
X229348609Y-60947217D01*
X229348609Y-60947217D02*
X229348609Y-60613884D01*
X229872419Y-61613884D02*
X229205752Y-61613884D01*
X229396228Y-61613884D02*
X229300990Y-61661503D01*
X229300990Y-61661503D02*
X229253371Y-61709122D01*
X229253371Y-61709122D02*
X229205752Y-61804360D01*
X229205752Y-61804360D02*
X229205752Y-61899598D01*
X229872419Y-62232932D02*
X229205752Y-62232932D01*
X228872419Y-62232932D02*
X228920038Y-62185313D01*
X228920038Y-62185313D02*
X228967657Y-62232932D01*
X228967657Y-62232932D02*
X228920038Y-62280551D01*
X228920038Y-62280551D02*
X228872419Y-62232932D01*
X228872419Y-62232932D02*
X228967657Y-62232932D01*
X229205752Y-63137693D02*
X230015276Y-63137693D01*
X230015276Y-63137693D02*
X230110514Y-63090074D01*
X230110514Y-63090074D02*
X230158133Y-63042455D01*
X230158133Y-63042455D02*
X230205752Y-62947217D01*
X230205752Y-62947217D02*
X230205752Y-62804360D01*
X230205752Y-62804360D02*
X230158133Y-62709122D01*
X229824800Y-63137693D02*
X229872419Y-63042455D01*
X229872419Y-63042455D02*
X229872419Y-62851979D01*
X229872419Y-62851979D02*
X229824800Y-62756741D01*
X229824800Y-62756741D02*
X229777180Y-62709122D01*
X229777180Y-62709122D02*
X229681942Y-62661503D01*
X229681942Y-62661503D02*
X229396228Y-62661503D01*
X229396228Y-62661503D02*
X229300990Y-62709122D01*
X229300990Y-62709122D02*
X229253371Y-62756741D01*
X229253371Y-62756741D02*
X229205752Y-62851979D01*
X229205752Y-62851979D02*
X229205752Y-63042455D01*
X229205752Y-63042455D02*
X229253371Y-63137693D01*
X229872419Y-63613884D02*
X228872419Y-63613884D01*
X229872419Y-64042455D02*
X229348609Y-64042455D01*
X229348609Y-64042455D02*
X229253371Y-63994836D01*
X229253371Y-63994836D02*
X229205752Y-63899598D01*
X229205752Y-63899598D02*
X229205752Y-63756741D01*
X229205752Y-63756741D02*
X229253371Y-63661503D01*
X229253371Y-63661503D02*
X229300990Y-63613884D01*
X229205752Y-64375789D02*
X229205752Y-64756741D01*
X228872419Y-64518646D02*
X229729561Y-64518646D01*
X229729561Y-64518646D02*
X229824800Y-64566265D01*
X229824800Y-64566265D02*
X229872419Y-64661503D01*
X229872419Y-64661503D02*
X229872419Y-64756741D01*
X229205752Y-65090075D02*
X229872419Y-65090075D01*
X229300990Y-65090075D02*
X229253371Y-65137694D01*
X229253371Y-65137694D02*
X229205752Y-65232932D01*
X229205752Y-65232932D02*
X229205752Y-65375789D01*
X229205752Y-65375789D02*
X229253371Y-65471027D01*
X229253371Y-65471027D02*
X229348609Y-65518646D01*
X229348609Y-65518646D02*
X229872419Y-65518646D01*
X229824800Y-66375789D02*
X229872419Y-66280551D01*
X229872419Y-66280551D02*
X229872419Y-66090075D01*
X229872419Y-66090075D02*
X229824800Y-65994837D01*
X229824800Y-65994837D02*
X229729561Y-65947218D01*
X229729561Y-65947218D02*
X229348609Y-65947218D01*
X229348609Y-65947218D02*
X229253371Y-65994837D01*
X229253371Y-65994837D02*
X229205752Y-66090075D01*
X229205752Y-66090075D02*
X229205752Y-66280551D01*
X229205752Y-66280551D02*
X229253371Y-66375789D01*
X229253371Y-66375789D02*
X229348609Y-66423408D01*
X229348609Y-66423408D02*
X229443847Y-66423408D01*
X229443847Y-66423408D02*
X229539085Y-65947218D01*
X229824800Y-66804361D02*
X229872419Y-66899599D01*
X229872419Y-66899599D02*
X229872419Y-67090075D01*
X229872419Y-67090075D02*
X229824800Y-67185313D01*
X229824800Y-67185313D02*
X229729561Y-67232932D01*
X229729561Y-67232932D02*
X229681942Y-67232932D01*
X229681942Y-67232932D02*
X229586704Y-67185313D01*
X229586704Y-67185313D02*
X229539085Y-67090075D01*
X229539085Y-67090075D02*
X229539085Y-66947218D01*
X229539085Y-66947218D02*
X229491466Y-66851980D01*
X229491466Y-66851980D02*
X229396228Y-66804361D01*
X229396228Y-66804361D02*
X229348609Y-66804361D01*
X229348609Y-66804361D02*
X229253371Y-66851980D01*
X229253371Y-66851980D02*
X229205752Y-66947218D01*
X229205752Y-66947218D02*
X229205752Y-67090075D01*
X229205752Y-67090075D02*
X229253371Y-67185313D01*
X229824800Y-67613885D02*
X229872419Y-67709123D01*
X229872419Y-67709123D02*
X229872419Y-67899599D01*
X229872419Y-67899599D02*
X229824800Y-67994837D01*
X229824800Y-67994837D02*
X229729561Y-68042456D01*
X229729561Y-68042456D02*
X229681942Y-68042456D01*
X229681942Y-68042456D02*
X229586704Y-67994837D01*
X229586704Y-67994837D02*
X229539085Y-67899599D01*
X229539085Y-67899599D02*
X229539085Y-67756742D01*
X229539085Y-67756742D02*
X229491466Y-67661504D01*
X229491466Y-67661504D02*
X229396228Y-67613885D01*
X229396228Y-67613885D02*
X229348609Y-67613885D01*
X229348609Y-67613885D02*
X229253371Y-67661504D01*
X229253371Y-67661504D02*
X229205752Y-67756742D01*
X229205752Y-67756742D02*
X229205752Y-67899599D01*
X229205752Y-67899599D02*
X229253371Y-67994837D01*
X218127580Y-90196115D02*
X219127580Y-90196115D01*
X219127580Y-90196115D02*
X218127580Y-89624687D01*
X218127580Y-89624687D02*
X219127580Y-89624687D01*
X218127580Y-89148496D02*
X219127580Y-89148496D01*
X219127580Y-89148496D02*
X219127580Y-88767544D01*
X219127580Y-88767544D02*
X219079961Y-88672306D01*
X219079961Y-88672306D02*
X219032342Y-88624687D01*
X219032342Y-88624687D02*
X218937104Y-88577068D01*
X218937104Y-88577068D02*
X218794247Y-88577068D01*
X218794247Y-88577068D02*
X218699009Y-88624687D01*
X218699009Y-88624687D02*
X218651390Y-88672306D01*
X218651390Y-88672306D02*
X218603771Y-88767544D01*
X218603771Y-88767544D02*
X218603771Y-89148496D01*
X218127580Y-88148496D02*
X219127580Y-88148496D01*
X219127580Y-88148496D02*
X218127580Y-87577068D01*
X218127580Y-87577068D02*
X219127580Y-87577068D01*
X239362782Y-89348609D02*
X239219925Y-89396228D01*
X239219925Y-89396228D02*
X239172306Y-89443847D01*
X239172306Y-89443847D02*
X239124687Y-89539085D01*
X239124687Y-89539085D02*
X239124687Y-89681942D01*
X239124687Y-89681942D02*
X239172306Y-89777180D01*
X239172306Y-89777180D02*
X239219925Y-89824800D01*
X239219925Y-89824800D02*
X239315163Y-89872419D01*
X239315163Y-89872419D02*
X239696115Y-89872419D01*
X239696115Y-89872419D02*
X239696115Y-88872419D01*
X239696115Y-88872419D02*
X239362782Y-88872419D01*
X239362782Y-88872419D02*
X239267544Y-88920038D01*
X239267544Y-88920038D02*
X239219925Y-88967657D01*
X239219925Y-88967657D02*
X239172306Y-89062895D01*
X239172306Y-89062895D02*
X239172306Y-89158133D01*
X239172306Y-89158133D02*
X239219925Y-89253371D01*
X239219925Y-89253371D02*
X239267544Y-89300990D01*
X239267544Y-89300990D02*
X239362782Y-89348609D01*
X239362782Y-89348609D02*
X239696115Y-89348609D01*
X238267544Y-89872419D02*
X238267544Y-89348609D01*
X238267544Y-89348609D02*
X238315163Y-89253371D01*
X238315163Y-89253371D02*
X238410401Y-89205752D01*
X238410401Y-89205752D02*
X238600877Y-89205752D01*
X238600877Y-89205752D02*
X238696115Y-89253371D01*
X238267544Y-89824800D02*
X238362782Y-89872419D01*
X238362782Y-89872419D02*
X238600877Y-89872419D01*
X238600877Y-89872419D02*
X238696115Y-89824800D01*
X238696115Y-89824800D02*
X238743734Y-89729561D01*
X238743734Y-89729561D02*
X238743734Y-89634323D01*
X238743734Y-89634323D02*
X238696115Y-89539085D01*
X238696115Y-89539085D02*
X238600877Y-89491466D01*
X238600877Y-89491466D02*
X238362782Y-89491466D01*
X238362782Y-89491466D02*
X238267544Y-89443847D01*
X237934210Y-89205752D02*
X237553258Y-89205752D01*
X237791353Y-88872419D02*
X237791353Y-89729561D01*
X237791353Y-89729561D02*
X237743734Y-89824800D01*
X237743734Y-89824800D02*
X237648496Y-89872419D01*
X237648496Y-89872419D02*
X237553258Y-89872419D01*
X237362781Y-89205752D02*
X236981829Y-89205752D01*
X237219924Y-88872419D02*
X237219924Y-89729561D01*
X237219924Y-89729561D02*
X237172305Y-89824800D01*
X237172305Y-89824800D02*
X237077067Y-89872419D01*
X237077067Y-89872419D02*
X236981829Y-89872419D01*
X236267543Y-89824800D02*
X236362781Y-89872419D01*
X236362781Y-89872419D02*
X236553257Y-89872419D01*
X236553257Y-89872419D02*
X236648495Y-89824800D01*
X236648495Y-89824800D02*
X236696114Y-89729561D01*
X236696114Y-89729561D02*
X236696114Y-89348609D01*
X236696114Y-89348609D02*
X236648495Y-89253371D01*
X236648495Y-89253371D02*
X236553257Y-89205752D01*
X236553257Y-89205752D02*
X236362781Y-89205752D01*
X236362781Y-89205752D02*
X236267543Y-89253371D01*
X236267543Y-89253371D02*
X236219924Y-89348609D01*
X236219924Y-89348609D02*
X236219924Y-89443847D01*
X236219924Y-89443847D02*
X236696114Y-89539085D01*
X235791352Y-89872419D02*
X235791352Y-89205752D01*
X235791352Y-89396228D02*
X235743733Y-89300990D01*
X235743733Y-89300990D02*
X235696114Y-89253371D01*
X235696114Y-89253371D02*
X235600876Y-89205752D01*
X235600876Y-89205752D02*
X235505638Y-89205752D01*
X235267542Y-89205752D02*
X235029447Y-89872419D01*
X234791352Y-89205752D02*
X235029447Y-89872419D01*
X235029447Y-89872419D02*
X235124685Y-90110514D01*
X235124685Y-90110514D02*
X235172304Y-90158133D01*
X235172304Y-90158133D02*
X235267542Y-90205752D01*
X195744687Y-94287180D02*
X195792306Y-94334800D01*
X195792306Y-94334800D02*
X195935163Y-94382419D01*
X195935163Y-94382419D02*
X196030401Y-94382419D01*
X196030401Y-94382419D02*
X196173258Y-94334800D01*
X196173258Y-94334800D02*
X196268496Y-94239561D01*
X196268496Y-94239561D02*
X196316115Y-94144323D01*
X196316115Y-94144323D02*
X196363734Y-93953847D01*
X196363734Y-93953847D02*
X196363734Y-93810990D01*
X196363734Y-93810990D02*
X196316115Y-93620514D01*
X196316115Y-93620514D02*
X196268496Y-93525276D01*
X196268496Y-93525276D02*
X196173258Y-93430038D01*
X196173258Y-93430038D02*
X196030401Y-93382419D01*
X196030401Y-93382419D02*
X195935163Y-93382419D01*
X195935163Y-93382419D02*
X195792306Y-93430038D01*
X195792306Y-93430038D02*
X195744687Y-93477657D01*
X189833333Y-49262475D02*
X189833333Y-48262475D01*
X189833333Y-48262475D02*
X189595238Y-48262475D01*
X189595238Y-48262475D02*
X189452381Y-48310094D01*
X189452381Y-48310094D02*
X189357143Y-48405332D01*
X189357143Y-48405332D02*
X189309524Y-48500570D01*
X189309524Y-48500570D02*
X189261905Y-48691046D01*
X189261905Y-48691046D02*
X189261905Y-48833903D01*
X189261905Y-48833903D02*
X189309524Y-49024379D01*
X189309524Y-49024379D02*
X189357143Y-49119617D01*
X189357143Y-49119617D02*
X189452381Y-49214856D01*
X189452381Y-49214856D02*
X189595238Y-49262475D01*
X189595238Y-49262475D02*
X189833333Y-49262475D01*
X188833333Y-49262475D02*
X188833333Y-48595808D01*
X188833333Y-48262475D02*
X188880952Y-48310094D01*
X188880952Y-48310094D02*
X188833333Y-48357713D01*
X188833333Y-48357713D02*
X188785714Y-48310094D01*
X188785714Y-48310094D02*
X188833333Y-48262475D01*
X188833333Y-48262475D02*
X188833333Y-48357713D01*
X188404762Y-49214856D02*
X188309524Y-49262475D01*
X188309524Y-49262475D02*
X188119048Y-49262475D01*
X188119048Y-49262475D02*
X188023810Y-49214856D01*
X188023810Y-49214856D02*
X187976191Y-49119617D01*
X187976191Y-49119617D02*
X187976191Y-49071998D01*
X187976191Y-49071998D02*
X188023810Y-48976760D01*
X188023810Y-48976760D02*
X188119048Y-48929141D01*
X188119048Y-48929141D02*
X188261905Y-48929141D01*
X188261905Y-48929141D02*
X188357143Y-48881522D01*
X188357143Y-48881522D02*
X188404762Y-48786284D01*
X188404762Y-48786284D02*
X188404762Y-48738665D01*
X188404762Y-48738665D02*
X188357143Y-48643427D01*
X188357143Y-48643427D02*
X188261905Y-48595808D01*
X188261905Y-48595808D02*
X188119048Y-48595808D01*
X188119048Y-48595808D02*
X188023810Y-48643427D01*
X187547619Y-48595808D02*
X187547619Y-49595808D01*
X187547619Y-48643427D02*
X187452381Y-48595808D01*
X187452381Y-48595808D02*
X187261905Y-48595808D01*
X187261905Y-48595808D02*
X187166667Y-48643427D01*
X187166667Y-48643427D02*
X187119048Y-48691046D01*
X187119048Y-48691046D02*
X187071429Y-48786284D01*
X187071429Y-48786284D02*
X187071429Y-49071998D01*
X187071429Y-49071998D02*
X187119048Y-49167236D01*
X187119048Y-49167236D02*
X187166667Y-49214856D01*
X187166667Y-49214856D02*
X187261905Y-49262475D01*
X187261905Y-49262475D02*
X187452381Y-49262475D01*
X187452381Y-49262475D02*
X187547619Y-49214856D01*
X186500000Y-49262475D02*
X186595238Y-49214856D01*
X186595238Y-49214856D02*
X186642857Y-49119617D01*
X186642857Y-49119617D02*
X186642857Y-48262475D01*
X185690476Y-49262475D02*
X185690476Y-48738665D01*
X185690476Y-48738665D02*
X185738095Y-48643427D01*
X185738095Y-48643427D02*
X185833333Y-48595808D01*
X185833333Y-48595808D02*
X186023809Y-48595808D01*
X186023809Y-48595808D02*
X186119047Y-48643427D01*
X185690476Y-49214856D02*
X185785714Y-49262475D01*
X185785714Y-49262475D02*
X186023809Y-49262475D01*
X186023809Y-49262475D02*
X186119047Y-49214856D01*
X186119047Y-49214856D02*
X186166666Y-49119617D01*
X186166666Y-49119617D02*
X186166666Y-49024379D01*
X186166666Y-49024379D02*
X186119047Y-48929141D01*
X186119047Y-48929141D02*
X186023809Y-48881522D01*
X186023809Y-48881522D02*
X185785714Y-48881522D01*
X185785714Y-48881522D02*
X185690476Y-48833903D01*
X185309523Y-48595808D02*
X185071428Y-49262475D01*
X184833333Y-48595808D02*
X185071428Y-49262475D01*
X185071428Y-49262475D02*
X185166666Y-49500570D01*
X185166666Y-49500570D02*
X185214285Y-49548189D01*
X185214285Y-49548189D02*
X185309523Y-49595808D01*
X190357143Y-50348609D02*
X190214286Y-50396228D01*
X190214286Y-50396228D02*
X190166667Y-50443847D01*
X190166667Y-50443847D02*
X190119048Y-50539085D01*
X190119048Y-50539085D02*
X190119048Y-50681942D01*
X190119048Y-50681942D02*
X190166667Y-50777180D01*
X190166667Y-50777180D02*
X190214286Y-50824800D01*
X190214286Y-50824800D02*
X190309524Y-50872419D01*
X190309524Y-50872419D02*
X190690476Y-50872419D01*
X190690476Y-50872419D02*
X190690476Y-49872419D01*
X190690476Y-49872419D02*
X190357143Y-49872419D01*
X190357143Y-49872419D02*
X190261905Y-49920038D01*
X190261905Y-49920038D02*
X190214286Y-49967657D01*
X190214286Y-49967657D02*
X190166667Y-50062895D01*
X190166667Y-50062895D02*
X190166667Y-50158133D01*
X190166667Y-50158133D02*
X190214286Y-50253371D01*
X190214286Y-50253371D02*
X190261905Y-50300990D01*
X190261905Y-50300990D02*
X190357143Y-50348609D01*
X190357143Y-50348609D02*
X190690476Y-50348609D01*
X189690476Y-50872419D02*
X189690476Y-50205752D01*
X189690476Y-50396228D02*
X189642857Y-50300990D01*
X189642857Y-50300990D02*
X189595238Y-50253371D01*
X189595238Y-50253371D02*
X189500000Y-50205752D01*
X189500000Y-50205752D02*
X189404762Y-50205752D01*
X189071428Y-50872419D02*
X189071428Y-50205752D01*
X189071428Y-49872419D02*
X189119047Y-49920038D01*
X189119047Y-49920038D02*
X189071428Y-49967657D01*
X189071428Y-49967657D02*
X189023809Y-49920038D01*
X189023809Y-49920038D02*
X189071428Y-49872419D01*
X189071428Y-49872419D02*
X189071428Y-49967657D01*
X188166667Y-50205752D02*
X188166667Y-51015276D01*
X188166667Y-51015276D02*
X188214286Y-51110514D01*
X188214286Y-51110514D02*
X188261905Y-51158133D01*
X188261905Y-51158133D02*
X188357143Y-51205752D01*
X188357143Y-51205752D02*
X188500000Y-51205752D01*
X188500000Y-51205752D02*
X188595238Y-51158133D01*
X188166667Y-50824800D02*
X188261905Y-50872419D01*
X188261905Y-50872419D02*
X188452381Y-50872419D01*
X188452381Y-50872419D02*
X188547619Y-50824800D01*
X188547619Y-50824800D02*
X188595238Y-50777180D01*
X188595238Y-50777180D02*
X188642857Y-50681942D01*
X188642857Y-50681942D02*
X188642857Y-50396228D01*
X188642857Y-50396228D02*
X188595238Y-50300990D01*
X188595238Y-50300990D02*
X188547619Y-50253371D01*
X188547619Y-50253371D02*
X188452381Y-50205752D01*
X188452381Y-50205752D02*
X188261905Y-50205752D01*
X188261905Y-50205752D02*
X188166667Y-50253371D01*
X187690476Y-50872419D02*
X187690476Y-49872419D01*
X187261905Y-50872419D02*
X187261905Y-50348609D01*
X187261905Y-50348609D02*
X187309524Y-50253371D01*
X187309524Y-50253371D02*
X187404762Y-50205752D01*
X187404762Y-50205752D02*
X187547619Y-50205752D01*
X187547619Y-50205752D02*
X187642857Y-50253371D01*
X187642857Y-50253371D02*
X187690476Y-50300990D01*
X186928571Y-50205752D02*
X186547619Y-50205752D01*
X186785714Y-49872419D02*
X186785714Y-50729561D01*
X186785714Y-50729561D02*
X186738095Y-50824800D01*
X186738095Y-50824800D02*
X186642857Y-50872419D01*
X186642857Y-50872419D02*
X186547619Y-50872419D01*
X186214285Y-50205752D02*
X186214285Y-50872419D01*
X186214285Y-50300990D02*
X186166666Y-50253371D01*
X186166666Y-50253371D02*
X186071428Y-50205752D01*
X186071428Y-50205752D02*
X185928571Y-50205752D01*
X185928571Y-50205752D02*
X185833333Y-50253371D01*
X185833333Y-50253371D02*
X185785714Y-50348609D01*
X185785714Y-50348609D02*
X185785714Y-50872419D01*
X184928571Y-50824800D02*
X185023809Y-50872419D01*
X185023809Y-50872419D02*
X185214285Y-50872419D01*
X185214285Y-50872419D02*
X185309523Y-50824800D01*
X185309523Y-50824800D02*
X185357142Y-50729561D01*
X185357142Y-50729561D02*
X185357142Y-50348609D01*
X185357142Y-50348609D02*
X185309523Y-50253371D01*
X185309523Y-50253371D02*
X185214285Y-50205752D01*
X185214285Y-50205752D02*
X185023809Y-50205752D01*
X185023809Y-50205752D02*
X184928571Y-50253371D01*
X184928571Y-50253371D02*
X184880952Y-50348609D01*
X184880952Y-50348609D02*
X184880952Y-50443847D01*
X184880952Y-50443847D02*
X185357142Y-50539085D01*
X184499999Y-50824800D02*
X184404761Y-50872419D01*
X184404761Y-50872419D02*
X184214285Y-50872419D01*
X184214285Y-50872419D02*
X184119047Y-50824800D01*
X184119047Y-50824800D02*
X184071428Y-50729561D01*
X184071428Y-50729561D02*
X184071428Y-50681942D01*
X184071428Y-50681942D02*
X184119047Y-50586704D01*
X184119047Y-50586704D02*
X184214285Y-50539085D01*
X184214285Y-50539085D02*
X184357142Y-50539085D01*
X184357142Y-50539085D02*
X184452380Y-50491466D01*
X184452380Y-50491466D02*
X184499999Y-50396228D01*
X184499999Y-50396228D02*
X184499999Y-50348609D01*
X184499999Y-50348609D02*
X184452380Y-50253371D01*
X184452380Y-50253371D02*
X184357142Y-50205752D01*
X184357142Y-50205752D02*
X184214285Y-50205752D01*
X184214285Y-50205752D02*
X184119047Y-50253371D01*
X183690475Y-50824800D02*
X183595237Y-50872419D01*
X183595237Y-50872419D02*
X183404761Y-50872419D01*
X183404761Y-50872419D02*
X183309523Y-50824800D01*
X183309523Y-50824800D02*
X183261904Y-50729561D01*
X183261904Y-50729561D02*
X183261904Y-50681942D01*
X183261904Y-50681942D02*
X183309523Y-50586704D01*
X183309523Y-50586704D02*
X183404761Y-50539085D01*
X183404761Y-50539085D02*
X183547618Y-50539085D01*
X183547618Y-50539085D02*
X183642856Y-50491466D01*
X183642856Y-50491466D02*
X183690475Y-50396228D01*
X183690475Y-50396228D02*
X183690475Y-50348609D01*
X183690475Y-50348609D02*
X183642856Y-50253371D01*
X183642856Y-50253371D02*
X183547618Y-50205752D01*
X183547618Y-50205752D02*
X183404761Y-50205752D01*
X183404761Y-50205752D02*
X183309523Y-50253371D01*
D11*
X161358095Y-56425180D02*
X161358095Y-55615657D01*
X161358095Y-55615657D02*
X161405714Y-55520419D01*
X161405714Y-55520419D02*
X161453333Y-55472800D01*
X161453333Y-55472800D02*
X161548571Y-55425180D01*
X161548571Y-55425180D02*
X161739047Y-55425180D01*
X161739047Y-55425180D02*
X161834285Y-55472800D01*
X161834285Y-55472800D02*
X161881904Y-55520419D01*
X161881904Y-55520419D02*
X161929523Y-55615657D01*
X161929523Y-55615657D02*
X161929523Y-56425180D01*
X162358095Y-55472800D02*
X162500952Y-55425180D01*
X162500952Y-55425180D02*
X162739047Y-55425180D01*
X162739047Y-55425180D02*
X162834285Y-55472800D01*
X162834285Y-55472800D02*
X162881904Y-55520419D01*
X162881904Y-55520419D02*
X162929523Y-55615657D01*
X162929523Y-55615657D02*
X162929523Y-55710895D01*
X162929523Y-55710895D02*
X162881904Y-55806133D01*
X162881904Y-55806133D02*
X162834285Y-55853752D01*
X162834285Y-55853752D02*
X162739047Y-55901371D01*
X162739047Y-55901371D02*
X162548571Y-55948990D01*
X162548571Y-55948990D02*
X162453333Y-55996609D01*
X162453333Y-55996609D02*
X162405714Y-56044228D01*
X162405714Y-56044228D02*
X162358095Y-56139466D01*
X162358095Y-56139466D02*
X162358095Y-56234704D01*
X162358095Y-56234704D02*
X162405714Y-56329942D01*
X162405714Y-56329942D02*
X162453333Y-56377561D01*
X162453333Y-56377561D02*
X162548571Y-56425180D01*
X162548571Y-56425180D02*
X162786666Y-56425180D01*
X162786666Y-56425180D02*
X162929523Y-56377561D01*
X163691428Y-55948990D02*
X163834285Y-55901371D01*
X163834285Y-55901371D02*
X163881904Y-55853752D01*
X163881904Y-55853752D02*
X163929523Y-55758514D01*
X163929523Y-55758514D02*
X163929523Y-55615657D01*
X163929523Y-55615657D02*
X163881904Y-55520419D01*
X163881904Y-55520419D02*
X163834285Y-55472800D01*
X163834285Y-55472800D02*
X163739047Y-55425180D01*
X163739047Y-55425180D02*
X163358095Y-55425180D01*
X163358095Y-55425180D02*
X163358095Y-56425180D01*
X163358095Y-56425180D02*
X163691428Y-56425180D01*
X163691428Y-56425180D02*
X163786666Y-56377561D01*
X163786666Y-56377561D02*
X163834285Y-56329942D01*
X163834285Y-56329942D02*
X163881904Y-56234704D01*
X163881904Y-56234704D02*
X163881904Y-56139466D01*
X163881904Y-56139466D02*
X163834285Y-56044228D01*
X163834285Y-56044228D02*
X163786666Y-55996609D01*
X163786666Y-55996609D02*
X163691428Y-55948990D01*
X163691428Y-55948990D02*
X163358095Y-55948990D01*
D12*
%TO.C,C2*%
X174040000Y-71500000D02*
X175980000Y-71500000D01*
X181960000Y-71500000D02*
X180020000Y-71500000D01*
X180020000Y-70080000D02*
X175980000Y-70080000D01*
X175980000Y-72920000D01*
X180020000Y-72920000D01*
X180020000Y-70080000D01*
%TO.C,R8*%
X206500000Y-75960000D02*
X206500000Y-76730000D01*
X206500000Y-84040000D02*
X206500000Y-83270000D01*
X205130000Y-76730000D02*
X207870000Y-76730000D01*
X207870000Y-83270000D01*
X205130000Y-83270000D01*
X205130000Y-76730000D01*
%TO.C,R12*%
X198000000Y-75960000D02*
X198000000Y-76730000D01*
X198000000Y-84040000D02*
X198000000Y-83270000D01*
X196630000Y-76730000D02*
X199370000Y-76730000D01*
X199370000Y-83270000D01*
X196630000Y-83270000D01*
X196630000Y-76730000D01*
%TO.C,R11*%
X217500000Y-54460000D02*
X217500000Y-55230000D01*
X217500000Y-62540000D02*
X217500000Y-61770000D01*
X218870000Y-61770000D02*
X216130000Y-61770000D01*
X216130000Y-55230000D01*
X218870000Y-55230000D01*
X218870000Y-61770000D01*
%TO.C,R9*%
X232000000Y-59540000D02*
X232000000Y-60310000D01*
X232000000Y-67620000D02*
X232000000Y-66850000D01*
X230630000Y-60310000D02*
X233370000Y-60310000D01*
X233370000Y-66850000D01*
X230630000Y-66850000D01*
X230630000Y-60310000D01*
%TO.C,C1*%
X186540000Y-71500000D02*
X188480000Y-71500000D01*
X194460000Y-71500000D02*
X192520000Y-71500000D01*
X188480000Y-72920000D02*
X192520000Y-72920000D01*
X192520000Y-70080000D01*
X188480000Y-70080000D01*
X188480000Y-72920000D01*
%TO.C,M1*%
X219955000Y-52845000D02*
X219955000Y-54115000D01*
X220795000Y-55275000D02*
X220795000Y-55505000D01*
X221225000Y-52845000D02*
X219955000Y-52845000D01*
X221655000Y-55275000D02*
X221655000Y-55505000D01*
X222495000Y-55505000D02*
X222495000Y-58265000D01*
X223335000Y-55192358D02*
X223335000Y-55505000D01*
X223335000Y-58265000D02*
X223335000Y-64265000D01*
X223335000Y-64265000D02*
X224195000Y-64265000D01*
X224195000Y-55192358D02*
X224195000Y-55505000D01*
X224195000Y-64265000D02*
X224195000Y-58265000D01*
X219845000Y-55505000D02*
X225145000Y-55505000D01*
X225145000Y-58265000D01*
X219845000Y-58265000D01*
X219845000Y-55505000D01*
X220795000Y-58265000D02*
X221655000Y-58265000D01*
X221655000Y-64265000D01*
X220795000Y-64265000D01*
X220795000Y-58265000D01*
G36*
X220795000Y-58265000D02*
G01*
X221655000Y-58265000D01*
X221655000Y-64265000D01*
X220795000Y-64265000D01*
X220795000Y-58265000D01*
G37*
%TO.C,R4*%
X183040000Y-63500000D02*
X183810000Y-63500000D01*
X191120000Y-63500000D02*
X190350000Y-63500000D01*
X190350000Y-62130000D02*
X183810000Y-62130000D01*
X183810000Y-64870000D01*
X190350000Y-64870000D01*
X190350000Y-62130000D01*
%TO.C,R7*%
X216500000Y-75960000D02*
X216500000Y-76730000D01*
X216500000Y-84040000D02*
X216500000Y-83270000D01*
X215130000Y-76730000D02*
X217870000Y-76730000D01*
X217870000Y-83270000D01*
X215130000Y-83270000D01*
X215130000Y-76730000D01*
%TO.C,Q2*%
X196620000Y-87360000D02*
X199380000Y-87360000D01*
X196620000Y-92550000D02*
X196620000Y-87360000D01*
X196620000Y-92550000D02*
X199380000Y-92550000D01*
X196620000Y-93820000D02*
X196620000Y-95200000D01*
X196620000Y-95200000D02*
X198000000Y-95200000D01*
X199380000Y-92550000D02*
X199380000Y-87360000D01*
%TO.C,R1*%
X183040000Y-60000000D02*
X183810000Y-60000000D01*
X191120000Y-60000000D02*
X190350000Y-60000000D01*
X190350000Y-58630000D02*
X183810000Y-58630000D01*
X183810000Y-61370000D01*
X190350000Y-61370000D01*
X190350000Y-58630000D01*
%TO.C,R2*%
X183040000Y-56500000D02*
X183810000Y-56500000D01*
X191120000Y-56500000D02*
X190350000Y-56500000D01*
X190350000Y-55130000D02*
X183810000Y-55130000D01*
X183810000Y-57870000D01*
X190350000Y-57870000D01*
X190350000Y-55130000D01*
%TO.C,R3*%
X183040000Y-53000000D02*
X183810000Y-53000000D01*
X191120000Y-53000000D02*
X190350000Y-53000000D01*
X190350000Y-51630000D02*
X183810000Y-51630000D01*
X183810000Y-54370000D01*
X190350000Y-54370000D01*
X190350000Y-51630000D01*
%TO.C,Q1*%
X215120000Y-87360000D02*
X217880000Y-87360000D01*
X215120000Y-92550000D02*
X215120000Y-87360000D01*
X215120000Y-92550000D02*
X217880000Y-92550000D01*
X215120000Y-93820000D02*
X215120000Y-95200000D01*
X215120000Y-95200000D02*
X216500000Y-95200000D01*
X217880000Y-92550000D02*
X217880000Y-87360000D01*
%TO.C,Rw1*%
X223500000Y-84880000D02*
X223500000Y-85650000D01*
X223500000Y-92960000D02*
X223500000Y-92190000D01*
X222130000Y-85650000D02*
X224870000Y-85650000D01*
X224870000Y-92190000D01*
X222130000Y-92190000D01*
X222130000Y-85650000D01*
%TO.C,A1*%
X153600000Y-51940000D02*
X158680000Y-51940000D01*
X153600000Y-90170000D02*
X153600000Y-51940000D01*
X153600000Y-95380000D02*
X153600000Y-92710000D01*
X156270000Y-54610000D02*
X153600000Y-54610000D01*
X156270000Y-90170000D02*
X153600000Y-90170000D01*
X156270000Y-90170000D02*
X156270000Y-54610000D01*
X156270000Y-90170000D02*
X156270000Y-92710000D01*
X156270000Y-92710000D02*
X153600000Y-92710000D01*
X158680000Y-49400000D02*
X158680000Y-59820000D01*
X158680000Y-59820000D02*
X166560000Y-59820000D01*
X166560000Y-49400000D02*
X158680000Y-49400000D01*
X166560000Y-59820000D02*
X166560000Y-49400000D01*
X168970000Y-54610000D02*
X171640000Y-54610000D01*
X168970000Y-92710000D02*
X168970000Y-54610000D01*
X168970000Y-92710000D02*
X171640000Y-92710000D01*
X171640000Y-51940000D02*
X166560000Y-51940000D01*
X171640000Y-51940000D02*
X171640000Y-95380000D01*
X171640000Y-95380000D02*
X153600000Y-95380000D01*
%TO.C,BT1*%
X231235000Y-94335000D02*
X231235000Y-95195000D01*
X231235000Y-95195000D02*
X237235000Y-95195000D01*
X237235000Y-94335000D02*
X231235000Y-94335000D01*
X239995000Y-93495000D02*
X237235000Y-93495000D01*
X240225000Y-91795000D02*
X239995000Y-91795000D01*
X240225000Y-92655000D02*
X239995000Y-92655000D01*
X240307642Y-94335000D02*
X239995000Y-94335000D01*
X240307642Y-95195000D02*
X239995000Y-95195000D01*
X242655000Y-90955000D02*
X241385000Y-90955000D01*
X242655000Y-92225000D02*
X242655000Y-90955000D01*
X237235000Y-91795000D02*
X231235000Y-91795000D01*
X231235000Y-92655000D01*
X237235000Y-92655000D01*
X237235000Y-91795000D01*
G36*
X237235000Y-91795000D02*
G01*
X231235000Y-91795000D01*
X231235000Y-92655000D01*
X237235000Y-92655000D01*
X237235000Y-91795000D01*
G37*
X239995000Y-90845000D02*
X237235000Y-90845000D01*
X237235000Y-96145000D01*
X239995000Y-96145000D01*
X239995000Y-90845000D01*
%TD*%
M02*
